<svg id="Layer_1" xmlns="http://www.w3.org/2000/svg" viewBox="0 0 792 454.6"><style>.st0{fill:none;stroke:#555}</style><path id="US-WA" class="st0" d="M199.1 0l2.2 7.2-2.9 4.3s0 5 7.2 13.7c7.9 8.6 16.5 0 17.3 6.5s-.7 10.1 0 11.5c1.4 1.4 7.2 10.1 6.5 15.8-.7 5-11.5-8.6-9.3-1.4 2.2 7.2 8.6 15.8 4.3 15.8-3.6 0-12.2-5-8.6 1.4 3.6 6.5 18.7 15.1 19.4 19.4.7 4.3-16.5 7.9-15.1 10.8 1.4 3.6 15.1-7.9 15.1-4.3 0 4.3-10.1 7.2-5.8 12.2 4.3 5 12.9 0 12.9 2.9s12.9 15.8 9.3 18c-3.6 2.2-12.9 12.9-12.9 15.1 0 2.2-2.9 6.5-2.2 8.6 0 2.2 4.3 6.5 2.2 8.6-2.9 2.2-2.2 4.3-3.6 5.8-.7 1.4-4.3 1.4-2.2 4.3 2.2 2.2 5.8 1.4 5.8 2.9s6.5 3.6 4.3 5.8c-2.2 2.9-7.9 3.6-5.8 7.2 1.4 3.6 3.6 7.9 3.6 10.1 0 2.2 2.9 5.8 1.4 7.9-1.4 2.2.7 5.8-2.9 7.2-4.3 2.2-3.6 2.2-3.6 3.6s-2.2 5.8-4.3 4.3c-2.2-1.4-6.5-2.9-6.5-2.9s.7.7-1.4 4.3c-2.2 3.6-2.9 10.8-5.8 14.4-2.9 3.6-11.5 11.5-12.9 10.1-1.4-2.2-2.2-7.2-5-6.5-2.9.7-16.5 11.5-18 10.1-2.2-1.4-17.3-10.1-16.5-11.5 1.4-1.4 8.6-5 10.1-6.5s20.1-23.7 20.9-22.3c0 1.4-5.8 20.1-1.4 18.7s5.8-19.4 8.6-18.7c2.9.7 10.8-9.3 11.5-5.8.7 3.6-5.8 14.4-1.4 14.4 4.3 0 7.2 2.2 7.2-2.2.7-3.6.7-10.1 0-13.7-.7-3.6 2.2-5.8 2.2-8.6 0-2.2-2.2-9.3-3.6-10.8-2.2-1.4-12.2 10.8-12.2 5.8s3.6-7.2 2.2-8.6c-.7-1.4-5.8-5.8-4.3-7.9 2.2-2.2 7.2 3.6 7.9 0 0-2.9-2.2-13.7-.7-13.7 2.2 0 7.2 1.4 7.9 0 0-1.4 2.2-5.8 3.6-3.6 1.4 2.2 7.2 4.3 5 .7s-4.3-11.5-7.9-8.6c-3.6 2.9-3.6 5-5.8 3.6-2.9-1.4-7.2 1.4-10.1 5-2.9 4.3-2.2 9.3-5.8 12.2-3.6 2.9-12.9 7.9-14.4 9.3-.7.7-8.6.7-5-4.3 3.6-5 7.9-10.1 7.9-11.5 0-1.4 7.9-13.7 8.6-10.1 0 3.6 2.9 10.1 4.3 5.8 2.2-4.3.7-5.8 3.6-9.3 2.9-2.9 6.5-4.3 5.8-7.9-.7-2.9-4.3-10.8-7.2-13.7-3.6-3.6-7.2-7.2-7.9-8.6 0-1.4 4.3-7.9 4.3-7.9s-5.8-4.3-8.6 0c-2.9 4.3 3.6 5.8 2.9 7.2-.7 1.4-.7 2.9-1.4 5-.7 2.2-4.3 11.5-6.5 5.8-2.2-5.8-2.9-12.9-5-13.7-2.2-.7 0 9.3-5 7.2s-8.6-11.5-10.1-12.2c-1.4-.7-10.1-2.9-11.5-1.4-1.4 1.4-16.5 0-18.7 0-2.2 0-16.5.7-16.5.7s-1.4-3.6-2.9-2.2c-1.4.7-1.4 2.9-2.9 2.9-1.4 0-5-5-7.9-4.3-2.9.7-28 2.2-28.8.7-.7-.7-2.9-2.2-5-2.9-1.4-.7-18.7-9.3-24.4-11.5-6.7-2.2-29-11.6-31.9-14.5s-10.8-5-11.5-4.3c-.7.7 2.2 5.8 2.9 7.9 0 2.2-2.2 4.3-2.2 6.5-.7 2.2-1.4 7.9-1.4 11.5 0 3.6-4.3 6.5-2.2 9.3 2.2 2.9 7.2 10.1 6.5 12.2-1.4 2.9-5.8 3.6-3.6 5.8 2.2 2.2 2.9 5.8 3.6 7.9.7 2.2-1.4 2.9.7 5 2.2 2.2 2.9 1.4 5 2.9 2.2 1.4 13.7 8.6 16.5 15.1 2.9 6.5 3.6 11.5 4.3 14.4.7 2.2 2.2 1.4 2.2 6.5s0 7.9.7 9.3c.7 1.4-2.9 9.3 1.4 15.8s7.9 9.3 10.1 15.1c2.2 5.8 2.2 8.6 4.3 13.7s2.2 8.6 2.2 11.5c0 2.9 4.3 7.9 6.5 8.6 2.2 0 7.2-2.2 8.6 0 1.4 2.2 2.2 5.8 3.6 7.2 1.4 1.4 20.9 3.6 16.5 5-4.3 2.2-11.5.7-12.2 2.2-.7 1.4-4.3 2.9-5 2.9-1.4 0-1.4 2.9-1.4 3.6 0 .7-5.8.7-2.9 4.3s5 2.9 5 5c0 1.4-4.3 2.2.7 7.9 4.3 5.8 7.9-.7 13.7 2.9s12.9 5 9.3 6.5c-4.3 1.4-15.1-6.5-15.1 0s4.3 7.2 3.6 12.2c-.7 5-5 10.1-5 15.1 0 4.3 2.2 7.9 1.4 9.3-1.4 1.4-6.5 2.9-8.6 5.8-1.4 2.9-2.2 7.9 0 8.6 2.2.7 8.6 5.8 14.4 7.9 5 1.4 23.7-1.4 30.2 0 5-1.4 10.8-2.2 12.2 0 2.9 3.6 4.3 3.6 7.9 6.5 3.6 2.9 3.6 2.9 5 4.3s6.5.7 7.2.7c.7-.7 12.2-4.3 12.9-2.9.7 1.4.7 3.6 2.9 4.3 2.9 1.4 10.1 0 10.1 2.2s4.3 3.6 5.8 5c1.4 1.4 2.9 2.2 3.6 4.3s2.2 4.3 2.2 7.9c0 2.9 2.9 4.3 3.6 5.8.7 2.2 2.2.7 2.2 3.6 0 3.6 1.4 7.2 1.4 7.2l.7 7.9s-.7 4.3 0 6.5 6.5 18 7.9 19.4c1.4 1.4 5.8 2.2 10.1 3.6 4.3.7 9.3 0 17.3 2.9 7.9 2.2 21.6 3.6 23 2.9 2.2-.7 12.9-5.8 15.8-6.5 2.9 0 12.2-7.9 12.2-7.9s12.2-12.9 14.4-9.3 2.9 5 7.2 5c4.3-.7 11.5-5 16.5-4.3 5.8 1.4 11.5 3.6 20.1 4.3 7.9.7 12.9 2.9 15.1 5s-1.4 10.1 5.8 5.8c7.2-4.3 1.4-5.8 10.8-5.8s19.4-1.4 21.6-2.9 10.8-5 12.9-5 12.2-7.9 15.8-2.9c3.6 4.3 23.7 2.2 23.7 2.2s10.1-3.6 13.7-5 13.7-9.3 19.4-9.3 12.2-.7 17.3-1.4c5-.7 16.5-4.3 16.5-4.3s25.9-3.6 28-5.8c2.2-2.2 29.5-10.1 35.2-9.3 5.8.7 215.7 0 215.7 0s1.4-3.6-.7-5c-2.2-2.2-9.3-6.5-7.2-7.9 2.2-1.4 6.5-6.5 5-9.3-1.4-2.9-2.9-7.2-2.9-7.9 0-.7.7-7.2-.7-7.9-1.4-.7-5-5.8-5-6.5 0-.7-4.3-5-4.3-7.9s5-5 4.3-7.2c-.7-2.2-2.9-5-3.6-6.5s0-293.4 0-330.8L199.1 0z"/></svg>