<svg id="Layer_1" xmlns="http://www.w3.org/2000/svg" viewBox="0 0 417.5 442.8"><style>.st0{fill:none;stroke:#555}</style><path id="US-TX" class="st0" d="M2.1 196.6s2.9.5 4.1 1.1 1.8.5 2.5 1.4.5 1.6.7 2.7c.2 1.1.7.5.7 1.6s.9 2.3 2 4.3 2.7 3.8 4.5 4.3c1.8.5 2.9-.2 3.4.9s1.1 1.1 1.8 2c.9.9 2.7 2.3 2.9 3.2.5.9.7 1.6 1.4 2 .7.7 5 4.5 5.4 4.7.2.2 1.6 0 1.6 1.4s0 2.5.7 2.9c.7.7 4.3 3.4 4.3 3.4s3.6 3.8 4.5 4.5c.7.7 1.4 0 1.8.2.5 0 .9-.7 1.8.5.7 1.1 3.4 2.9 4.5 3.4 1.4.7.7 1.1.9 1.8.2.9.2 1.8.9 2.5s1.4.2 1.8 1.1c.5.9 1.8 1.6 1.8 2.7.2 1.1-1.4.5-.5 2 .7 1.6 1.8 3.8 2.3 4.5.5.7 4.1 5.2 3.8 6.3-.2 1.1 0 6.1-.2 6.8-.5.7.2 1.8.2 2.5s1.8 5 2 5.4c.2.5-.5 1.8.5 2.3 1.1.5 1.1 0 1.6 1.1s-.2 1.6.2 2.3c.5.7 1.1 2.5 2 3.8s3.6 3.6 4.3 4.1c.7.5 3.2 0 4.1 1.6.9 1.6.2 1.8 1.1 2.5.9.7 8.1 5.9 8.1 5.9s2 .9 3.4.9c1.4.2 1.8-.9 2 0 0 1.1.2 2 .2 2s3.6 2 4.3 2.5c.7.5 2 .5 3.2 1.4 1.1.7 2 1.1 2.5 2 .5 1.1 2.3 2.5 2.3 2.5s.9-.9 1.8 0c.9.7.2 1.6 2.3 1.4 2 0 2.9.9 3.6-.2.9-1.1 1.1-3.4 1.8-3.6.7-.2 1.8-1.4 2.3-2.3.5-.9.9-1.6 2-2.3 1.1-.9 1.4-.2 1.4-1.8.2-1.6.5-3.4 1.1-4.1.7-.7.5-.2 1.6-2.9 1.1-2.7-.9-2.9 1.1-5.6s1.1-3.4 2.3-5.4 1.4-3.2 2.3-2.9c.9 0 2.5-1.4 3.2-.9.7.7.7.9 1.1.5.2-.7 1.1-1.6 1.6-1.4.5.2 1.8 2.3 2.7.7.7-1.4 2.7-5.9 3.8-4.3 1.1 1.6 3.6 3.6 5.9 2.9 2.3-.7 2.3-1.1 3.8 0 1.4 1.1 3.4.2 3.4.2s3.6 0 6.1.7c2.7.7 6.1-2 7-.2.9 1.8 1.4.9 2.3 3.8.7 2.9.7 3.4 2.5 2.9l2-.5s1.1 2.3.9 3.4 1.8 1.1 2.3 2c.5.9 3.2 0 3.2 1.6s0 3.2 1.4 3.8c1.4.7 3.4 1.4 3.8 2.5.5 1.1 2.3 1.1 2.7 3.2.5 2 2.3 1.4 3.6 5 1.4 3.6 1.1 3.6 1.6 5.9.5 2.3-.5 2.7 1.4 4.7 1.8 2 6.8 14.4 7.4 15.8.5 1.4.5 2.9.9 3.6.5.9.9.9.9 1.6 0 .7 0 3.8 2.7 5.9 2.5 1.8 4.5 1.6 5.2 3.6.7 2.3 2.3 5.6 2.9 6.1.7.2 1.6-.7 1.6.9s.7 3.2 1.6 4.1c.9.9.5 2.9.9 3.8.5.9 9.7 6.5 9.9 7.7.2 1.4 1.6 8.1.9 9.5-.9 1.1-.9 1.4 0 2.5s1.1.7 1.6 2.5-1.4 6.5.2 8.1c1.8 1.8-.2 1.6 1.8 4.3 2 2.7 2.9 2.5 3.8 4.5 1.1 2 1.1 3.8 2.3 6.3 1.1 2.5-.5 3.6 1.1 6.1s.9 4.7 2.5 6.1c1.6 1.4 4.3 0 6.1.9 1.8.9 4.3 1.4 4.5 1.8.2.5 1.1 3.2 2.9 3.6 1.8.5 3.8-1.1 4.5.2.7 1.4 2 .9 3.6 2.7 1.6 1.8 8.6 4.5 12.8 4.7 4.3 0 6.1-1.4 7.9.5 1.8 1.8 3.2 1.4 5 3.6 1.8 2.3 2.7 4.7 6.1 2.9 3.4-1.8 4.3-1.8 4.7-2.5.5-.7 1.1-3.4 0-5.2-1.1-1.8-2.5-2.7-2.5-4.7s-.9-5.9-1.6-7-3.6-1.6-2.3-4.5c1.4-2.9.9-6.3.5-7.2-.5-.9-1.8-5.9-2.5-6.5-.9-.7-2.5-2.5-2-3.4.2-.7 1.6-1.1.9-2-.7-.9-2-3.8-.7-3.8 1.4 0 2.3-2.5 2.3-2.9 0-.5 2.5-6.1 1.4-6.3-.9-.2-3.6 1.1-4.7.2-.9-.9-2-1.6-2.9-1.1-.9.5-3.4 1.4-2.5 0 .9-1.4 3.2-1.6 2-3.4s-2-5-1.4-4.3c.7.9 1.8 1.8 2.5 2.5.7.9 1.4 1.4 2.3.2s3.8-2.9 4.5-1.4 1.8 1.1 1.4-.5c-.5-1.6-2.9-3.4-1.6-4.5 1.4-1.1 3.2-.7 3.4-1.6 0-.9 3.8-4.1 1.6-6.3-2.3-2-3.4-2-4.7-2.9-1.4-.9-4.1-1.8-2.9-2.5 1.1-.7 7-2.7 8.8-.9 1.8 1.8 2.3 1.6 2.7.5.5-1.4 3.4-2.5 1.8-4.7-1.6-2.3-2.3-2-2.7-2.7-.5-.7-1.6-3.8-.2-4.3 1.4-.5 3.8-1.1 5-2 1.1-.9 3.8-4.3 4.7-2.5.7 1.8 1.4 2.3 1.8 1.8.5-.5 2.7-4.3 2-5-.9-.7-3.8-2.5-2.5-3.8 1.4-1.4 3.2-3.2 3.6-2 .2 1.1.2 2.5 1.4 3.6 1.1 1.1 1.4 1.1 3.2.5 1.8-.9 7.4-.7 5.4-2.5s-5.6-3.2-4.7-3.6c1.1-.7 1.6-1.6.5-2.3-1.1-.7-4.5-4.7-2.9-5.4s3.2-2 4.3 0c1.1 2.3 2.5 3.4 2.5 2.3s-1.6-6.5.2-5.2c2 1.4 4.1 2.5 4.1 3.2s0 2.3.9 1.4c1.1-.9 2.5-2.5 2.9-1.8.5.7-1.8 1.1-.5 2.5 1.4 1.4 3.2 1.1 3.6.9.5-.2 3.6-1.8 6.5-3.6 3.2-1.6 5.9-1.4 7.9-2 2-.7 3.4-3.4 5.4-5 2.3-1.4 7.2-3.8 7.4-5s2.5-5 2.3-6.3c-.2-1.4-.9-3.4.5-2.7 1.4.7 1.8 1.4 2.7.2s5.9-2.9 4.5-5.9-.5-4.3-1.4-5.4c-.9-1.1-3.6-2.5-2.9-3.6.5-1.4 2.3-.9 1.1-2-1.1-1.1-2-3.2-1.4-3.6.7-.5 5.6 3.2 5.9 1.6 0-1.6.9-4.5 2.5-5 1.6-.2 3.4-1.4 3.6.7 0 2 0 3.8-.5 4.7-.2 1.1-2.5 2.9-1.4 3.6 1.1.7.7.2 3.4 0s4.1-1.4 4.3-.5c.2.7.5 1.4 1.4 1.1.9-.2-.7 2.3 2.3.5s4.7-2 6.8-3.4c2-1.4 5.4-3.2 6.5-2.3 1.1.7 5 .9 3.8 0-.9-.9-4.3-5-2.9-7 1.1-1.8 5.4-5.6 6.3-5.9l.2-.5s-.2-.2-.2-1.1c0-.7.9-2.5.9-3.2s.7-1.4 1.1-2c.5-.7-.9-4.3-1.1-5 0-.7-.7-3.2-.7-4.1 0-.9.5-1.8.9-2 .5-.2.7-1.1.9-1.6.2-.5-.2-1.1-.7-1.6-.5-.5-.5-3.2-.2-3.6 0-.5 1.6-2.9 2.5-3.4 1.1-.5 0-1.6 1.1-3.4.9-1.8 1.1-6.3.9-6.5 0-.2.7-1.1 1.4-1.4s-.9-2.9-.9-3.2 1.1-.7 1.8-1.1c.7-.5-1.6-1.8-1.8-2.3-.2-.7.2-1.1.5-2.3 0-1.1-1.4-3.8-1.4-3.8s-.5-.7-.5-1.1c0-.2-1.1-.7-1.6-1.4-.2-.7-.2-.9 0-1.6s-.5-1.6-.7-2.5-.7-1.1-1.4-2.3c-.7-1.1-1.4-2.3-2.7-4.5-1.4-2-.7-7.4-.7-7.9-.2-.7-.5-1.8-.5-2.5 0-.5-.9-.9-.9-1.4 0-.5-1.1-1.8-1.8-2.3-.7-.7-1.4-1.1-1.6-2-.2-.7-2-1.4-2-1.4v-64.6s-1.8-.9-2.3-.9c-.7 0-1.8-.5-2-.7-.2-.5-1.6 0-1.8.7s-1.1-.5-1.6-.9c-.5-.5-2.9 1.1-3.4.7-.7-.7-.7 0-1.6-.9s-.7-1.1-.7-1.8c0-.5-1.1-.7-1.4-.7s-.9 0-2.9-1.1-3.6-1.1-4.5-1.8c-.9-.5-2.9-.9-3.8-1.4-1.1-.5-.9-1.1-1.4-1.6-.5-.5-2-1.4-2-2s-1.1-.7-1.6-1.4-2-.7-3.6-2.5c-1.6-1.6-2.5-.9-2.9-.9-.5 0-2.9 2.7-3.6 3.2-.7.7-3.4.2-3.8.2-.7 0-.7-.2-1.6-.5-.9 0-1.4-.9-1.8-2.3-.5-1.4-4.7 1.8-5.9 1.8-.9 0-3.8 1.1-3.8 1.1s-1.1-.2-1.8-.9c-.7-.5-.9 0-2 .9-.9.7 0 1.4-2.7.2-2.7-1.1-2 1.1-2.9 2-.9.9-1.8 2-3.4 1.8-1.8 0-.9 1.1-2.3 2-1.1.9-1.6-2.9-2-2.9-.5 0-3.6-.5-3.6-1.4 0-.7-.9-.5-1.6-.9-.7-.7-1.1-1.1-1.1-1.8s-.7-.5-1.1-1.4c-.7-.9-1.4 1.8-2 2-.7.2-4.7-.7-5-1.1-.2-.2-.2-.9-.2-1.6s-1.1 0-1.4-.7c-.2-.7-1.8-.5-2.5 0s-.7 2.9-.7 3.2c0 .2-.5.2-1.1.5s-.7.5-.7.7c0 .5-.2.7-.7 1.1-.7.5-.2 2.7-.2 2.7s-2 .5-2.7 0c-.9-.5 0-1.4 0-1.4s-.5-1.1-.7-1.6c-.2-.5.7-.5.7-1.1 0-.9.2-1.8.2-2.5s-3.8 1.4-4.7 1.8c-.9.5-1.1 1.1-2 1.1s-1.6-1.1-2-1.4c-.2-.2-.7-.9-.7-1.8 0-.7-3.8 0-3.8-.2s-.2-1.4 0-2.5-.5-.2-1.1-.7c-.7-.5-3.4 2-3.8 2.3-.2.2-.9 1.6-2 2-1.1.7-1.1 1.1-1.6 1.1-.2 0-1.8-1.1-2.7-1.8-.9-.5 0-3.6 0-4.3s-2.3-.5-2.7-.7c-.5-.2-.9-.5-.9-1.1 0-.5-.5-1.4-1.4-1.8-.7-.5-.5-.9 0-1.1.7-.2.7-1.1.9-2 .2-1.1-3.6.9-4.7 1.1-1.1 0-2.5.2-2.9-.2-.5-.5-.7-.5-1.1-.2-.5.2-1.8 2-2.3 2.5-.7.5-3.2.2-4.1-1.6-.9-1.8-.7-2-.9-2.5-.2-.5-6.3 1.1-6.8 1.1s-2.5-.5-3.2-1.4c-.7-.9-2.3-1.6-2.5-1.6 0 0-.9.5-1.1.7-.5.2-.9 0-.9-.2s-4.5-.5-4.7-.7c-.2-.2-.2-3.4-.5-4.1 0-.7-.7-1.4-1.1-1.6s-.5-1.1-.7-1.4c0-.2-.9-.7-1.1-.7s-1.1-.7-1.1-1.4-1.4-.2-1.4-.2-.7 2-.7 2.3c-.2.2-.5.9-.7 1.1s-1.8-.9-2.3-.9-.7-.5-1.1-.9c-.5-.2-1.8.7-1.8.7-.2 0-2.9.2-3.4 0s-.7-.5-.9-.5c-.2 0-1.4-2-1.4-2.7 0-.5-2.5-2.7-2.7-2.9l-.9-.9c-.2 0-1.1.2-2-.5-.9-.7-2.7-.7-2.7-.7V0l-96 .2L114 187H.3s0 .2-.2.2.5 2 .7 2.3.5 2.9.5 3.4.7.2.9.5c.2.2.2 1.1.2 1.4s.2.7.5.9c-1.3 0-1.1.7-.8.9z"/></svg>