<svg id="Layer_1" xmlns="http://www.w3.org/2000/svg" viewBox="0 0 417.5 214.2"><style>.st0{fill:none;stroke:#555}</style><path id="US-OK" class="st0" d="M1 29.7l146.2-.3v122.9s2.8 0 4.2 1c1.4 1 2.8.7 3.1.7.3 0 1 1 1.4 1.4.3.3 4.2 3.8 4.2 4.5 0 .7 1.7 4.2 2.1 4.2.3 0 1 .3 1.4.7.7.3 4.9 0 5.2 0s2.4-1.7 2.8-1c.7.3.7 1.4 1.7 1.4.7 0 3.1 1.7 3.5 1.4.3-.3.7-1.4 1-1.7.3-.3 1-3.5 1-3.5s2.1-.3 2.1.3c0 1 1.4 1.7 1.7 2.1.3 0 1.7.7 1.7 1s.3 2.1 1 2.1c.7.3 1.7 1.4 1.7 2.4s0 5.9.7 6.2c.3.3 7.3 1 7.3 1 0 .3.7.7 1.4.3s1.7-1 1.7-1 2.8 1 3.8 2.4 4.2 1.7 4.9 2.1c1 .3 10.4-2.1 10.4-1.7.3.7 0 1 1.4 3.8s5.6 3.1 6.2 2.4c1-.7 2.8-3.8 3.5-3.8.7-.3 1-.3 1.7.3.7.7 2.8.7 4.5.3 1.7 0 7.6-3.5 7.3-1.7-.3 1.7-.3 2.8-1.4 3.1-1 .3-1.4 1 0 1.7 1 .7 2.1 2.1 2.1 2.8 0 .7.7 1.4 1.4 1.7.7.3 4.2 0 4.2 1s-1.4 5.6 0 6.6c1.4.7 3.8 2.4 4.2 2.8.3 0 .7-1 2.4-1.7 1.7-1 2.8-2.8 3.1-3.1.3-.3 4.9-4.5 5.9-3.5 1 .7 1.7-.3 1.7 1-.3 1.7 0 3.1 0 3.8 0 .3 5.9-.7 5.9.3 0 1.4.7 2.4 1 2.8.3.3 1.7 2.1 3.1 2.1 1.4 0 1.7-1 3.1-1.7 1.4-.7 7.3-4.2 7.3-2.8 0 1-.3 2.4-.3 3.8s-1.4 1-1 1.7c.3.7 1 2.4 1 2.4s-1.4 1.7 0 2.1c1.4.7 4.2 0 4.2 0s-.7-3.5.3-4.2c1-.7 1-1.4 1-1.7 0-.7 0-1 1-1 1-.3 1.7-.3 1.7-.7s0-4.2 1-4.9c1-.7 3.5-1 3.8 0 .3 1 2.1 0 2.1 1s0 2.1.3 2.4c.3.3 6.6 2.1 7.6 1.7 1-.3 2.4-4.5 3.1-3.1 1 1.4 1.7 1 1.7 2.1 0 1 .7 1.7 1.7 2.8s2.4.3 2.4 1.4 5.2 1.7 5.6 2.1c.7 0 1 5.9 3.1 4.5 1.7-1.4.7-3.5 3.5-3.1 2.8 0 3.8-1.4 5.2-2.8 1.4-1.4.3-4.9 4.5-3.1s2.4.7 4.2-.3c1.4-1 2.1-2.1 3.1-1.4 1 .7 2.8 1.4 2.8 1.4s4.2-1.7 5.9-1.7c1.4 0 8.3-4.9 9-2.8.7 2.1 1.4 3.5 2.8 3.5s1.7.3 2.4.7c1 0 4.9.7 5.9-.3s4.9-4.9 5.6-4.9c.7 0 2.4-1 4.5 1.4 2.4 2.4 4.9 2.4 5.6 3.8.7 1 2.4 1 2.4 2.1 0 1 2.8 2.4 3.1 3.1.7.7.3 1.7 2.1 2.4s4.5 1.4 5.9 2.1c1.4.7 3.8.7 6.9 2.8 3.1 1.7 4.2 2.1 4.5 1.7 3.8-38.2 1.4-124.3-.7-139.6-2.1-15.6-5.2-36.8-5.2-36.8l.3-37.5H0l1 29.8z"/></svg>