<svg id="Layer_1" xmlns="http://www.w3.org/2000/svg" viewBox="0 0 417.5 223.9"><style>.st0{fill:none;stroke:#555}</style><path id="US-KS" class="st0" d="M372.4.9v.8H0v222.2h417.5V65.7s-.8-.4-.4-.8c0-.8-2.4-1.6-2.8-2.4-.4-.8-.8.4-1.2 1.2-.4 1.2-3.2-.8-4.4-.8s-2.8-1.6-3.2-2.4 0-2.8 0-4.4-3.6-.4-3.6-.4-.4-5.6-.4-6.4-6.8-6.4-8.4-8.4c-1.6-1.6-2-4.4-2-4.8s0-.8.4-1.6c.4-.4.8-4.8 1.2-6s2.8-3.2 3.6-3.6c.8-.8 1.2-2.4 1.6-2.4 0-.4 2.8 0 2.8.4s1.2.4 2.4 0-1.2-3.6-2-4c-.8-.4.8-2.4.8-2.8s-1.6-1.2-2-2.4c-.8-1.2-1.6-2.4-2.4-2.8-.8-.8-3.6 1.6-3.6 1.6l-3.6.8s-.4 0-1.2-.8c-.8-.8-2.8-1.6-4.4-2.8-1.6-1.6-3.2-3.2-3.6-4-.4-1.2-2.8-.4-3.2-1.6-.8-1.2-1.2-2.4-1.6-3.2-.7-1.6-1.1-.8-3.9 0z"/></svg>