<svg id="Layer_1" xmlns="http://www.w3.org/2000/svg" viewBox="0 0 417.5 189.8"><style>.st0{fill:none;stroke:#555}</style><path id="US-NE" class="st0" d="M364 30.6c-.3.7-5.5-.3-5.5-.3-.3-.3-2.1-2.8-2.4-3.1 0-.3-1.4-2.1-1.4-4.1 0-1.7-2.8-1-3.8-2.1-1-.7-2.8-2.4-3.1-3.1-.3-.7-5.5-1.4-5.5-1.4s-3.4-1-3.4-1.7c-.3-.7-5.2-.7-5.8-1s-5.5-3.8-6.2-5.2c-.7-1-6.2.7-6.2.7l-12.7 1s-7.2.7-7.9 0c-1-.3-2.8 1.4-2.8 1.4l-4.1 2.4s-9.6-1.7-11.3-5.5c-2.1-3.4-6.5-2.4-8.6-3.8-2.1-1-5.5-4.8-5.5-4.8H0v126.5h96.9v63.3h320.4s.7-5.5 0-7.2c-.7-1.7-2.4-2.8-2.4-3.4s-.3-3.4-.3-4.5c0-1-1-.3-1.4-.3-.7 0-2.8-2.1-3.1-2.8-.3-.7-2.1.3-4.5-.7s.7-1.7 1-2.4c.3-.7-2.4-7.2-2.4-7.6 0-.3-.3-1.7-.3-2.1 0-.7-2.8-1.4-2.8-2.4-.3-1 0-7.9-.7-8.3-.7-.7-3.8-2.1-4.5-3.8-.7-1.7 1-7.6 1.7-9.3.7-2.1-1-3.4-1-4.1s.3-2.1.3-2.8c0-.3-1-2.4-1.4-4.8-.7-2.4 2.1-4.1 1.7-5.5 0-1-4.5-2.8-4.5-4.5 0-1.4 1.4-4.5 1.7-5.5.3-1-2.1-2.1-3.1-4.5-.7-2.1 1.4-5.2 1-6.2-.3-1.4-3.1-.3-3.8-1-.7-.7-.7-1.4.7-2.1 1.4-.7-4.5-4.1-5.2-5.5-.7-1.7-.7-4.5.3-5.5s1-7.6 1-7.9c0-.3-.7 0-2.4-3.1-2.1-2.8-1-5.5-1.4-7.2-.3-1.7-2.1-1-4.8-3.4-2.8-2.8-.3-3.4-.7-5.5-.3-2.1-2.8-1.4-3.4-3.4-.7-1.7-1.7-2.1-1-3.1s1.4-2.8 1.4-3.1c0-.7-.3-.7-1-1.7s-1.7-2.1-2.1-2.8c-.3-.3-.3-7.9-.3-8.9 0-.7-.7-.3-1-.7-.3-.3-.3-.7-.7-1-.3-.3-2.4-.3-2.4-.3l-1.5-.3z"/></svg>