<svg id="Layer_1" xmlns="http://www.w3.org/2000/svg" viewBox="0 0 417.5 248.1"><style>.st0{fill:none;stroke:#555}</style><path id="US-SD" class="st0" d="M411.6 0H0v212.7h305.7s3.9 4.3 6.3 5.5c2.4 1.2 7.5 0 9.8 4.3 2.4 3.9 12.9 6.3 12.9 6.3l4.7-2.7s2-2.4 3.1-1.6c1.2.4 9 0 9 0l14.5-1.2s6.7-2 7.1-.8c.8 1.2 6.3 5.1 7.1 5.9.8.4 6.3.4 6.7 1.2.4.8 3.9 2 3.9 2s5.9.8 6.3 1.6c.4.8 2.4 2.7 3.5 3.5 1.2.8 4.3 0 4.3 2.4s1.6 4.3 1.6 4.7c0 .4 2.4 3.1 2.7 3.5.4.4 5.9 1.2 6.3.8.4-.4 1.2-2.7.8-4.3-.8-1.2-1.6-2-2-3.5 0-1.6-1.2-3.1-2-3.5-.4-.4-5.9-1.6-5.1-2.7.8-1.2 2-4.3 2-4.3.4-.4 2.4-2.7 2.7-3.5.8-.8 1.2-5.5 1.2-5.9 0-.4 2.4-9 2.7-10.2.4-1.2 2-.8 2-1.6s.8-7.5 0-7.8c-1.2-.4-5.5-3.5-5.5-4.3 0-1.2 1.6-2.4 1.6-3.5 0-1.2 0-5.5-.8-6.3-.4-.8-4.7-7.5-2.7-6.7 2 .4 7.5-.8 7.5-.8V47.1s-3.1-4.7-7.1-5.1c-3.9-.4-5.5-1.2-6.3-2.4-.8-.8-2.4-3.5-2.7-3.9-.4-.4-7.5-7.5-5.5-10.2 2-2.7 5.5-7.8 7.5-8.2 2 0 3.5-2.4 4.3-4.3 1.2-2 2-3.9 2-3.9l.8-6.3.7-2.8z"/></svg>