<svg id="Layer_1" xmlns="http://www.w3.org/2000/svg" viewBox="0 0 417.5 222.3"><style>.st0{fill:none;stroke:#555}</style><path id="US-ND" class="st0" d="M380.6 0H0v222.3h416.4s-.4-5.6.4-6.4c.8-.8 1.2-1.2 1.2-2.4s-.4-6.7-.8-7.1c-.4-.4-.8-.4-.8-1.2 0-.4 0-8.3-.4-9.1-.4-1.2-1.2-2.4-1.6-2.8-.4-.4-4-4.8-4.8-5.6-.4-.8-.8-4.4-1.6-5.2-.4-.4-.8-1.6-.8-2.4s1.2-4.4 0-6c-1.2-1.2-3.6-2-3.6-3.6s1.2-2.4 1.2-2.4.8-1.6.8-2.4-1.2-4-1.6-4.4c-.4-.4-.4-3.2 0-3.6.4-.4.8-1.2 1.2-1.6 0-.4.8-4.4 0-5.2-.8-.8-.4-2.8-2-4.4-1.6-1.2-1.2-1.6-1.2-2.4s2.4-.4 1.2-3.6-1.6-6.4-1.6-6.4v-19.4s-.8-.4-.8-2 .4-4 .4-4.8 0-2.8-.4-3.6c-.4-.8.8-4.4-.4-6-1.6-1.6-1.6-2.4-1.6-3.2 0-1.2 0-3.2-.8-4-.8-.8-1.2-3.2-2-3.6-.4 0-2-.8-2.4-2-.4-1.2-.8-7.9-2-8.7s-2-1.6-2.4-2.8c-.4-1.2 0-6-.8-6.7-.8-1.2-3.6-5.2-3.6-6 0-.8-.4-25.4 0-26.2.8-.8-1.2-1.6-1.2-2.4 0-.8 1.2-2.8 1.2-3.6s2-4 2-4.8c0-.8-.8-4.4-1.6-5.2-.8-.8-2.4-2.8-2.4-3.6S380.4 4 379.6 2.8c1 .8 1-.8 1-2.8z"/></svg>