<svg id="Layer_1" xmlns="http://www.w3.org/2000/svg" viewBox="0 0 417.5 423.5"><style>.st0{fill:none;stroke:#555}</style><path id="US-MN" class="st0" d="M328.1 422.3c0-.4 0-12.1-.4-12.8s-1.2-1.2-1.2-2.7c0-1.6 1.9-2.7 1.2-4.3-.8-1.6-.4-3.1-1.2-4.7-1.2-1.6-2.3-2.3-3.1-3.5-.8-1.2-1.6-3.9-2.3-4.7s-4.7-3.9-5.4-3.9c-.8-.4-6.2-1.6-6.6-1.9-.4-.4-3.9-3.5-5.8-5.1-1.9-1.6-3.9-3.9-3.9-3.9s-1.9.8-3.9-1.9c-2.3-2.3-1.2-6.6-4.3-9.7-3.1-3.1-6.6-5.4-9.7-7-3.1-1.9-7.4-1.9-8.6-3.1s-6.6-7.8-6.6-7.8-6.6.8-8.9-.4c-2.3-1.6-5.1-5.8-8.2-8.2-2.7-2.3-5.1-1.2-5.4-4.3-.4-3.1.8-11.3.4-12.1-.4-.8-1.2-9.3-.4-10.5s2.3-2.3 2.3-3.5-3.5-3.9-1.9-8.2c1.6-4.3 1.2-5.4 2.7-7.4 1.6-2.3 3.5-3.1 3.5-4.7s1.2-1.9-.8-4.3c-1.6-1.9-5.1-7.4-5.8-8.2-.8-.4-5.1-.4-5.4-1.2-.8-1.2-.8-3.5-.4-5.1 0-1.2 1.2-3.9 1.9-5.1 1.2-1.6 4.3-3.9 4.7-4.3s.8-5.1 1.2-5.8c.4-.8 1.2-2.3 3.5-3.5 2.3-1.2 7.4-2.7 8.9-4.3 1.6-1.6 4.3-2.3 5.1-2.7.4-.4 3.5-1.2 4.3-2.3 1.2-1.2 3.5-1.9 3.1-3.9v-39.7s3.1 0 3.9-.8c.4-.4 1.6-4.3 1.6-4.3s2.3-1.9 3.1-1.9c.4 0 0-.4 1.2-.4 1.9-3.1 3.9-6.2 9.3-8.9 5.8-2.7 17.1-10.5 23.3-15.6s18.7-21.4 23-24.9c4.3-3.5 37-19.5 49.8-24.5 12.4-5.1 15.2-5.4 20.6-8.9 5.4-3.5 9.3-5.8 10.5-6.2 1.2 0-.8-2.7-2.7-2.7s-7 0-9.3 1.6c-2.3 1.6-3.5 4.3-6.2 0-2.3-4.3-8.6-7-10.5-6.6-1.9.4-9.7-1.9-12.1-.8-2.3 1.2-6.2 1.6-8.6.8-2.3-.8-5.4 0-7.4.4s-6.6 1.2-8.2-1.9c-1.6-3.1-4.3-7-4.3-7s-3.5-1.2-5.4 1.2c-1.9 2.3-5.4 1.9-7.8 3.9-2.3 1.9-8.6 4.7-10.1 5.4-1.6.4-8.6 1.6-8.6 1.6s-10.1 5.4-12.1 3.5c-1.9-1.9-3.1-2.7-1.2-4.7 1.9-1.9.4-2.7 0-4.3-.4-1.6-17.5-8.6-19.1-10.1-1.9-1.6-9.7-6.6-11.3-2.7s4.7 6.6 0 5.8c-4.7-.8-5.4.8-6.6-1.2-.8-1.9-6.2-4.7-7-7.8-1.2-3.1 1.2-5.1-1.2-3.5-2.3 1.6-3.5.4-4.3.4-.4 0-20.6-1.2-22.6-2.7-1.9-1.9-3.1-5.8-6.2-8.6-3.1-2.7-8.6-5.4-12.1-3.9-3.9 1.6-6.2 2.3-5.8 3.5.4 1.2-2.7 3.5-4.3 3.5-1.9 0-7 1.2-8.6 1.2-1.9-.4-7.8-1.6-7.8-3.9s1.2-4.3 0-4.7c-.8-.4-18.7-1.2-21.4-3.1s-4.7-1.6-6.6-1.6c-1.9 0-12.8 0-15.2-2.7-1.9-2.3-5.1-3.9-3.9-5.4.8-1.6-6.6-28.8-7.8-32.7-1.2-3.9-2.7-5.8-5.1-7.4s-11.3-4.3-11.3.8-6.2 8.6-1.2 11.7c5.1 3.5 3.1 3.9 1.9 4.7-1.2 1.2-2.7 3.9-3.1 5.4s-2.3 4.3-2.3 4.3H.2c0 1.6-.4 3.1 0 3.9C1 34 3.3 44.5 3.3 45.3s1.6 2.7 2.3 3.5c.8.8 1.2 4.3 1.6 5.1 0 .8-1.9 4.3-1.9 4.7 0 .8-1.2 2.7-1.2 3.5 0 .8 1.6 1.6 1.2 2.3-.8.8 0 24.9 0 25.7 0 .8 2.7 5.1 3.5 5.8.8.8.4 5.4.8 6.6.4 1.2 1.2 1.9 2.3 2.7 1.2.8 1.6 7.4 1.9 8.6.4 1.2 1.9 1.6 2.3 1.9.4 0 1.2 2.7 1.9 3.5.8.8.4 3.1.8 3.9 0 1.2 0 1.6 1.6 3.1 1.6 1.6 0 5.4.4 5.8.4.8.4 2.7.4 3.5 0 .8-.4 3.1-.4 4.7s.8 1.9.8 1.9v19.1s.4 3.1 1.6 6.2c1.2 3.1-1.2 2.7-1.2 3.5s0 1.2 1.2 2.3c1.6 1.2 1.2 3.5 1.9 4.3s0 4.7 0 5.1-.4.8-1.2 1.6c-.4.4-.4 3.1 0 3.5.4.4 1.6 3.5 1.6 4.3 0 .8-.8 2.3-.8 2.3s-1.2 1.2-1.2 2.3c0 1.6 2.3 2.3 3.5 3.5 1.2 1.2 0 5.1 0 5.8 0 .8 0 1.9.8 2.3.4.4.8 4.3 1.6 5.1.4.8 4.3 5.1 4.7 5.4.4.4 1.2 1.9 1.6 2.7.4.8.4 8.6.4 8.9 0 .8.4.8.8 1.2.4.4.8 5.8.8 7s0 1.6-1.2 2.3c-.8.8-.4 6.2-.4 6.2l.4 1.9-.8 6.2s-1.2 1.9-1.9 3.9c-1.2 1.9-2.7 3.9-4.3 4.3-1.9 0-5.4 5.1-7.4 8.2-1.9 2.7 5.1 9.7 5.4 10.1.4.4 1.9 3.1 2.7 3.9s2.3 1.6 6.2 2.3c3.9.4 7 5.1 7 5.1v130.3l284.7-.9z"/></svg>