<svg id="Layer_1" xmlns="http://www.w3.org/2000/svg" viewBox="0 0 417.5 259.1"><style>.st0{fill:none;stroke:#555}</style><path id="US-IA" class="st0" d="M385.3 80.8s-.5-2.3 0-3.2-.9-3.6-.9-3.6-.9 0-.9-.5-.5-2.3-.5-2.7c-.5-.5-8.2-3.2-8.6-3.2s-7.3-1.4-9.1-1.4c-1.8 0-3.6-.9-4.5-2.7-.9-1.8-2.3-3.2-2.7-4.1-.5-.5-1.4-.9-1.4-1.8s-.5-8.6-1.8-9.1c-.9-.9-2.3-3.6-2.3-4.1 0-.5-2.7-15-2.3-16.8s2.3-3.6 2.7-4.1c.5 0 1.8-.5 2.3-1.8.5-1.4.9-2.7.9-4.1 0-1.4-.5-3.2-1.8-4.1-1.4-1.4-3.6-1.8-4.1-1.8-.5-.5-1.8-5.4-2.3-6.4-.5-.5-.9-1.8-1.4-1.8 0-.5-.5-3.6-.5-3.6H12.8S6.4 1.3 4.2.8s2.7 7.3 3.2 7.7c.5.9.9 5.4.9 7.3S6.4 19.1 6.4 20c0 1.4 5 4.5 6.4 5 1.4.5 0 8.6 0 9.1 0 .9-1.4.5-2.3 1.8-.5 1.4-3.2 11.8-3.2 11.8 0 .5-.9 5.9-1.8 6.8-.9.9-2.7 3.6-3.2 4.1-.5.5-1.4 3.6-2.3 5s5.4 2.7 5.9 3.2 1.8 2.3 2.3 4.1c0 1.8 1.4 2.7 2.3 4.1.5 1.4 0 3.6-.5 4.5l1.4 1.4s3.2 0 3.2.5c.5.5 0 1.4.9 1.4.5.5 1.4 0 1.4.9s.5 10.9.5 11.8c.5.5 1.8 2.3 2.7 3.6.9 1.4 1.4 1.4 1.4 2.3s-.9 2.7-1.8 4.1c-.9 1.4.5 1.8 1.4 4.1.9 2.7 3.6 1.4 4.5 4.5.5 2.7-2.7 4.1.9 7.3 3.6 3.6 5.9 2.3 6.4 4.5.5 2.3-.9 5.9 1.8 9.5 2.7 3.6 3.6 3.2 3.2 4.1 0 .5 0 9.1-1.4 10.4-1.4 1.4-1.8 5.4-.5 7.3.9 2.3 8.6 6.4 6.8 7.3-1.8.9-1.4 1.8-.9 2.7.9.9 4.5-.5 5 1.4.5 1.8-2.3 5.4-1.4 8.2.9 2.7 4.5 4.5 4.1 5.9-.5 1.4-2.3 5.4-2.3 7.3 0 1.8 5.9 4.1 5.9 5.9 0 1.4-3.2 4.1-2.3 7.3.9 3.2 2.3 5.9 1.8 6.4 0 .5-.5 2.7-.5 3.6s2.3 2.7 1.4 5.4-3.2 10-2.3 12.3 5 4.1 5.9 5c.5.5.5 2.7.5 5l257.7-.9s3.2 4.5 4.5 5.4c1.4.9 1.8 2.7 2.3 3.6s2.7 2.3 4.1 3.2c.9.9 3.2 4.1 5 5.9.5.5.9.9.9 1.4h5.4v-10.4c0-.5-1.4-.5-1.4-.5v-5.9c0-.5.5 0 2.7-1.4 2.3-.9 2.7-.9 3.6-2.3s5-1.4 6.4-1.8c1.8-.5 3.2-1.4 4.5-3.2 1.4-1.4 1.4-5 1.8-6.4.5-1.4.9-5.9.9-6.4s-1.4 0 2.7-4.1c4.1-3.6 5-8.2 5.9-10.4.9-2.3-.9-9.1-.9-9.5 0-.5-1.8-1.4-3.2-2.3-1.4-.5-3.2-1.4-5.4-6.4-2.3-5 .9-7.3 2.3-8.6 1.4-.9.9-3.6.9-3.6s.5-1.8 1.4-4.1c1.4-2.3 7.7-.9 10.4-1.8s8.2-.5 10-1.4c1.8-.9 7.7-3.6 8.6-4.5.9-.9 5.4 0 6.4-1.8.5-1.4 4.1-2.3 5.9-2.7 1.8-.9 3.6-4.5 4.1-5.4.5-.9-.9-3.2-.5-4.5s.9-2.3.9-4.1c.5-1.8 8.6-10.4 9.1-10.9s.5-6.4 1.4-7.7c.9-1.4 1.4-4.5 1.4-5.9 0-1.4-.5-2.3-1.8-3.6-1.4-.9.5-3.6-.5-5.4-1.4-1.4-7.3-4.1-8.2-4.5-.9-.5-6.8-5.4-7.7-5.9-.5-.5-.5-4.1-.5-5.4 0-1.8-.9-2.7-1.4-3.6-.5-.5-5-2.3-9.5-7.3-4.4-4.1-2.6-5-2.6-5z"/></svg>