<svg id="Layer_1" xmlns="http://www.w3.org/2000/svg" viewBox="0 0 661.8 454.6"><style>.st0{fill:none;stroke:#555}</style><path id="US-OR" class="st0" d="M81.1 1.3c1.2 0 1.7.6 1.7 1.2-1.7 3.5-6.9 1.2-7.5 4.1-.6 2.9-9.8 3.5-11 1.7-.6-1.7-5.8-4.6-5.8-1.2s9.8 12.2 2.3 8.7S55 3.6 52.7 6.5s-5.2 2.9-3.5 5.8c1.7 2.9 6.9 4.6 5.8 6.9-1.1 1.8-2.8 5.3-4 8.8s-5.8 2.9-3.5 5.8 2.3 4.1 1.7 8.7c-.6 4.1-3.5 4.6-2.3 8.7s2.9 4.6 2.9 6.9c0 1.7 4.1 3.5 2.9 5.8-1.2 2.3-4.1 6.4-3.5 8.1.6 1.2 4.6 5.8 2.3 8.1-1.7 2.3-6.9 1.2-5.2 4.6 2.3 3.5 4.1 5.8 3.5 6.9-.6.6-4.1 5.8-3.5 7.5.6 1.7 1.7 2.9 2.3 3.5.6.6-2.3 5.8-1.7 8.7 0 2.9 3.5 4.1 1.7 8.1s-5.8 6.4-5.2 9.8c.6 3.5 0 15.1-2.3 19.1-2.3 3.5-3.5 5.2-3.5 8.1.6 2.9 2.9 11.6 2.3 13.9-.6 2.3-5.2 27.2-5.8 35.3-.6 8.1 0 22.6 0 22.6s-1.7 4.1-1.2 6.4c.6 2.3 3.5 5.8 2.9 7.5-1.2 1.2-3.5.6-2.9 2.9.6 2.3-2.3 14.5-2.3 17.4 0 2.9 6.9 9.3 3.5 10.4-3.5 1.7-4.6 2.9-5.2 4.6 0 1.7 0 6.9-1.7 7.5-1.7.6-4.1 9.8-4.1 9.8S21.4 308 19 310.3c-2.3 2.3-4.6 1.7-5.2 3.5-.6 1.7-1.2 16.2-1.7 16.8-.6.6-.6 13.3-2.9 16.2s-3.5 11-4.6 11c-1.2.6-5.2 5.8-4.6 7.5s2.3 5.8 2.3 7.5 8.7 10.4 9.8 12.7c1.2 2.3.6 3.5.6 5.2 0 1.7-.6 9.3-1.7 12.2s.6 14.5.6 16.8c0 2.3-1.2 4.1.6 8.7 2.3 4.6 3.5 16.8 8.7 21.4 4.6 4.1 7.5 1.2 8.1 4.6h585.8l.6-190.5s-4.1-1.7-2.3-2.3c1.7-1.2 4.1-5.8 4.1-5.8s2.9-4.1 3.5-6.4c0-2.3-.6-7.5.6-8.1.6-.6 1.7-2.3 1.7-2.9 0-.6-5.8-6.4-4.1-6.4 1.7 0 4.6-1.7 5.2-2.9.6-1.2.6-3.5 1.7-4.1.6-.6 0-2.3-1.2-3.5-1.2-1.2-9.3-8.7-9.3-8.1-.6 0-1.2 1.7-2.3.6-1.2-1.2-1.2-2.9-3.5-2.3-2.3.6-5.8.6-6.4 0-1.2-.6-2.3-2.9-2.3-4.1v-20.3s2.9-1.7 3.5-2.3c.6-.6.6-3.5 1.2-5.2.6-1.7 3.5-4.6 4.6-6.4 1.2-1.7 3.5-12.7 4.6-13.3 1.7-.6 5.2-1.2 6.4-2.3.6-1.2 12.7-17.4 11-20.3-1.7-2.9-4.6-2.9-2.9-4.6 1.2-1.7 4.1-4.1 4.6-5.8.6-1.7 2.9-4.1 5.2-6.4 1.7-2.3 3.5-5.2 3.5-6.9 0-1.7 0-5.8 1.2-7.5 1.2-1.7 1.7-6.9 4.1-11 1.7-3.5 8.7-17.9 9.8-19.1 1.2-.6 4.6-3.5 4.1-6.9-.6-3.5-1.7-6.9-4.1-9.8-1.7-2.9-1.7-8.1-5.8-7.5-4.1 0-7.5-2.9-9.8-4.1-2.3-1.2-10.4-5.2-11.6-8.7-1.2-3.5-2.9-8.7-2.9-8.7l-1.2-1.7c-5.2 0-169 .6-173.7 0-4.6-.6-26.1 5.8-28.4 7.5-1.7 1.7-22.6 4.6-22.6 4.6s-9.3 2.9-13.3 3.5c-4.1.6-9.3 1.2-13.9 1.2s-12.7 6.4-15.6 7.5c-3.5 1.2-11 4.1-11 4.1s-15.6 1.7-19.1-1.7-11.6 2.3-12.7 2.3c-1.7 0-8.7 2.9-10.4 4.1s-10.4 2.3-17.4 2.3c-7.5 0-2.9 1.2-8.7 4.6-5.8 3.5-2.9-3.5-4.6-4.6-1.7-1.7-5.8-2.9-12.2-4.1-6.4-.6-11.6-2.3-16.2-3.5s-9.8 2.9-13.3 3.5c-3.5.6-3.5-1.2-5.8-4.1-1.7-2.9-11.6 7.5-11.6 7.5s-8.1 5.8-9.8 6.4c-2.3 0-11 4.6-12.7 5.2-1.7.6-12.2 0-18.5-2.3-6.4-1.7-10.4-1.7-13.9-2.3-3.5-.6-6.9-1.7-8.1-2.9S147 53.7 146.4 52s0-5.2 0-5.2l-.6-6.4s-1.2-2.9-1.2-5.8-1.2-1.7-1.7-2.9c-.6-1.7-2.9-2.3-2.9-4.6s-1.7-4.1-1.7-6.4c-.6-1.7-1.7-2.9-2.9-3.5-1.2-1.2-4.1-2.3-4.6-4.1 0-1.2-6.4-.6-8.1-1.7-2.3-1.2-2.3-2.3-2.3-3.5-.6-1.2-9.8 2.3-10.4 2.3-.6.6-4.6 1.2-5.8-.6-1.2-1.2-1.7-1.2-4.1-3.5C97.2 3.8 96 3.8 93.7.9c-3.9-1.9-8.5-.7-12.6.4z"/></svg>