<svg id="Layer_1" xmlns="http://www.w3.org/2000/svg" viewBox="0 0 417.5 378.3"><style>.st0{fill:none;stroke:#555}</style><path id="US-MO" class="st0" d="M0 0v5.8C.4 7.1 4 8 3.6 8.9c0 .9 0 2.2.4 2.7 0 .4 3.6 8.9 3.1 9.8s-4.5 1.8-1.3 3.1 4.9 0 5.8.9c.4.9 3.6 3.6 4 3.6.9 0 1.8-.9 1.8.4s0 4.9.4 5.8c0 .9 2.2 1.8 3.1 4.5.9 1.8.4 6.7 0 8.5 3.1-.9 3.6-1.3 4-.4.4.9.9 2.2 1.8 3.6.9 1.3 3.1.4 3.6 1.8.4 1.3 2.2 3.1 4 4.5 1.8 1.8 4 2.7 4.9 3.1.9.9 1.3.9 1.3.9l4-.9s3.1-2.2 4-1.8c.9.9 1.8 2.2 2.7 3.1.9 1.3 2.2 2.7 2.2 2.7 0 .4-1.8 2.2-.9 3.1.9.4 3.6 4 2.2 4.5-1.3.4-2.2 0-2.7 0 0-.4-3.1-.4-3.1-.4 0 .4-.4 2.2-1.8 2.7-.9.9-3.6 2.7-4 4-.4 1.3-.9 5.8-1.3 6.7-.4.4-.4.9-.4 1.8 0 .4.4 3.6 2.2 5.3 1.8 1.8 9.4 8 9.4 9.4 0 .9.4 7.1.4 7.1s4-1.3 4 .4-.4 4 0 4.9c.4.9 2.7 2.7 3.6 2.7 1.3 0 4.5 2.2 4.9.9.4-1.3.9-2.2 1.3-1.3.4.9 3.6 1.8 3.1 2.7 0 .9.4.9.4.9v216.6h279.4s0 1.3 1.8 2.7c1.8 1.3 0 2.7 2.7 5.8 2.7 2.7 1.3 11.6 1.3 11.6s-6.7 6.2-7.6 6.2c-.4 0-2.7 2.7-3.6 4.5s-3.6 2.7-4.9 4.5c-1.3 1.3-2.2 6.7-2.2 6.7h39.7c.4 0 1.3-.4 1.3-.9s0-1.8.4-1.8 2.2-1.8 2.2-2.2c0-.4 0-3.1.9-3.6.9-.4 3.6-1.8 3.1-3.1-.4-1.3-4-7.1-3.1-8 .9-.4 8-1.3 6.2-3.1-1.8-1.8-4.5-1.8-3.6-3.1.4-1.3 6.7-4.9 6.7-6.7s-3.6-13.8-1.3-12c2.2 1.8 4 4 5.3 3.1 1.3-1.3 4.9-12.5 7.1-10.2 2.2 2.7 5.8 5.3 6.7 4.9.9-.4 3.6-5.8 2.2-8-1.3-2.2-2.7-4.9-1.8-5.8 1.3-.9 6.2-1.3 5.8-3.1-.4-1.8-3.6-.9-2.7-3.1.4-2.2.4-1.8.9-2.7 0-.9 2.2-2.7 2.7-3.1.4-.4 1.8-5.8 0-7.6-1.8-1.8-6.7-5.3-7.1-5.8-.4-.4-2.2-3.1-3.1-1.8-.9 1.3 2.2 6.2-.4 5.3s-3.1-2.2-5.3-4.5c-2.2-2.2-4-5.3-4-6.7s-1.8-4.5-1.8-4.5-5.3-4.9-4.5-7.6 4.9-4.5 4.9-7.6-4.5-9.4-4.5-12.9.9-10.7-1.3-12.5c-2.7-1.8-8-3.6-8.5-5.3-.4-1.8-.9-4.9-2.7-6.7-2.2-1.8-7.6-4.9-8.9-4.5s-6.2 1.8-6.7-.4c0-2.2 4.5-.9 2.7-3.1-1.8-2.2-8.9-1.8-9.4-2.7-.4-.9-.9-5.3-2.7-6.7-1.8-1.3-7.1-4.9-7.1-4.9s-8.5-8.9-8.9-14.3c-.4-5.8 1.8-9.8 3.6-12 1.8-2.2 1.8-3.6 1.8-4.9 0-1.3 2.2-3.6 3.1-4.5.9-1.3 4-12.5 4-15.6 0-3.1 6.7-4 2.7-9.8-3.6-5.8-13.8-6.2-16.9-8-2.7-2.2-7.6 0-8 2.2-.4 1.8 1.3 8.5-2.7 5.3-3.6-3.1-6.2-2.7-7.1-7.1-.9-4-.9-11.1-1.8-12.9s-1.3-13.4-4.5-16.5c-3.1-3.1-8.9-5.3-13.8-10.7-4.9-5.3-12.9-15.2-16.5-17.8s-6.7 0-7.1-3.1c-.4-3.1 0-6.7-1.8-8.9-1.8-2.7-2.7-5.8-2.2-7.1 0-1.3-5.8-19.2-4.5-27.2 1.3-8 2.2-9.4 2.2-10.2s1.3-2.2-.4-4c-1.8-1.8-4-4.9-4.9-5.8-.9-.9-3.6-2.2-4-3.1-.4-.9-1.3-2.7-2.2-3.6-1.3-.9-4.5-5.3-4.5-5.3L0 0z"/></svg>