<svg id="Layer_1" xmlns="http://www.w3.org/2000/svg" viewBox="0 0 417.5 388.1"><style>.st0{fill:none;stroke:#555}</style><path id="US-AR" class="st0" d="M10.8 316.5c.6 0 3.6.6 3.6 1.8s-1.2 2.4 1.8 4.8c2.4 2.4 3 1.2 4.2 2.4 1.8 1.8 7.8-2.4 9-1.8 1.2 1.2 3.6 3.6 4.2 2.4.6-1.8 4.2-3 4.8-1.8.6 1.2 3.6 1.8 5.4 1.8s6 2.4 6 2.4v59.6h240.7l1.8-1.2 1.2-1.8 1.8-1.8v-3c0-.6-7.2-4.8-4.2-6.6 3-1.8 7.2-1.2 7.8-2.4.6-1.2 2.4-5.4 1.2-6-.6-1.2-1.2-1.8-.6-2.4 0-.6 2.4-4.2 1.8-4.8-.6-.6-5.4-2.4-6-3 0-.6 0-9.6-.6-10.2s-6-.6-5.4-1.8c0-1.2 0-4.8 1.2-5.4 1.2-.6 6.6.6 3-4.2-3.6-4.8-7.8-8.4-6-8.4s4.8-4.2 4.8-4.8-2.4-6-.6-5.4c1.8.6 1.8-2.4 4.2-.6 2.4 1.8 2.4 2.4 3.6 1.8 1.2-.6 6-7.8 3.6-8.4s-9 0-9-1.2 1.8-4.8 3.6-3.6c1.2.6 8.4 0 7.8-1.2l-2.4-4.8s3-7.8 3-10.8c0-3.6-3-6-1.2-6.6s6.6-1.8 7.8-3c1.2-1.2 6.6-.6 6-4.2 0-3.6-8.4-10.2-6.6-9.6 1.8.6 9.6-1.2 9.6-1.2s1.2-1.8.6-3-1.2-4.8-.6-7.2c.6-1.8 3-4.2 3.6-4.8.6-.6 16.8-12 17.4-21.1 0-9 4.2-4.8 3-8.4-.6-3.6-1.8-4.8-1.8-6.6 0-1.2 4.8 0 3.6-4.2-1.2-3.6-1.2-5.4-.6-6.6.6-1.2 6-10.8 6-10.8s.6-6.6 2.4-5.4c1.2 1.2 6.6.6 8.4 1.2 1.8 0 4.2 0 3.6-.6 0-.6 1.2-3.6 1.2-4.2 0-.6 2.4-6.6.6-9.6-2.4-2.4-3.6-3-3-4.2 1.2-1.2 9.6-3 9.6-3.6s-.6-4.8 3-7.2c3.6-2.4 6.6-3 6.6-4.8 0-1.2-1.2-10.2-2.4-11.4-1.2-1.2-6.6-1.2-3.6-3.6 3-2.4 5.4-3.6 5.4-4.2s1.8-10.8-1.2-9.6c-3 1.8-8.4 7.8-7.2 3s6-11.4 7.2-10.8c1.2 1.2 5.4 3.6 6 1.8 0-2.4 0-12 1.2-10.8 1.8 1.2 4.2 1.2 4.8 0 .6-1.2 6-6 4.8-9.6-1.2-3-8.4-5.4-6-8.4 1.8-2.4 12.6-4.2 12.6-4.2l7.8-7.2s-2.4-3.6-3.6-4.8c-.6-1.2-.6-1.8 1.2-3.6 1.8-1.2 4.8-.6 4.8-3 0-1.8-1.2-4.2-1.8-4.8l-1.8-1.8H360s1.2-7.2 3-9c1.8-1.8 5.4-3.6 6.6-6 1.2-2.4 4.2-6 4.8-6s10.2-8.4 10.2-8.4 1.8-11.4-1.8-15.6c-3.6-3.6-1.2-6-3.6-7.8-2.4-1.8-2.4-3.6-2.4-3.6H0v11.4s5.4 36.7 9 63.8c4.8 24.9 8.4 174.1 1.8 240.3z"/></svg>