<svg id="Layer_1" xmlns="http://www.w3.org/2000/svg" viewBox="0 0 417.5 436.9"><style>.st0{fill:none;stroke:#555}</style><path id="US-LA" class="st0" d="M0 3.6v111.6s4.8 1.8 5.3 3.6c.6 1.8 3 3.6 4.2 5.3 1.8 1.8 4.8 4.8 4.8 5.9 0 1.2 2.4 2.4 2.4 3.6s.6 4.8 1.2 6.5-1.2 15.4 1.8 20.8c3.6 5.3 5.3 8.9 7.1 11.9 1.8 3 3.6 3.6 3.6 5.9.6 2.4 2.4 4.8 1.8 6.5-.6 2.4-1.2 2.4 0 4.2.6 1.8 4.2 3 4.2 3.6 0 .6 1.2 3 1.2 3s3.6 6.5 3.6 10.1c0 3.6-1.8 4.8-1.2 5.9.6 1.8 6.5 4.8 4.8 5.9-1.8 1.2-4.8 2.4-4.8 3 0 .6 4.2 7.7 2.4 8.3-1.8.6-3.6 3-3.6 3.6 0 .6 0 12.5-2.4 17.2-2.4 4.8 0 7.7-3 8.9-3 1.2-6.5 7.7-6.5 8.9 0 1.2 0 8.3.6 9.5 1.2 1.2 2.4 3 1.8 4.2-.6 1.2-1.8 3.6-2.4 4.2-1.2.6-2.4 3-2.4 5.3s1.8 8.9 1.8 10.7 4.2 11.9 3 13.1c-1.2 1.8-2.4 3.6-3 5.3 0 1.8-3 6.5-2.4 8.3 0 1.8.6 3 .6 3l-.6 1.2h.6c-.6 2.4 0 10.1-3 13.1s-8.3-2.4-6.5 4.8c1.2 7.1-1.8 13.1 4.8 11.3 6.5-1.8 13.7-6.5 19-4.8 4.8 1.2 20.8-.6 19.6-2.4-1.2-1.8-13.7-7.1-7.1-9.5 6.5-2.4 8.3-4.2 8.3-6.5 0-2.4-1.2-14.3.6-12.5 1.8 1.8 7.1 9.5 7.1 9.5s3.6 0 1.2 5.9-4.2 8.3-5.9 8.9c-1.8.6-5.9-.6-3 3 3 3.6 4.2 1.8 6.5 3 2.4 1.2 5.3-1.8 11.3 1.8 5.9 3.6 27.3 19 35 20.2 7.7 1.8 13.7 1.8 18.4 2.4 4.8.6 19.6 0 24.3-1.8 4.2-1.8 7.7-6.5 10.1-3.6 2.4 3 9.5 9.5 14.3 11.3 4.8 1.8 11.3 1.8 11.9 0 1.2-2.4 3-8.3-2.4-10.7-5.3-1.8-14.8-2.4-16-1.2-1.2 1.2-1.2 3-4.8.6-3.6-1.8-5.3-1.8-6.5-3-1.2-1.2-3-4.2-1.2-5.3 1.8-1.8-8.9-2.4-5.3-5.3 3.6-3 8.3-3.6 10.7-4.8 2.4-1.2 8.3-4.8 10.1-4.8 1.8 0 16.6-4.8 10.1 1.8-7.1 5.9-10.7 6.5-3 7.7 7.1 1.2 22-1.8 21.4 1.2-.6 3.6-1.8 10.1.6 11.9 2.4 1.8 4.8 4.8 7.7 7.7 2.4 3 7.7 0 10.7 2.4 3 2.4 9.5 6.5 10.1 1.2.6-5.3 3.6-8.9 3.6-6.5.6 3 .6 5.9-1.2 7.1-1.2 1.8-2.4 3.6-2.4 5.3 0 1.2 4.8 6.5 5.9 8.3.6 1.2 7.7 4.8 4.2 4.8s-7.1-4.2-10.1-.6-3.6 5.3-2.4 7.1c1.2 1.8 3 8.9 7.7 6.5 4.8-2.4 5.9-4.8 5.3-8.3-.6-3 .6-4.2 1.2-3.6.6 1.2 1.8 3 1.2 5.9-.6 3.6-1.8 7.1 0 8.3 1.8.6 10.7-5.3 11.3-3 .6 2.4 4.8 3.6 5.9 4.8 1.2 1.8 5.9.6 7.1 1.2 1.8.6 4.2 5.3 7.7 3 3.6-2.4 4.8-2.4 5.9-4.2 1.2-1.8 1.2-7.1 2.4-7.7 1.2-.6 3-8.3 4.8-7.1 1.8.6 8.9 2.4 11.3.6 2.4-1.8 5.3-.6 5.3-.6s8.3 3.6 8.3 6.5c.6 3 1.2 10.7 2.4 12.5 1.2 1.2 0 3.6 4.2 2.4 4.2-1.2 11.3-4.2 10.7-8.9 0-4.8-6.5-5.3-2.4-9.5 4.2-3.6 5.3-3 5.3-6.5 0-3-.6-7.1-1.2-10.7-.6-3-6.5-5.9-7.7-8.9-1.2-3 1.8-7.1 4.8-3 3 4.2 3.6 5.9 5.9 5.9 3 0 4.2 2.4 5.9 3.6 1.8 1.2 2.4-2.4 4.8-1.2 3 .6 5.9.6 7.1 4.8 1.8 4.2 1.8 5.9.6 7.7-1.2 1.8-2.4 2.4 0 4.2 2.4 1.8 7.7 2.4 11.3 1.2 4.2-1.2 1.8 1.2 2.4 3.6.6 2.4 2.4 2.4 3.6 2.4 1.2 0 8.9-1.2 9.5 1.2.6 1.8 0 3.6 1.8 5.9s3 1.8 3.6 5.3c.6 3.6 1.8 5.9 3 5.9 1.2.6 3.6-10.1 5.3-7.7 1.8 2.4 4.2 6.5 5.9 7.1 1.2.6 1.8.6 2.4 3 .6 1.8 2.4 4.2 4.2 1.8 1.8-2.4 2.4-2.4 3.6-4.2 1.8-1.8 4.8-2.4 4.2-7.1-1.2-4.8 0-7.7-2.4-8.9-2.4-1.2-4.8-1.2-3-2.4 1.8-1.2 3-2.4 1.2-3.6-1.8-1.8-2.4-1.8-4.2-3.6-1.8-1.8-4.8-4.2-4.8-2.4s.6 5.3-1.2 3c-1.8-3-1.8-5.3-4.2-5.3-2.4 0-4.8 0-7.1-1.2s-1.8-2.4-5.3-3c-3.6-.6-8.9-1.8-8.9-3s.6-4.8-.6-5.9c-1.2-.6 3-5.3-1.2-7.7-4.2-2.4-7.1 3-8.3 1.8-1.2-1.2-4.2-3.6-4.2-6.5 0-3-5.9-9.5-1.8-7.1s3.6 5.3 4.8 1.2c1.2-3.6-4.8-6.5-1.8-7.1s3.6.6 5.9.6c3 0 5.3-3 7.1-4.8s2.4-5.9 3.6-7.7c1.8-1.8 3.6-4.2 5.3-2.4 1.8 2.4 5.3 5.3 4.2 1.2-1.2-4.2-5.9-8.9-7.1-11.3-1.8-2.4-4.2-11.9-6.5-8.3-2.4 3.6-2.4 4.8-4.2 8.9s-5.9 6.5-8.3 3c-2.4-3 .6-6.5-4.2-6.5s-8.9-1.2-8.3-3.6c0-3 4.2-3 7.1-3.6 3-1.2 1.8-13.1 1.8-13.1s-8.3 2.4-10.1 3.6.6-6.5-3.6-3c-4.2 3.6-4.8 4.8-6.5 6.5-1.8 1.8-.6 5.3-11.9 5.3s-22-3-24.3-6.5c-2.4-3.6-3.6-7.1-3.6-9.5s6.5-7.1 2.4-6.5c-4.2.6-9.5 5.3-9.5 5.3s-7.1-1.2-5.9-6.5c1.2-4.8 3.6-9.5 7.1-10.1 3.6-.6 7.7-2.4 10.1 0s2.4 7.1 2.4 7.1-1.8 7.1 1.2 3.6c3-3.6 3.6-5.9 3.6-7.1 0-1.2 3-11.3 5.9-9.5 3 2.4 4.2-3.6 7.7-.6 3.6 3 6.5 2.4 10.1 5.3 3.6 3.6 8.9 12.5 14.8 11.9 5.9 0 8.3 6.5 11.3 7.1 3 .6 4.2.6 6.5-3 1.2-2.4 2.4-.6 3.6.6 0-.6.6-1.8.6-1.8 0-.6-1.8-3.6-2.4-5.3s-1.2-8.9-1.2-10.1c0-1.2-1.8-1.2-2.4-3.6-.6-2.4-.6-4.8-1.2-6.5-.6-1.8 0-1.8 0-1.8s-8.9-10.1-10.1-11.9c-1.2-1.8-2.4-10.7-3-11.9-.6-1.2-1.2-4.2 0-4.8 1.2-.6 1.8-4.2 1.8-5.9 0-2.4 0-1.8 3-8.3 3-7.1 4.2-17.2 4.2-17.2H204.3v-1.2s0-1.8 1.8-4.8-2.4-1.8-3-3c-.6-1.2 0-12.5-.6-14.3 0-1.8-1.2-4.2-.6-5.9 0-1.8 6.5-1.8 6.5-1.8s-1.8-9.5-1.8-12.5c0-2.4 5.9-4.2 5.9-4.2s1.2-7.1-.6-9.5c-1.8-2.4 2.4-1.8 4.8-3.6s.6-1.8-3-7.1 7.7-11.9 8.3-13.7c1.2-1.8.6-6.5 1.2-9.5 0-2.4 10.1-7.1 11.9-9.5 1.8-1.8 3.6-4.8 4.2-6.5 0-1.8 7.1-5.3 8.3-5.9.6-1.2 0-1.8-2.4-3s-.6-4.2 1.2-4.8c1.8-.6 4.2-2.4 5.9-4.8 1.8-2.4-2.4-1.2-5.9-1.8-3.6 0-5.9-1.8-6.5-3-.6-1.2 3-3.6 4.2-4.8 1.2-1.2 9.5-3 11.3-3s.6-5.3.6-7.1c0-1.2 7.1 0 7.7-1.8.6-1.8-8.3-3-8.3-4.8 0-1.2-.6-5.9-1.8-6.5-1.2-.6-5.9-3-6.5-5.3s3-2.4 4.2-3c1.2-.6-2.4-4.8-1.8-5.3 0-.6 3.6-3.6 4.2-5.3.6-1.8-8.9 1.2-10.7.6-1.8-.6 0-4.8.6-6.5.6-1.8 5.3-6.5 6.5-7.1.6-.6-8.3-5.9-9.5-7.7-1.2-1.8 2.4-3.6 3.6-5.9 1.2-1.8 3.6-2.4 4.8-3 1.2-1.2.6-5.9.6-8.9 0-2.4-1.8-2.4-3.6-3-1.8-.6-1.8 6.5-1.8 7.7 0 1.2-4.8 0-6.5-1.8s1.8-7.7 1.8-7.7L0 3.6z"/></svg>