<svg id="Layer_1" xmlns="http://www.w3.org/2000/svg" viewBox="0 0 339.7 612"><style>.st0{fill:none;stroke:#555}</style><path id="US-MS" class="st0" d="M43.3 251.7c-.7.7-3.4 6.9-2.1 8.9 2.1 2.1 6.9 3.4 7.6 2.1 0-1.4 0-9.6 2.1-8.9s4.8.7 4.1 3.4c0 2.8.7 8.9-.7 10.3-1.4 1.4-4.1 1.4-5.5 3.4-1.4 2.1-5.5 4.8-4.1 6.9 1.4 2.1 11.7 8.3 11 8.9-.7.7-6.9 6.2-7.6 8.3-.7 2.1-2.8 6.9-.7 7.6s13.1-2.1 12.4-.7c-.7 2.1-4.8 5.5-4.8 6.2s3.4 6.2 2.1 6.2-5.5 0-4.8 3.4c.7 2.8 6.2 5.5 7.6 6.2s2.1 6.2 2.1 7.6c0 2.1 11 3.4 9.6 5.5-.7 2.1-8.9.7-8.9 2.1 0 1.4 1.4 7.6-.7 8.3-2.1 0-11.7 2.1-13.1 3.4-1.4 1.4-5.5 4.1-4.8 5.5.7 1.4 3.4 3.4 7.6 3.4s8.9-.7 6.9 2.1c-2.1 2.1-4.8 4.1-6.9 5.5-2.1.7-4.1 4.1-1.4 5.5 2.8 1.4 4.1 2.1 2.8 3.4-.7 1.4-8.9 4.8-9.6 6.9 0 2.1-2.1 5.5-4.8 7.6-2.1 2.1-13.8 7.6-13.8 11 0 2.8 0 8.9-1.4 11-1.4 2.1-14.4 9.6-9.6 15.8 4.1 6.2 6.2 6.2 3.4 8.3-2.8 2.1-7.6 1.4-5.5 4.1 2.1 2.8.7 11 .7 11s-6.9 2.1-6.9 4.8 2 14.3 2 14.3-7.6 0-7.6 2.1.7 4.8.7 6.9c0 2.1 0 15.1.7 16.5.7 1.4 5.5 0 3.4 3.4s-2.1 5.5-2.1 5.5v1.4H185s-2.1 11.7-4.8 19.9c-3.4 8.3-2.8 7.6-3.4 9.6 0 2.1-.7 6.2-2.1 6.9-1.4.7-.7 4.1 0 5.5.7 1.4 2.1 11.7 3.4 13.8 1.4 2.1 11.7 13.8 11.7 13.8s-.7-.7 0 2.1c.7 2.1.7 4.8 1.4 7.6s2.8 2.8 2.8 4.1.7 9.6 1.4 11.7c.7 2.1 2.8 4.8 2.8 6.2 0 .7 0 1.4-.7 2.1 1.4 1.4 2.8 2.1 5.5 2.1 6.9 0 6.9-.7 9.6-4.1 2.8-3.4 13.1-16.5 13.1-16.5s1.4-4.1 6.2-1.4c4.8 2.8 7.6 3.4 8.9 1.4.7-1.4 10.3-5.5 11.7-6.2 2.1 0 8.3-7.6 14.4-2.8 5.5 4.1 9.6 4.1 13.8 4.1s11-2.1 12.4 1.4c1.4 3.4 13.1 5.5 13.1 3.4 0-1.4 2.8-4.1 4.1-5.5L302 401l37.8-376.8-5.5-19.3-3.5-4.9H127.9l2.1 2.1c2.8 2.8-.7 10.3-.7 11s-2.1 3.4-1.4 4.8c0 .7-2.1.7-4.1.7-2.1 0-7.6 0-9.6-1.4-1.4-1.4-2.8 6.2-2.8 6.2s-6.9 11-7.6 12.4c-.7 1.4-.7 2.8.7 7.6 1.4 4.1-4.1 3.4-4.1 4.8s1.4 2.8 2.1 7.6c.7 4.1-3.4-.7-3.4 9.6s-18.6 23.3-20 24c-.7.7-3.4 3.4-4.1 5.5-.7 2.1 0 6.9.7 8.3s-.7 3.4-.7 3.4-8.3 2.1-11 1.4c-2.1-.7 6.9 6.9 7.6 11 0 4.1-5.5 4.1-6.9 4.8-1.4 1.4-6.9 2.8-8.9 3.4s1.4 3.4 1.4 7.6-3.4 12.4-3.4 12.4 2.1 4.1 2.8 5.5c.7 1.4-7.6 2.1-8.9 1.4-1.4-.7-3.4 2.8-4.1 4.1 0 1.4 7.6.7 10.3 1.4 2.8.7-2.8 8.9-4.1 9.6s-1.4 0-4.1-2.1c-2.8-2.1-2.8 1.4-4.8.7-2.1-.7.7 5.5.7 6.2s-2.8 5.5-5.5 5.5c-2.1 0 2.8 4.8 6.9 9.6 4.1 5.5-2.1 4.1-3.4 4.8s-.7 4.8-1.4 6.2c0 1.4 5.5 2.1 6.2 2.1.7.7.7 11 .7 11.7s6.2 3.4 6.9 3.4c.7.7-1.4 4.8-2.1 5.5 0 .7 0 1.4.7 2.8s-.7 5.5-1.4 6.9-5.5.7-8.9 2.8c-3.4 2.1 4.8 6.9 4.8 7.6v3.4c0 .7-2.1 2.1-2.1 2.1l-1.4 2.1 1.7 1.2z"/></svg>