<svg id="Layer_1" xmlns="http://www.w3.org/2000/svg" viewBox="0 0 339.7 584.4"><style>.st0{fill:none;stroke:#555}</style><path id="US-AL" class="st0" d="M8 568.7l1.3-1.3s12-2 16 2 4 6.7 7.3 4.7 4.7-22 5.3-24c0-1.3 6-20 8.7-18s8.7 4.7 9.3 6c.7 1.3.7 4 0 7.3s-2.7 5.3-2 8c.7 2.7 3.3.7 2.7 4.7 0 4-.7 5.3 1.3 7.3 2.7 2 8 .7 8 3.3s-.7 6.7 2 8.7c2 1.3 4 2 4 3.3-.7 1.3-4 4.7 2 3.3 6-.7 9.3-2.7 11.3-5.3 2-2.7-.7-8.7 1.3-6.7 2 2 2.7 2.7 4 1.3l2.7-2.7s5.3-1.3 8.7-1.3c4-6 4.7-8 4.7-8s-1.3-2-2.7-3.3c-1.3-1.3-3.3-1.3-2.7-2.7 0-1.3-1.3-11.3 0-12 .7-.7 2-3.3 2-3.3 0-.7 1.3-6.7-1.3-9.3-2-2.7-9.3-5.3-9.3-5.3s-1.3-1.3-1.3-2.7-.7-5.3-3.3-7.3c-2.7-2.7-5.3-4-5.3-4.7s.7-8 1.3-8 1.3-11.3 1.3-11.3h243l.7-1.3s-.7-5.3-.7-6c0-.7 0-4-.7-4-.7-.7-2-1.3-2.7-2.7-.7-1.3-6.7-6.7-5.3-8.7.7-2 2.7-2.7 1.3-5.3-.7-2.7-2-2-1.3-4 1.3-2 .7-10.7 2-14.7s4.7-18 2-25.4c-2.7-7.3-3.3-9.3-4-10-.7-.7-4.7-22-4-22.7 1.3-1.3 2.7-2 2.7-2.7s0-6.7.7-7.3c.7-.7 4.7-5.3 5.3-6 0-.7 0-16 1.3-18.7.7-2.7 14-12.7 13.4-13.4 0-.7-7.3-8.7-8-10.7 0-2 4-4 2-8-1.3-4-2.7-11.3-3.3-13.4-.7-2-8-12.7-9.3-16-1.3-4-2-12-2.7-12.7-.7-.7-4-5.3-4-9.3C313.7 265 271 0 271 0H28l3.3 4.7 5.3 18.7L0 389.2l8 179.5z"/></svg>