<svg id="Layer_1" xmlns="http://www.w3.org/2000/svg" viewBox="0 0 339.7 379.7"><style>.st0{fill:none;stroke:#555}</style><path id="US-FL" class="st0" d="M7 38.1c1 0 1.3 0 1.3.3-.3 1-2.5 1.6-1.9 2.2.3.6 2.5 1.3 4.1.6 1.6-.6 2.2-2.2 3.5-3.5 1-1.3 3.2-2.5 4.1-3.8.6-1 2.2-2.5 1.3-3.8-1-1.3-1.6-1.3-1-2.9 1-1.6 2.5-.3 3.2.6.6 1 1.3 2.2 1.6 1.6.6-.6 2.5-6 3.2-3.8.6 1.9 1.6 2.5 0 4.4-1.6 1.6-3.5 2.9 0 3.8 3.5 1 4.4-1 5.1 1.3.6 1.9 1 1.9 5.1 1 3.8-1 9.5-2.5 10.5-1.9 1 .6 1.9-6.3 5.1-3.5 3.5 2.5 2.5 1.6 3.5 1 1-.6 7.3-1.9 8.6.6 1.6 2.5 5.4 5.1 1.9 4.8-3.5-.3-6.7-.3-7 .3-.3.3 0 2.2 2.9 2.5 2.9.6 4.8 1.6 5.4 1.9.6.3 7.9 4.8 8.9 4.8 1.3 0 3.8-5.1 5.1-4.8 1.3.3 1.9 2.2 4.8 1.6 2.9-.6 6.3-2.5 4.4-.6-1.9 1.9-7.3 1.9-6.7 3.5.6 1.6-1.6 5.1 1.3 6.3 2.9 1.3 6 .6 6.7 1 .6.3 3.2 5.1 3.2 5.1s-2.5-1.9-1.9.6c.6 2.5 2.2 3.8 3.2 4.4 1 .6 4.8 3.5 4.8 5.4s0 8.3 2.2 8.9c2.5.6 6-.6 7.3-1 1.3 0 6.3-2.2 7.9-2.5 1.6-.3 3.2-3.2 3.5-1.9.6 1.3 1.6 1.6 2.9 1 1-.6 9.8-8.3 11.7-8.6 1.6-.3 10.2 1.6 9.2-.6-1-1.9-7.9-1.9-5.4-3.5s4.8-5.7 6.7-6c1.9-.3 3.2.3 3.8.6 1 0 .3-.3 1 0 .6.3 1.9-.6 3.2-.6 1 0 2.9-1.3 4.1-1 1.3.3 1.9-.3 3.2 2.2 1.3 2.5.6 3.5 2.5 3.8 1.9.6 4.1.6 4.8 1.3.6.6 2.2 0 3.2 1 1 1.3 2.2 1.6 2.2 1.6s4.1 3.2 4.8 6.3c.6 3.5.3 4.4 1.9 5.7 1.6 1.3 4.8 1.6 5.1 2.5.3 1 1.3 4.8 1.9 7.3.6 2.5.3 3.2 4.1 6 3.8 2.9 8.3 12.1 9.8 14 1.6 1.9 5.4 2.9 8.9 3.5 3.5.6 2.5-1.6 4.1 1.3s1.9 5.1 1.9 5.1-1 4.8.3 6c1 1.3 2.9 1.6 2.9 3.2s-.3 3.8 0 4.8c0 1 .6 1.9.6 2.5.3 1 .6 1.6.6 3.2s-2.5 23.5-3.8 25.4c-1 1.9-4.1 3.8-3.5 6 .3 2.2 3.2 3.5 2.2 5.1-1 1.3-1.3 3.2-1.9 3.8-.6 1-1 6.3-1.6 7.3s-1.6 1.9-.3 3.5 3.8 2.9 4.8 4.8c1 2.2 0 3.8 2.2 2.9 1.9-1.3 2.2-2.2 3.2-3.5 1-1.3 1.3-2.9 0-4.4-1-1.9-4.1-3.5-4.1-4.1-.3-1-.6-7 1-5.7 1.6 1.3 3.5.3 4.1 1.6.6 1.6 2.5 1.9 2.5 3.5 0 1.3-.6 4.1 0 5.1s1.3-.6 1.6-1.9c.6-1.3 0-3.8 1.3-4.1 1.3 0 1.6-.3 2.2 2.2 1 2.5 2.9 4.8 1.6 6-1.3 1.3-2.9 3.2-3.2 4.1-.6 1-5.1 6.7-5.1 8.3 0 1.6 1.3 3.2-.3 4.8s-4.1.6-2.9 3.2c1.3 2.5 2.2 4.4 3.2 6.3 1 1.9.6 2.2 2.2 5.7s8.6 21.6 10.5 23.2c1.6 1.6 3.5 2.9 4.4 2.2 1-.3 1.9-3.8 1.6-4.8-.6-1-8.9-9.2-5.7-7.9 2.9 1.6 3.5 1.9 4.4 2.9 1 1 2.5 1 4.4.3 1.9-.6 3.5-3.2 3.5-.6 0 2.2-4.1 3.2-4.1 4.4s1.9 3.8 1.9 3.8.3 3.5.3 5.4c0 1.9 0 7 .3 8.6 0 1.6-.3 4.4 1.6 5.1 1.9.6 2.9-.3 3.5-1.3.6-.6 3.5-8.9 4.1-7.9.6 1 .6 1.3.3 1.6-.6.6-1 1-1 2.5s-2.9 4.4-1.9 5.7c1 1.6 2.5 1.6 2.9 1.9.3.3 1 0 1.3 1 0 .6-.3 6 0 8.3.3 2.2 1.9 12.7 4.1 16.5 2.2 3.5 8.9 5.7 11.7 8.9 2.9 2.9 16.2 8.6 14.3 10.2-1.9 1.6-2.9.3-2.9.3s-3.2-2.9-2.9-1c0 1.6 1.9 3.8 2.2 4.8s2.2 2.5 2.5 2.9c.3.3.3.6.6 1.9.3 1.3-1.6 1.6-.6 2.5 1 1 1.6 3.2 2.2 4.1.6 1 0 1.3.6 2.5.6 1.3 2.5 4.1 3.8 5.4 1.3 1.3 5.7 1.3 5.4 2.9-.3 1.6-.3 3.2-1.6 3.5-1.3.3-6.7-8.3-7.6-7-1 1.3-2.9 2.5-1.9 4.4.6 1.9 2.2 6 3.2 6 .6.3 3.2-.3 4.1-1 1-.6 3.8-2.9 4.8-2.5 1 .6 1.9-1.3 2.5 0 .6 1.3 2.2 2.2 3.2 2.2s2.5.6 3.5-.6c.6-1.3 1-2.5 1.9-2.2 1.3.3 7-1.9 7.3-1.6.3.3 2.2-2.5 2.5-1.3.6 1.6.3 3.8-.3 5.4-.6 1.6-2.2 2.5-2.5 4.4 0 1.9-1.6 3.8-3.2 4.8-1.3 1.3-2.9 2.2-2.9 3.2s-2.2 2.9-2.9 3.5c-.6.3-2.9 0-2.9 1.3s-.6 3.2-1.3 2.5c-.6-.3-4.1-.3-4.1.6-.3 1-1.6 2.5-1.9 2.2-.3-.3-3.5-1.3-3.5-.3 0 1.3-3.2 2.2-3.2 2.2s-5.1 1.6-3.2 1.9 3.2 2.5 4.4 1.6c1-1 2.2-4.1 2.9-3.8 1 .3 2.2-1.3 2.9-1 .3.3 5.7-2.2 6-2.9s.3-1 .6-.6c.3 0 .6-.3.6-.6s2.9-1.3 2.9-1.9c0-.6.3-1.6 1.3-1.6s1.9-.3 2.2-1c.6-.6 1.3-1.3 1.9-1.6.6-.3 1.3-1.3 1.6-1.9.3-.3 2.5-4.4 3.5-5.7 1-1 4.1-3.8 4.1-4.1 0-.3 1.3-3.2.6-4.1-.6-1.3-1.6-1.6-.6-2.9 1.3-1.3 3.2-3.2 3.2-3.5 0-.3 4.4-7 4.4-7.3 0-.3 0-3.2-1-1.9s-.6 2.9-1.3 3.5c-.6.6-.6 2.5-1.3 2.9-.6.6-1.6 2.2-2.2 1-.6-1 0-1-1-2.5s-1.9-2.9-1-2.5c1 .3.3-1 0-2.2 0-1.3-.6-1.3 0-2.2.6-.6 1.6-.3 1.6-2.5s-1-5.1.3-5.7c1.3-.6 4.1-4.8 4.1-4.1 0 .6 1.3 1.9 1.9 1.9.6 0 .6-4.1.6-4.1s-.6-1-.6-2.5.6-2.9 1-3.2c.3-.6 1.3 1.9 1.3.6 0-1.3-.3-2.9 0-3.8.3-1-.3-7.6.3-7.6s1-1.6 1-1.6-1 0-.6-1.9c.3-1.9 0-7.3.6-8.6.3-1 1.6-1.6 1.6-2.5 0-1 .3-27.3 0-27.9-.3-.6 1.3-6 .3-7-1.3-1-2.9-2.2-2.5-3.8.3-1.6 1.3-6.3.3-7.3s-3.5-5.7-5.4-7.3c-1.6-1.6-2.9-.3-1.9-1.9s1.9-1 1-3.5c-1-2.5-1-6.7-2.2-8.6-1.3-1.9-7-28.6-10.8-34.3-3.8-5.4-5.7-13.3-7.3-16.8-1.3-3.5-3.2-15.6-4.8-20.3-1.6-4.8 1.9-13.7-1.3-18.7-3.2-5.1-6.7-13.7-8.6-17.8-2.2-4.1-10.5-25.7-12.1-36.8-1.9-11.1-4.8-30.5-6.3-34-1.9-3.5-1.9-4.1-1.3-6.7.6-2.5 1.3-4.8 1.3-4.8s-.6-.6-1-1.6h-1.6s-5.1-.6-6-1c-.6-.6-5.4-1.9-5.4-1.9s-4.4-1.3-5.4-2.5c-1-1.3-5.4 2.5-6 2.2-.6-.3-1 6-1.3 7.3 0 1.3 1.3 2.5 1.3 2.5l.3 4.1s-1.6.6-1.6 1c0 .3.3 5.7-1 7.9-1.6 2.2-4.1.6-5.1 0s-1.3-2.2-1.9-3.2c-.3-1 1-1.3 1-1.9.3-.6-.3-.6-1.6-1.9-1-1.6-1.6-3.8-1.6-3.8L124 17.4s-2.9-1.3-3.2-1.3c.2-.5.2-9.4.2-10.1s-1.9-1.3-2.5-1.9c-.6-.6-1.6-4.1-1.6-4.1H1.3S1 5.4.7 5.4 0 8.6 0 9.2c0 .3 1.6 1 2.5 2.2 1.3 1 1.6 2.9 1.6 3.5 0 .6.6 1.3.6 1.3s3.2 1.6 4.4 2.5c1 1.3.6 4.1.6 4.4s-.3 1.3-1 1.6c-.3.3.3 5.1 0 5.7 0 .6.6 1 1.3 1.3.6.6 1.3 1.6 1.3 1.6S8.6 34.9 7 38.1zm240 339.7c-.6-.6-1.9-3.5-3.2-2.2-1.3 1.3-1.6 3.5-.6 4.1.9.3 3.8-1.9 3.8-1.9zm33.3-10.5s0 4.1-.3 4.8c-.3 1-6.7 2.2-7.9 1.9-1.3-.3-3.2 1.9-4.8 2.9-1.6 1-8.6 3.8-9.5 1.9-1-1.9 3.5-2.5 4.4-2.9 1-.6 1 0 2.9-.6s-1-1.6 1-4.8c1.9-3.2 1.6 1 1.6 1s6-4.1 7.6-5.4c1.9-1 4.4 1.2 5 1.2z"/></svg>