<svg id="Layer_1" xmlns="http://www.w3.org/2000/svg" viewBox="0 0 339.7 430.7"><style>.st0{fill:none;stroke:#555}</style><path id="US-GA" class="st0" d="M46.7 370.3c0 .5 1.5 5.6 2.5 6.6s3.5 2 4 3c0 1 0 15.2.5 15.7s5.1 2 5.1 2l184.9 14.1s.5 4 2.5 6.1c1.5 2 2.5 2 2.5 3-.5 1-2.5 1.5-1.5 3 .5 1.5 1 4 3 5.1 1.5 1 5.6 3.5 8.1 0s1.5-12.1 1.5-12.6 2.5-1.5 2.5-1.5l-.5-6.6s-2-2-2-4 1-12.1 2-11.6 8.1-5.6 9.6-3.5c1.5 2 8.6 4 8.6 4s7.6 2.5 8.6 3c1 1 9.6 1.5 9.6 1.5h2.5c-.5-1-1-2.5-1-3.5 0-3.5 3.5-9.6 2.5-11.1s-3-5.1-3.5-5.6c0-.5 2.5-5.1 1-7.6s-6.1-2.5-3.5-5.6c2.5-3.5 6.6-16.2 8.6-12.1 2 4 2.5 5.6 4 3 2-2.5 5.1-9.6 3-11.1-2-1.5-13.1-4.5-12.1-6.1 1-1.5 3.5-3 4.5-2s6.1 3 6.1 3 2-1.5 0-3.5c-2-2.5-4-6.6-2-6.6s4.5 4.5 5.6 1.5c1-3 .5-5.6-1-7.1-1.5-1-6.1-4.5-3-5.6 3-1 13.6 2.5 10.1-2.5-3.5-5.1-4-7.1-3.5-9.1s0-6.1 2-5.6c1.5.5 6.1 2 6.1 2s5.6-4 4-5.6c-1.5-2-6.1-5.6-4.5-7.1 2-2 3-5.6 5.6-3 3 3 5.1 3.5 5.1 1.5s0-10.1 1.5-10.1 3.5-3.5 2.5-4.5c-.5-.5 0-.5 1-1-1-.5-2.5-1-3-1-.5-.5-4-2-5.1-1.5-1 .5-2 1.5-3.5.5s-6.1-4-6.1-6.1c-.5-2 2.5-11.1 2-13.1s-3.5-5.6-4-6.6c-1-1-2-7.6-2-8.1.5-.5 2-2.5 1.5-3s-4-2.5-4.5-3.5-1-3-2.5-4-8.1-1.5-8.6-3.5c0-2-2-11.1-1-13.1s2-2.5 1-3.5c-.5-1-2.5-7.6-3.5-8.6s-2.5-14.1-5.1-16.2c-2-2-6.6-2.5-8.6-4.5s-10.6-4-9.6-7.1c1-3 2-2.5.5-3.5s-4-1-5.6-5.6c-1.5-4-6.6-5.6-6.1-9.6 0-4 2-5.6.5-7.1s-6.1-8.1-9.1-10.6c-3.5-2.5-7.6-3.5-9.1-5.1-1.5-1.5-2-7.1-4.5-12.1-2.5-4.5-11.1-9.6-13.6-11.1-2-1.5-10.1-5.1-10.1-9.1s.5-2.5-3.5-8.6c-4-5.6-3-8.1-6.6-10.6-3.5-2.5-3-3-3-7.1 0-4.5-1-6.6-4-11.6-3-5.1-1.5-8.6-4-10.1s-10.6 1-12.6-1.5-8.1-7.6-13.1-11.6c-5.1-4-8.6-6.6-9.1-7.6 0-1 .5-6.6 1.5-6.6s4-5.6 5.1-8.1 5.1-6.6 6.6-6.1c1.5 0 3-1 3-1.5s.5-5.1.5-5.1H1.8s31.8 200.5 32.3 203.1c0 2.5 2.5 6.1 3 7.1.5.5 1 6.6 2 9.6s6.6 11.1 7.1 12.1c.5 1.5 1.5 7.1 2.5 10.1s-2 4.5-1.5 6.1c0 1.5 5.6 7.1 6.1 8.1 0 .5-9.6 8.1-10.1 10.1s-.5 14.1-1 14.1c0 .5-3 4-4 4.5-.5.5-.5 5.1-.5 5.6s-1 1-2 2 2.5 16.7 3 17.2 1 2 3 7.6 0 16.2-1.5 19.2c-1 3-1 9.6-1.5 11.1-1 1.5.5 1 1 3s-.5 2.5-1 4 4 5.6 4 6.6c.5 1 1.5 1.5 2 2s.5 2.5.5 3 .5 4.5.5 4.5l1-.2z"/></svg>