<svg id="Layer_1" xmlns="http://www.w3.org/2000/svg" viewBox="0 0 504.3 430.7"><style>.st0{fill:none;stroke:#555}</style><path id="US-SC" class="st0" d="M257 431.2c1.5-.7 3.7-1.5 5.2-3 2.2-2.2 6.7-8.2 6-12.7s-2.2-49.9 1.5-41.7c3.7 8.2 3.7 11.9 3.7 14.2 0 3 3 6.7 4.5 4.5 2.2-2.2 3.7-8.9 2.2-13.4-.7-4.5 2.2-13.4 5.2-12.7 2.2.7 11.9-6 14.2-2.2 2.2 3.7 3.7 5.2 3.7 8.2s.7 3 6 .7c5.2-2.2 11.2-2.2 13.4-5.2 2.2-3.7 4.5-12.7 6-10.4 1.5 2.2 4.5 3.7 7.4 4.5s3-.7 9.7-5.2c6-4.5 6-10.4 8.9-8.2 3 2.2 9.7-1.5 8.2-5.2-2.2-3.7-4.5-8.2-6-9.7s3-10.4 4.5-9.7c1.5 0 5.2 1.5 3.7 3.7s-3 2.2-1.5 4.5c2.2 2.2 3 3 6.7 2.2 3.7-.7 6.7 0 9.7-4.5 3-3.7 3.7-8.2 5.2-9.7s6-6.7 7.4-11.9c1.5-5.2 3-10.4 6-10.4 3.7 0 8.9-3 8.9 2.2 0 4.5 6 3.7 7.4.7 1.5-3 4.5-6.7 6-9.7 1.5-3 5.2-9.7 5.2-9.7s11.2-3 6-8.2c-5.2-5.2-7.4-7.4-8.2-10.4s17.1-26.8 14.9-22.3c-1.5 4.5-2.2 5.2-3.7 8.2s-3.7 4.5-5.2 7.4c-1.5 2.2-3.7 4.5 0 5.2 3.7 1.5 6 3.7 8.9-2.2 3-6 2.2-8.2 3.7-12.7s0-3.7 5.2-10.4 4.5-3.7 11.2-14.9c6.7-11.9 11.9-18.6 17.9-22.3 6.7-3.7 12.7-9.7 12.7-9.7l14.9-5.2L386.6 55l-119.2-3s.7-8.9.7-12.7c0-3.7 0-6.7-3.7-10.4s-8.9-13.4-9.7-15.6c-.7-2.2-7.4 6-11.9 6s-2.2-8.2-4.5-8.9c-2.2-1.5-4.5-4.5-4.5-4.5s-110.3-3-112.5-3c-2.2 0-4.5 0-6-2.2-2.2-2.2-3.7 2.2-6 3-2.2.7-6.7 0-8.9-3-2.2-2.2-3.7 3.7-5.2 4.5s-12.7 3-14.9 3-8.9 5.2-11.2 7.4-5.2 2.2-11.2 4.5c-5.2 2.2-15.6 3.7-17.1 5.2-1.5 1.5-8.2 2.2-8.9 1.5-.7 0-1.5 3-1.5 3h-6.7.7s-.7 6.7-.7 7.4-2.2 2.2-4.5 2.2c-2.2 0-8.2 6-9.7 8.9C8 52 3.5 60.2 2.1 60.2S0 68.4 0 69.9s6 5.2 13.4 11.2c7.4 6 15.6 13.4 19.4 17.1 3 3.7 14.9 0 18.6 2.2 3.7 2.2.7 7.4 6 14.9 4.5 7.4 6 10.4 6 17.1 0 6.7-.7 6.7 4.5 10.4s4.5 7.4 9.7 15.6c6 8.2 4.5 6.7 5.2 12.7 0 6 11.9 11.2 14.9 13.4 3 2.2 16.4 9.7 20.1 16.4 3.7 6.7 4.5 15.6 6.7 17.9 2.2 2.2 8.2 3.7 13.4 7.4 5.2 3.7 11.9 13.4 13.4 15.6 2.2 2.2-.7 4.5-.7 10.4s7.4 8.2 8.9 14.2c2.2 6 6 6.7 8.2 8.2 2.2 1.5.7.7-.7 5.2-1.5 4.5 11.2 7.4 14.2 10.4s8.9 3.7 12.7 6.7c3 3 6 22.3 7.4 23.8 1.5 1.5 4.5 11.9 5.2 12.7.7 1.5-.7 2.2-1.5 5.2-1.5 3 1.5 16.4 1.5 19.4s10.4 3.7 12.7 5.2c2.2 1.5 3 4.5 3.7 6 .7 1.5 5.2 4.5 6.7 5.2.7.7-1.5 3.7-2.2 4.5-.7.7 1.5 11.2 3 11.9 1.5 1.5 5.2 6.7 6 9.7.7 3-3.7 15.6-3 19.4.7 3 7.4 7.4 8.9 8.9 2.2 1.5 3.7 0 5.2-.7s6 1.5 7.4 2.2c-1.6-.6-.1.2 2.1.9z"/></svg>