<svg id="Layer_1" xmlns="http://www.w3.org/2000/svg" viewBox="0 0 504.3 209.3"><style>.st0{fill:none;stroke:#555}</style><path id="US-NC" class="st0" d="M339 208.8c.4 0 2.1-1.7 2.5-.8.4.8 2.5 1.2 2.5 1.2s.4 0 1.7-1.2 2.5-2.5 2.9-2.5c.8 0 3.7 2.5 5.4 1.7 1.7-1.2 4.1-2.1 5.4-1.7 1.2 0 5.4.4 7 1.2 2.1.8 1.2 3.3 3.3 1.7 1.7-1.7 2.9-2.5 4.1-5.4 1.2-2.9 1.2-6.6.8-8.3-.4-1.7-.8-5.4-1.7-6.6-.4-.8 0-4.1.4-3.3s1.2.8 1.2 2.1-.4.8 0 2.5c0 2.1.4 7.5 1.2 6.6.8-1.2 1.2-2.9 1.2-5s1.2-5 2.1-6.2c.8-.8 1.7-3.3 1.7-3.3s7-5 7-5.4c.4-.4 2.1-4.1 4.6-6.6s5-6.2 6.2-6.6 7.5-2.1 7.5-3.3-5.8-6.6-4.1-7.5c1.7-.8 5.8.8 5-1.2-.8-2.1-3.3-5-3.3-7 0-1.7 1.7-3.7 2.5-2.5.8.8 3.3 6.2 3.7 7s2.1 1.2 1.2 2.1c-.8 1.2-1.7 1.2-1.7 2.5 0 1.2-2.1 5.8 2.1 2.5s6.2-4.6 8.7-7.5c2.5-2.9 2.1-3.7 2.1-5 0-1.2 1.7-3.7 2.5-2.1.8 1.2 1.2 2.5 1.2 3.7s-2.1 2.1.8 1.7c3.3-.4 2.1-.8 5.4-1.7 3.3-.8 4.1-2.1 6.6-1.7 2.1.4 5.4-1.7 6.2-1.7 1.2 0 4.6-6.2 5.8-3.3 1.2 2.5 3.3 1.7 4.6 3.7 1.2 1.7 2.9 3.3 3.3 1.2.4-2.1.4-3.3 1.7-4.1 1.2-.8 6.2-5.4 8.3-8.3 2.5-2.5 3.3-9.1.4-7.9-2.9 1.2-5.4.8-6.6.8s-1.7-1.7-5.4-.4c-3.3 1.2-4.1 4.1-6.2 3.7-1.7-.8-3.3-.8-4.6.8-1.2 1.2-1.7 2.5-3.3 1.7-1.7-1.2-2.1-1.7-4.6-2.5-2.5-.4-5.4-1.7-7.5-3.7s2.5-2.1-.8-4.6c-3.3-2.9-3.3-4.1-3.7-5-.4-1.2-.4-2.5.8-1.2 1.2 1.2 1.7 1.2 2.5 2.5.8 1.2.4 2.9 2.9 4.1 2.5.8 4.6 4.1 6.2 4.1s-.4 3.3 4.6.8c5-2.1 4.6-1.2 6.2-3.3s6.2-2.5 4.6-5.4c-1.7-2.5-4.6-4.1-3.3-5.8 1.7-1.2 4.6-4.6 6.2-5.4 1.7-.4 3.3-2.1 2.5-3.3-1.2-1.2-18.6-6.2-20.3-7.9-2.1-1.7-4.1-3.3-6.2-3.7s-4.6-2.9-5-2.9c-.4-.4-1.2-3.7-.4-2.9l2.5 2.5c.4.8 2.5 1.7 5 2.5 2.1.4 4.6-.8 5.8.8 1.2 1.7 2.1 3.3 3.7 2.5 1.7-.8 3.3-1.7 4.1-1.7 1.2 0 4.1.4 3.7-1.7 0-2.1-2.5-5.4-.8-5.8 1.7 0 11.2-2.9 9.9.4-1.7 3.3-5.4 2.1-4.1 5s5.8 5.4 5.8 4.1-2.1-3.3-.8-3.3 2.9-1.2 3.7.8c.8 2.1-2.1 4.1 2.1 4.6 4.6.4 10.4 4.1 12.4 2.5 2.1-1.7 4.6-6.2 5.4-7 .8-1.2 3.3-4.6 4.6-6.2 1.2-1.7 2.1-8.3 3.7-7.5 1.2.8.8 4.6 3.3 4.1s5.4-2.9 5.4-4.1-2.1-3.7-1.7-5.4 3.3-1.7 2.9-3.3c-.4-1.2-2.5-4.1-2.1-4.6s1.2-2.1.8-2.9c-.4-.8-2.1-3.7-2.9-4.6-.4-.8-2.1-4.1-4.1-.8-2.1 3.3-3.7 1.2-5 .8-.8-.4-.8.8-1.7 3.7-.8 2.9 0 11.6-1.2 13.3-1.7 1.7-2.1 3.3-3.7 2.5-1.7-.8-4.1-5.4-3.3-4.6.8.4 1.7.4 2.1.8.4.4 1.7 0 1.2-1.7-.4-1.7-2.1-3.7-2.9-3.7-.8-.4-2.1-1.2-.8-2.9 1.2-1.7 4.6.4 3.7-2.1-.8-2.5-1.7-2.5-1.2-3.3.4-.8 2.1-1.2 1.7-3.3 0-1.7-4.1-3.7-5.4-3.7s-4.6-.4-5.4 1.2c-.8 1.7 2.9 3.3 1.7 3.3s-2.5.4-3.7 0c-1.2-.8-2.5-2.9-3.3-2.1-.8.8-.8 1.7-2.1 1.2-1.2 0-.8-2.1-1.7-2.5-.8 0-2.9.8-5 1.2-2.1.4-6.6 0-7.5.8-.8.8-3.3 1.7-4.1.8-.8-.8-3.7-2.5-2.9-4.1.8-1.7 3.3-4.1 2.5-5-.8-.8-4.1-4.6-4.6-6.2-.4-2.1 3.3-14.1 4.1-14.1.4 0 2.5 1.2 2.1 2.1-.4.8-3.3 2.9-3.7 3.7 0 .8-1.7 3.7-.8 6.2.8 2.5 2.9 4.1 3.3 5 .4.8 3.3 2.9 4.6 2.9 1.7 0 6.2 0 7.5-1.2 1.2-1.2 3.7-3.3 4.6-5 .4-1.7-2.5-4.6-3.7-6.2-1.2-1.2-2.1-3.7-.4-2.9 1.2.8 1.2 2.1 2.1 2.5.8.4 3.3 1.7 3.7 2.5.8.8 2.1 2.1 3.3 1.2 1.2-.8 0-6.6 1.7-4.6 2.1 2.1 2.1 2.5 2.9 3.7 1.2 1.2 2.5 2.9 4.6 1.7 1.7-1.7 3.3-2.5 2.1-4.6-1.7-2.1-7.9-5.8-7.9-6.6 0-1.2.4-2.9 2.1-2.1 2.1 1.2 2.9 0 5 2.5s4.1 2.9 5 4.1c1.2 1.2 1.7-.8 1.7-2.1s.8-6.6 1.2-8.3c0-2.1.4-3.3-1.2-5.8-1.7-2.5-3.3-5.4-2.5-7.9 0-.4.4-.8.4-1.2H202.6L155 .8s0 1.7-.8 3.7-1.2 1.7 0 4.1c1.2 2.1-.4 1.2-.8 2.9s-1.2 2.5-1.7 3.7.4 2.1 1.2 4.1c.8 2.1-1.2.4-1.2.4s-3.3 0-6.2 1.7c-2.9 2.1-7 9.9-8.3 13.3-1.2 3.3-6.2 5-7 5-1.2 0-.4-1.2-.8-2.5-.4-1.2-3.7-.8-5.8-1.2-2.1-.4-6.6 2.1-8.3 2.1-1.7.4-4.6 5.4-5 7-.8 1.7-5 3.7-5.4 3.7-.4 0-2.9-.8-3.3-1.2-.4-.4 0-.8.4-1.7.8-.8-1.2-2.1-3.7-2.1s-5.8 3.7-6.6 4.1c-.8.8-1.2 1.2-1.2 3.3 0 1.7-.4 1.2-1.2.8-.8-.4-5.8-.4-6.6 0s.8 2.9 1.7 4.6c.8 1.2-1.7 2.5-2.1 3.7-.4 1.2-4.1 4.1-4.1 4.1s-1.2 0-3.3-1.2c-1.7-1.7-.8.8-2.1.8-1.2 0-2.5 1.7-2.9 2.9-.4.8-1.2 1.2-2.9 1.7-1.7.4-9.9 6.2-9.9 6.6s-2.5.4-3.7 1.2c-1.2.4-3.7 4.6-4.1 4.6 0 .4-5.4-.4-7-.8-1.7-.4-7 .8-7.5.8-.4 0-2.1.8-2.1.8s-3.7 0-5 .4c-1.2.4-8.7 7.9-8.7 9.1 0 1.2 0 4.1-1.2 5.4s-1.7 5-2.5 5.8c-.8.8-3.7 1.7-5.4 2.5s-1.2-.4-2.9-1.7c-1.7-1.2-3.3 1.2-4.6 2.5-1.2 1.2-.4 3.3-.8 4.6-.4.8-1.2.8-1.2.8l.4 12.4h73.7s.4-1.7.8-1.7 4.1-.4 5-.8c.8-.8 6.6-1.7 9.5-2.9 2.9-1.2 5-1.2 6.2-2.5 1.2-1.2 5-4.1 6.2-4.1 1.2 0 7.5-1.2 8.3-1.7s1.7-4.1 2.9-2.5c1.2 1.2 3.3 2.5 5 1.7 1.2-.8 2.5-2.9 3.3-1.7 1.2 1.2 2.1 1.7 3.3 1.2 1.2 0 62.6 1.7 62.6 1.7s1.2 1.7 2.5 2.5c1.2.8 0 5.4 2.5 5 2.5 0 6.2-4.6 6.6-3.3.4 1.2 3.3 6.6 5.4 8.7s2.1 3.7 2.1 5.8-.4 7-.4 7l66.3 1.7 66.4 71.1zM155 0z"/></svg>