<svg id="Layer_1" xmlns="http://www.w3.org/2000/svg" viewBox="0 0 377.7 454.6"><style>.st0{fill:none;stroke:#555}</style><path id="US-CA" class="st0" d="M8.4 0v.5c0 2.3.3 4.4 0 5.7 0 1.3-1 2.9-1.3 3.4s-1.6 0-.8 1.3 2.1.8 2.6 2.1 1.3 2.6 1.6 3.6c.3 1 3.6 10.1 3.1 11.7-.3 1.3-4.4 13-3.6 15.1.8 2.1 1.3 2.6 1 3.4 0 .8-.8 2.3-.8 3.6 0 1-.5 3.4 0 4.4.5 1 2.6 1.8 1.3 2.3s-2.1.3-2.1.8-.8 1.8-1.3 2.1c-.5.3-.8 1.6-.5 1.6.3.3 1.3 1.8-.5 1.6s-2.3-.3-2.3.3c-.3.5-.3 3.1-.5 3.6-.3.3-1 .5-1 1s-2.1 3.6-1.8 4.2c.3.8-2.3.5-1 2.6 1 2.1 1.8 1.3 1.8 2.1s.5 2.9.8 3.4c.3.5-1.3 2.6.3 4.2 1.3 1.6 2.9 0 3.6 1.6.8 1.8 1.6 2.3 2.6 3.1 1 .8 3.4 2.9 3.6 3.6.3.8-.3 1.3.8 1.8 1 .3 1.3 1.3 1.8 2.1s3.6 3.1 3.9 3.9c.3.8.3 1 1 2.1.5 1.3 1.3 1.8 1.3 2.3 0 .5 0 2.6.5 4.4.5 1.8 2.6 3.6 2.1 6.8-.5 2.9-1.6 2.1-1.3 3.9 0 1.8.5 4.7-.3 5.5-.8.5-1.8 0-.8 1.8 1 2.1.8 2.6 1.6 3.6.8 1.3 4.2 11.2 3.9 11.9-.3.8-3.6 2.3-2.9 4.4s4.9 4.2 5.5 4.7c.8.5 3.9 2.3 6 6.5s6 7 6.8 8.3 4.2 2.6 5.2 4.7 2.1 4.9 3.1 5.5c1 .5 1.6 1.6 2.1 2.6s1 1.3 2.6 3.4c1.6 2.1.8 1-.3 1.8-1.3.5-1.3 1.6-1.3 2.1 0 .8-4.4 2.6-1.6 3.9 2.9 1.3 4.9-.8 5.7 0 .8 1 5.2 4.9 7.3 6.2 2.1 1.3 3.6 1.8 4.2 2.6.5.8 1.8 0 1.6-.8-.3-.8 0-14.3 2.1-13.8 1.8.5 5.2-1.3 6 .8.8 2.3 2.1 2.6 2.1 2.6s6.5-4.4 7.5-2.9c1 1.6.3 2.9 2.6 2.6 2.3-.3 8.8-1.3 9.6-1 .8 0 9.6 4.4 7.8 3.6-1.8-.5-5.7-1.8-5.7-1.8s-1.6-1.6-1.8-.8c-.3 1-.8 1.3-.8 1.8s1.3 1.3.8 1.6c-.5.3-1.6-.5-2.9-1.3-1.3-.8-1.6-.5-3.4-.5-1.6 0-4.9.5-6-.5-1-1-2.9-1-3.6-.5-.5.5-4.4 1.6-4.4 1.6s-1.8-1.6-2.6-.5c-.5 1-2.6 1.8-2.9 2.9-.5 1-1.3 1.3.3 3.4 1.6 2.1 2.3 1.8 2.1 3.6-.3 1.8.8 1.6 2.9 4.2 2.1 2.6 1.8 3.1 2.1 4.7.3 1.6 1 4.2 1.6 5.2.8 1 5.5 2.3 3.6 3.6-1.8 1.3-3.1 2.1-3.4 1.3-.3-1 0-1.6-1.3-2.3s-2.3-1-3.6-2.9c-1.6-1.8-4.7-5.7-4.7-5.7s1.3-.5 1-3.1c0-2.6-1.8-4.4-3.1-3.6-1.3.8-3.4 0-2.9 1.8.5 1.6 1 3.4.5 5.2-.3 1.6-2.1 2.9-1.6 4.4.5 1.6 1.3 2.3 1.6 3.1.5.8 2.9 2.3 2.9 3.6-.3 1.3 0 1 .5 2.6s-3.1 5.7 0 9.1c3.1 3.6 9.6 11.2 11.2 11.9s4.9-4.2 7.3-.5c2.1 3.6 4.4 4.7 3.9 7.3-.5 2.3 1.3 2.1.8 3.6-.5 1.6-2.1 4.9-2.9 5.2-.5.3-2.1.3-2.3 0 0-.3-1-.8-1.3 0s.3 2.1.5 2.3c.3.3.5 1 .3 1.6-.3.5-.5 1-.3 1.8.3.8 0 2.1.3 2.3 0 .3.8.5 1 1.6.3 1-.5 4.4 1 6 1.3 1.6 2.1 2.3 2.1 2.9 0 .3 1 0 1.6.3.5.3.5 1.3 1.6 1.6.8.3 1.6 0 1.8.8.5.5 2.1 3.1 2.6 4.4.5 1 0 2.1.5 2.6s1.8 1 2.1 1.3c.3.3 1.6.3 2.1 1.8.3 1.6.3 2.3 1 3.1.8.8 2.3 4.7 2.9 5.5.5.5 1.8 2.3 2.1 2.9.3.5-.8 2.6 1.3 3.4 2.1 1 3.9.3 4.4 1.6.5 1.3 3.6 6.2 6 8.1 2.1 1.8 4.2 1 4.2 1.8s3.4 2.6 2.1 4.4c-1 1.8-1.8-.5-1.8 1 0 1.6-1 3.1-.5 4.2.5 1.3 2.3 1.8 4.2 2.1 1.8.3 6 1.6 5.7 2.9-.3 1.3.3 4.9-.8 6.2-1.3 1.3-2.1 1.3-1.3 3.4.8 2.1 1.6 2.1 1.8 4.4 0 2.3-.8 2.1-.3 3.4.3 1 1 2.3.5 3.9s-1.8 4.4-.5 5.5c1 1.3 2.6.8 3.4 1.8.8.8 3.1 1.8 3.6 2.6.8.8 5.7.8 7 .5 1-.3 2.1-2.3 3.4-1 1.3 1.3 1.8 1.3 2.9 1.3 1 0 2.1.3 4.2 1.3 2.1 1.3 3.6 1.3 4.7 1 .8-.3 3.6 1 4.7 1 .8 0 4.2-2.9 5.7-1.3 1.6 1.6 2.3 1 3.6 2.3 1 1.3 3.6 2.3 4.4 3.1 1 .8 2.3.5 3.1 2.9.8 2.3-.5 3.9 2.9 5.5s4.7 1.8 6.8 2.9c2.1 1 4.4 3.4 5.5 2.9 1-.5 1.8-2.6 3.4-1.8 1.3.8 8.1-.8 8.6.5s.3 2.3 1.3 3.1c1 .8 2.3 2.1 2.6 3.6 0 1.6 1 3.6.5 4.4-.5.8-1 1.3-.8 1.8.3.8 1.6 2.9 1.8 2.6.3-.3 1-1.3 1.6-.8.5.5 1 .8 1.6 0 .5-.8-.5-1.6 2.1-1 2.6.5 4.2-.3 5.2 1.3s5.5 4.7 7.8 7c2.6 2.6 4.4 3.1 4.4 3.1s6 3.4 10.1 10.4c4.2 7 5.5 10.6 5.7 12.5.3 1.8 1 4.9 1.6 6 .5 1 1.6 1.6 1.3 2.1-.3.5-1.3.5-1.3 1.6 0 .8-1.6 4.7 0 6.2 1.6 1.6 6 1.3 5.7 2.9-.3 1.6-1.8 1.8-1 3.1s1 2.9 3.6 2.6c2.3-.3 80.8-7.8 84.7-8.1.5-.3.8-.8.8-.8 0-.3 4.4-.3 5.5-.8 1-.5 1-2.1 1.3-2.6 0-.5 1-1 1.6-1.8.5-.8.5-5.5.5-6s-.3 0-.8-.5-.5-1-.5-2.3c0-1.3-2.3 0-3.9-.8s-2.3-.8-2.9-3.1c-.5-2.3 1.6-3.6 1.6-4.9 0-1.3-.3-1.3-.8-1.8-.3-.5.5-1.6.5-1.6s-2.3-1.6-2.3-2.6c-.3-1 .8-.8 1-1.3.3-.5-.3-.8-.5-2.1-.3-1 1.6-.5 1.6-.5s2.1-2.1 2.1-2.9c0-.8 1.8-2.6 2.1-2.9.3-.3.5-5.5.5-6.2s1.8-1.6 2.9-2.3c1-.8-1.8-9.1-1.6-10.9 0-1.8 2.9-3.6 3.6-3.9.8-.5.3-2.6.5-3.4.5-.8 6.8-5.5 7.8-6.5s2.1-3.1 2.1-3.6c0-.3-.3-.8 0-1.6 0-.8-3.9-2.9-4.4-3.6-.8-.8-3.6-2.1-3.6-2.1s-.5-2.6-.5-3.6-1-2.6-1.3-3.1c-.3-.5-.3-.5-.8-1.8s-.3-1.6-.3-2.6-1.3-2.1-3.4-4.7c-2.1-2.6-3.6-4.2-3.6-4.2l-.3-6.5-197.7-191.7V1.8L8.4 0z"/></svg>