<svg id="Layer_1" xmlns="http://www.w3.org/2000/svg" viewBox="0 0 269.6 422.5"><style>.st0{fill:none;stroke:#555}</style><path id="US-NY" class="st0" d="M850.9 147.6c.1 0 .1-.1.1-.3v-.2l-.1.5zm.5-22.6c.2 0 .4 0 .5.1.2.2 10.9 6.8 10.9 6.8s-.1.8-.1 1-.6 1-.6 1.6 0 .9-.3 1.1c-.2.3-.6 1.7-.8 1.9-.1.1-2.1.2-2.3.6-.1.4-.6 1.6-.6 1.9 0 .1.1.3.3.5.3-.3.6-.4.8-.5.3-.1.7-.8 1-1.1.3-.3.9-.9 1.5-.3.6.7 1.4.3 1.6-.1s.4-.2 1.4-.1c1.1.1 1.3 0 2.7-.2 1.3-.3 3.3-.9 5-1.6s2.9-.5 5.1-1c2.1-.5 4-.5 4.3-.9s1-1.3 1.2-.9c.3.3.7.6 1.2.2s2.4-1.6 3.2-1.9c.8-.4 1.8-.5 2.3-.9s2.4-.9 1.4-.9-.8-.1-1.3.2c-.5.3-.5.8-.8.8s-1.1.3-1.3.2c-.2-.1.3-.5.1-.6-.3-.1-1-.1-1.2.1-.2.2-1.2.7-1.3.5-.1-.1-.1-.4-.3-.9-.1-.1 1.2-1.4 1.4-1.8.1-.3-.8.2-.8.2-.2-.1-1.5 1.1-1.5 1.4-.1.6-.2 1.1-.2 1.3 0 .2.1.9-.2.8s-.4-.3-.5-.4-1.2.9-.4-.1c.7-1 .8-1.4.8-1.4s-.7-.3-.8 0c-.1.3-.3.3-.6.8-.2.5-.3.7-.7.8-.4.1-1.1.2-1.5.3-.4.1-.9 0-1.3.1s-1-.2-1.8-.2-1.9 0-2.1.1c-.2.1-1.9-.3-2.5.4-.5.7-2.1-.1-2.1-.1l-1.4.4s-1.4.4-2.2.6c-.8.3-.9 1.1-1.7 1.3-.8.1-2.4 1-1.1 0 1.2-1 .9-1.2 1.5-2 .6-.7 1.1-1.3 1.4-1.5.1 0 .1 0 .2-.1-.3-.2-.6-.4-.8-.7-.4-.6-.7-.6-.5-.8.2-.3 1.3-1.1 1.6-1.2.3-.1 2-.7 1.6-1-.3-.3-.2-.8-.3-.9-.1 0-.6-.1-.7-.5 0-.3.9-14.1.9-14.1l-.3-.5 3.5-12.6-.2-.9.5-13.5s-.7-.5-.7-.6.1-.9-.2-1c-.4-.1-.4.1-.7.4-.2.3-.9.8-.9.7s-.1-1.5.1-1.7c.1-.2.5-1.2.5-1.3s0-1-.1-1.1-.5-.7-.7-.5-.7 1.3-.7 1.7c0 .3-.2 1.5-.6 1.9-.3.4-.8 1.2-1 1.5-.1.3-.9 1.8-.9 1.8 0 .1-.6.2-.7 0-.1-.2.1-.7.3-.8.1-.1.4-1.2.4-1.3s.1-.8.6-.9c.5-.1.6-.3.9-.7.3-.4.5-1.5.6-1.6s.3-.7.2-.8c0-.1.2-.9.4-.9s1 .2.8-.4c-.2-.7-.4-.4-.4-.6 0-.2.3-1-.1-1.7-.4-.6-.5-1.7-.2-2.1.3-.5.5-1.5.8-2.2s.8-2.5.7-2.7c-.1-.2-.7-1-.7-1.1 0-.2.1-1.9.1-2s-.2-2-.2-2.2c-.1-.2.3-1.9.4-2.3.1-.3.3-2.9.5-4h-22.9s-.9.6-1.3.9c-.5.4-1.5.9-1.5.9s-2.6 1.4-3.5 2.2c-.9.8-3.1 3.1-3.6 3.6l-1.4 1.4-.1 1.7s0-.3-.7.2-.7-.5-1.6.7c-1 1.2-1.8 1.8-2.2 2-.3.2-1.8.3-1.8.3s-1.1 1.2-1.1 1.9c-.1.7.1 1.8.5 1.8s.2-.7.7-.6c.5 0 1.2 0 1.4.4.1.4 1.5.8.9 1.2s-1.4-.7-1.1.8c.2 1.5-.7 1.5-1 1.5-.3 0-.6-.5-.6.1s.6 1.2.6 1.7c.1.5 1.4 1.6.9 2.2-.5.7.2 1.2-.3 1.5s-3.1.6-3.1.6-.7.2-1.3.8-2.6 3-4.3 3.2c-1.7.2-1.9 1-2.5.8-.6-.1-2.1-.5-2.6-.5s-3.8.3-4 .4c-.2.1-1.3.8-2 .5-.6-.4-1.5-1.2-2.4-1.6-.9-.4-2-.7-2.3-.6-.3 0-2.5-.8-2.7-.5-.1.3-1 .5-1 .5l-2.1-.7s-8.9 1.9-9.1 2-1.1-.3-1.1.7-.3 2.9.6 3.2 1.3.4 1.4.6c.1.2-.1.6-.1 1s-.1.5.2.9.5 1.3.5 1.6 0 1.3-.3 1.6c-.3.4-2.8 3.1-3.3 3.6s-1.9.2-2.3.8c-.4.6-5.5 4.2-6.4 4.7-.1.1-.3.1-.5.2v4.7H843s-.5.5.3.9.6.3.7.7c0 .4 0 .5.5 1 .6.5 1.4 0 1.6.4.2.3 1 1 .9 1.4-.1.4-.6.7-.4 1 .3.2.2.8.3 1.1 0 .3-.5.8-.3 1.1.2.2 1.3 1.3 1.3 1.6 0 .3.3.8.4.9.1.1 2.1.4 2.4.7.3.3 1.3.9 1.2 1.1-.4-.4-.4-.3-.5-.1z"/><path id="US-ME" class="st0" d="M907.9 93.6c.8-1 2.2-2.4 2.3-2.7.1-.3 0-2.8.5-3s.4 1.1.9.1 1.2-.8 1.3-1.6c.1-.7-.7-.7 0-1.4s2.5-2.4 2.5-2.4-1.3 0-.5-1.1c.7-1.1 1-1.9 1.3-1.9s1.6-.8 2.1-.9c.5-.1.9-.2 1.1.2.2.4 1.3-1.1 1.2-1.3-.1-.2-.9 0-.9-.7 0-.6.1-1.5.6-1.6s1-.7.9-.3-.5-.1-.4.7c.1.8.4.8.3 1.5-.1.7.3.5.4.1.1-.4.8-1.2 1.1-1.5s1-1.4.9-.8c-.1.6-.2.5-.3 1-.1.4.4.9.6.4.1-.5.1-.9.2-1 .1-.1.7 0 .8.1.1.2.4.3.1.6s-.5.3-.5.7c.1.4.1 1 .4.8.3-.1.3-.3.6-1 .3-.6.6-1 .8-1.1s.3-.8.5-.8 1-.6.9.2c-.1.8-.4 1.1.2 1.1.6 0 .8-.4 1.4-.5.5-.1 2-.6 1.9-1.1 0-.6-.6-.9-.1-1.7s1.6-2.4 1.9-2.9c.3-.6-1.1-1.3-.6-1.9.5-.6 2.1-1.2 2.3-1.7.2-.5 0-1.2.5-1s1.4-.1 1 .6c-.4.7-.6 1.1-.8 1.4-.3.3-1 1.3-.2.7.7-.6.9-.9 1-.6.1.3.5-.1.4.6-.1.7-.6.4-.7.8-.1.4-.2 1 0 1.2s1 .2 1.2.5c.2.2 1.1.1.8.5-.4.5-.7.2-.7.5s.5.5.7.4c.1-.1.6.3.6-.4 0-.8-.2-.9-.3-1.3-.1-.4-.1-.3 0-.8s-.7-.5.1-.8c.8-.4 1.1-.3 1.2-.7.1-.4.3-1.4.3-1.4s1.1-.1 1.1.3v.9c0 .3 0 .8.4.5.4-.3.5-.2.6-.6.1-.4-.1-.3 0-.8s1-.7 1.1-.6c.1.1 1.6 0 1.7.2.1.2.6 0 .7.4.1.3-.1.1 0 .9s0 1.2.2 1.1c.2-.1.5-.1.4-.8-.1-.7-.5-1.1 0-1.3s.4-.5.9-.2.8.5 1 .4-.1-1 .2-1.1c.3-.1 1.6-1.3 1.9-.8.3.4.4.9.5.9.2 0 .6-.7.9-.4s.2.9.5.6c.3-.3.4-.4.4-.7s-.5-.3-.1-.6c.5-.3.8-.6 1-.7.3-.1.5.5.7.2l.4-.6s.3-.8.8-.5c.6.3 1.5-.2 1.4.2-.2.4-.5.3-.3.5s.5.1.7-.1c.2-.1 1.3-.3 1.6-.7.3-.5 1.2-1.2 1.3-1.2.2 0 0-.7-.3-.8s-.4 0-.7-.1-.9 0-.9-.4-.8-1.1-.6-1.2c.3-.2.6-.2 1-.4.3-.2 1.6.1 1.2-.4-.3-.6-.4-.9-.7-1.3-.3-.4-1.5-2.4-1.9-2.5-.4-.1-1-.4-1 0s-.3.8-.8.5c-.5-.4-.8-.7-1-1-.2-.4-.6-1.8-.4-2.4.2-.6.5-.7.3-1-.1-.3-1.3-1.6-.8-2.1.4-.4.8-.6.8-.7 0-.1.3-.8-.1-1.2-.4-.5-2.5.4-2.8-.2-.3-.6-1.1-.9-1.4-1.1-.3-.1-1.1-.3-1.1-.9.1-.6.2-1.4.3-1.9.1-.5-.6-.6 0-1.2s.8-.4.8-1.1c0-.7-.9-20.8-.9-20.8s-.2-.1-.6-.5c-.3-.3-1.4-.8-1.8-1.4-.4-.6-1.1-1.4-1.6-1.8-.5-.4-2.3-1.8-2.8-1.6s-1.1-.2-1.2.2c-.1.4-.1 1.2-.3 1.2-.1 0-1.4-.3-1.4-.3s-.8 0-1.3.5c-.6.5-.8.6-1.6.6-.9.1-1 .3-1.1.3-.1 0-.5.3-1 .5s-.9.3-1.2-.1c-.3-.4-.9-.3-1.2-.7-.3-.3-.4-.8-.4-1.1s.4-2.1.2-2.3c-.2-.2-1.1-.6-1.5-.5-.4.1-1.7.4-2.1.8-.4.4-1.4 2.1-1.9 2.7-.5.6-1.1 1-1.3 1.4-.2.5-.2.6-.3.7-.2.2-1.2.9-1.8 1.7-.6.7-2.8 3.8-3.3 4.7-.6.9-1.4 1.3-1.4 1.8s-.5.1-.5 2.2c0 2-.6 2.2-1 2.9s-1.1 1.2-1.6 2.2c-.5.9-1.2.8-.9 1.8s.4 1.7.3 1.9c-.1.3-.7.1-.7.7s.9 1.6.8 2.1c-.1.6-.3 1.7-.5 1.9-.2.2-1.4 0-1.6.8s.4.9.1 1.2c-.3.3-.2.6-.6.8-.4.2-3.9 1.5-3.9 2.5 0 1.1-1 1.2-.7 1.6.3.4.5.1.9.4.4.3 1.3.7.7.9-.6.2-1.2-.2-1.3-.4s-.6-.7-.9-.4c-.3.3-.5.4-.3 1.3.2 1-.1 1.3-.2 1.9-.1.6-.4.6-.6.3-.2-.4-.4-.9-.6-1.1-.2-.2-.5-1.8-1-.9-.4.9.2 1.2-.4 1.2-.5 0-.8.3-.8.5.3 6.5 1.7 31.3 1.8 31.6s-.3 3.2-.3 3.4c0 .1.6.5.7.6.1.1.1.5.1.7 0 .3 1.1 1 1.4 1.3.2.3.2 1.3.2 1.6s.1.4.5.8c.2.3.6.6 1 .9zm52.7-32.3c.1.2.8.5.9.3 0-.2 0-.6-.1-.7-.1-.1-.5 0-.5.1l-.3.3zm-20.1 9c.2-.9 1-1.9 1.2-1.9.2.1 2 .5 1.7 1.1s-1.9.5-2 1c0 .6.8.4.5.8-.3.4-.7.5-.9 1-.2.5.7 1.6 0 1.4-.7-.2-1.1-.8-1.3-.6-.2.3-.4-.3.1-.6.4-.3.8-.6.8-1.1-.1-.5-.1-1.1-.1-1.1z"/><path id="US-VT" class="st0" d="M871.9 99l-.2-.9.5-13.5s-.7-.5-.7-.6.1-.9-.2-1c-.4-.1-.4.1-.7.4-.2.3-.9.8-.9.7s-.1-1.5.1-1.7c.1-.2.5-1.2.5-1.3s0-1-.1-1.1-.5-.7-.7-.5c-.2.2-.7 1.3-.7 1.7 0 .3-.2 1.5-.6 1.9-.3.4-.8 1.2-1 1.5-.1.3-.9 1.8-.9 1.8 0 .1-.6.2-.7 0-.1-.2.1-.7.3-.8.1-.1.4-1.2.4-1.3s.1-.8.6-.9c.5-.1.6-.3.9-.7.3-.4.5-1.5.6-1.6s.3-.7.2-.8c0-.1.2-.9.4-.9s1 .2.8-.4c-.2-.7-.4-.4-.4-.6 0-.2.3-1-.1-1.7-.4-.6-.5-1.7-.2-2.1.3-.5.5-1.5.8-2.2s.8-2.5.7-2.7c-.1-.2-.7-1-.7-1.1 0-.2.1-1.9.1-2s-.2-2-.2-2.2c-.1-.2.3-1.9.4-2.3.1-.3.3-2.9.5-4 .3 0 .6 0 .7-.1.3-.2 2.8-.5 2.8-.5s21.1.2 21.8.3v.7c.1.3.6.7.6.9s-.9 1.9-1.2 2.3c-.3.5-.6 1.2-.5 1.3.1.1.6 1.6.8 2 .2.4.4.9.2 1-.1.1-.6.1-.7.4 0 .3-.2 1-.6 1.2-.4.2-2.9 2.4-3.2 2.5-.3.1-1.6-.2-2 .3-.4.4-.7 1-.7 1.2s-.1 3.9-.1 3.9-.4.2-.4.4c-.1.2-.5.2-.4.6.1.4.3 1 .1 1.1-.2.2-.9.6-.9.8s-.1 1.3-.4 1.9c-.3.6-1.4 1.2-1.6 1.4-.1.3-.1 1.4-.3 1.7-.2.3-.6 1.2-.8 1.4-.2.2-.3.6-.3.7 0 .2.6 3.9.2 4.3-.4.4-.6.9-.6 1.2s-.6 1-.3 1.1c.3.1.4.9.4.9s-.3.6-.3.7c0 .2.9 1-.3 1.3s-.9 1.6-1 2.1c0 .6.1 1 .5 1.5.2.2.5.5.7.9l-11-.5z"/><path id="US-MA" class="st0" d="M868.6 112.1l-.3-.5 3.5-12.6 27.9.9 1.9-1.4.3-.5.7-.4s.9-.3 1.2-.5c.3-.1.7-.4.7-.4s.6-.6.9 0 .3.3.6.6c.1.1.2.1.4.2.1.9.8 2.3.9 2.5.1.2.6.7 1 .8.3.2.5 1.1.3 1.4-.2.3-1.7.3-2.1.5-.4.2-1.1 1.6-1.2 1.7-.1.1-.3.9-.4 1-.1.1-.5.8-.5 1.1-.1.3-.7.3-1 .4s.1.4.3.4c.2.1.8.8 1.2 1.1.4.3.4-.1.4-.4 0-.2 0-.1-.2-.3-.2-.2.2 0 .3-.4.1-.3.6.3 1.2.6s1.1 1 1.2 1c.1.1 0 .6 0 1s.2.4.3.5c.2.1.2.2.4.5s.1.3.3.5c.1.3 0 .3.2.6s.1.3.1.6c-.1.2-.4.3-.4.4 0 .2.4.2 1 .4.6.3.3.5.6 1.5s.4 1.1 1.2 2.1c.8 1.1 1.7.9 2.1.8.5-.1 1.6-.1 2.5-.2s1.2-.5 1.6-.8c.4-.3.3-1 .4-1.4 0-.4-.6-.6-.9-1.1-.3-.4-.5-.8-1.1-1.5-.5-.7-.9.1-1.2-.1s-.4-1.2-.3-1.3c.2-.2.6.1 1.3-.3s.9.8 1 1c.1.2 1.4 1.8 1.7 2.3s.5 1.7.8 2.8c.3 1.1-.7 1.4-1.2 1.9s-1.1.1-1.4.2c-.3 0-1.5 0-1.9.2-.4.2-1.1.3-1.1.3s-.2-.3-.6-.6c-.4-.3-1.4 1-1.7 1.3-.4.2-1 .7-1.5.7s-1.3.4-1.6.6c-.3.1-1 .7-1.3.8-.3.1-.6.4-1.1.6s-.2.2-.6.4c-.4.2-.3-.2-.3-.2s.9-.5 1.9-1 1.4-1.2 1.4-1.6.2-.8.4-1.2c.2-.4.1-.8.1-1.2 0-.5-.2-.4-.6-.6-.3-.3-1 1.1-1.2 1.2-.2.1-1.8 1.4-2.1 1.7-.3.3-.9.6-1.1.7-.2.1-.5.1-.6-.3 0-.4-.7.3-.7.3s-.4.1-.9.1v-.6c0-.2.1-1.3 0-1.5-.1-.3-.4-.3-.4-.5s-.3-.5-.3-.5l-1.1-.3s-.6-.5-.9-1 0-1.8 0-1.8l-.8-.1v-2.3h-5.8v-.4h-13.2s-.1 0-.2.1-.4.3-.4.3l-10-.8zm26.7 15.7c-.1.2.2.6.2.6s.4-.1.4-.3c0-.2.1-.6.1-.7s-.1-.3-.2-.3-.3.4-.3.4l-.2.3zm22.1-6.5l1.1-1.3s.4-.7.1-.8c-.3-.1-1.1 1.9-1.2 2.1zm-3 4.7c.8.6 3.8.7 3.8.5s-.6-1.1-.7-1.5-.3.8-1 .8c-.8.1-2.1.2-2.1.2zm-8.1-1.1c.3.6.7.6 1 .3.3-.3 3.3-.6 3.3-.6s-.1-1.2-.5-1.4c-.4-.2-1-.4-1.3-.1s-1.2 1-1.4 1.3c-.2.3-1.1.5-1.1.5z"/><path id="US-RI" class="st0" d="M892.4 112.9h5.8v2.3l.8.1s-.2 1.3 0 1.8c.3.5.9 1 .9 1l1.1.3s.3.2.3.5.3.3.4.5c.1.3 0 1.3 0 1.5v.6c-.3 0-.7 0-.9-.1-.4-.3-.1.4-.8.6s-.7 0-1.1-.6c-.4-.6-.3.8-.6 1.4-.4.7-1.1 1.4-1.6 1.6s-2.2.6-2.7.9c-.5.2-1.2.5-1.6.5h-.8c0-.7.7-2 .7-2l.1-10.9z"/><path id="US-CT" class="st0" d="M866.7 131.3c-.3-.2-.6-.4-.8-.7-.4-.6-.7-.6-.5-.8.2-.3 1.3-1.1 1.6-1.2.3-.1 2-.7 1.6-1-.3-.3-.2-.8-.3-.9-.1 0-.6-.1-.7-.5 0-.3.9-14.1.9-14.1l9.9.7s.4-.2.4-.3c.1-.1.2-.1.2-.1h13.2v11.1s-.7 1.3-.7 2c-.7 0-1.7-.1-1.7-.1s-.8-.2-1.8.5c-1.1.6-1.8.1-2.6-.4s-2.8.2-3.9.2-1.9.3-2.9.2-1.6.5-2.8.8-.7.4-1.7.8c-1.1.5-1.3.4-2.6 1s-1.6 1.3-2.5 2c-.6.8-1.7.7-2.3.8z"/><path id="US-OH" class="st0" d="M769.5 113.3l-.1.1c-1 .5-10.9 3.4-11.7 4.2-.8.7-1.2 1.2-1.9 2.5s-1.8 1.8-3.1 2.2c-1.3.3-3.7-.3-4.4-.3s-5.2 2.2-7 1.8c-1.7-.4-2.7-1.5-3.4-1.2-.7.3-.5 1.1-1.6.6s-1.8-1.1-1.8-1.1-.8-1.2-2-1.8c-1.2-.6-5.3-1.5-4.8-2.4 0 0 0-.1.1-.1l-18.8.8-.5 48.1c.1-.2.3-.4.4-.4.1-.1.5-.3.8-.4s.5 0 .6.1c.1.1.4.6.7.9.3.3.7.1.9.1.2.1 1.2-.3 1.2-.4.1-.1.4-.3.6-.4.2-.1.2.1.4.4s.2.5.4.8c.2.3.8.1 1.1.2s.3.3.4.3c.2.1.2.7.2.9 0 .2.4.7.6 1 .3.3 0 1.4.1 1.7.1.3 1.4.7 1.8.8.4.2 2.1-.1 2.2-.1.1 0 1.4.8 1.8 1.3.4.5 1.5 1.3 2 1.6.5.3.9-.8 1.2-1.3.3-.4 3.1.9 3.5 1 .3.1.4.6.8.5.3-.1 1.8-.3 2-.3.2 0 .3-.2.6-.6.3-.4 1.1-1 1.3-1.1s.7-.1.9-.4c.2-.3.6-.2.7-.2.1 0 .1.3.1.5s.3.7.4.9c.1.2 0 .9 0 1.2 0 .3.7.6.9.8.2.3 1.1 0 1.4.3.3.3.9 1.1 1.2 1.4.2.2.1.8.1 1.2h.5c.5 0 1.1-.1 1.3-.3.2-.2 1.4-.2 1.8-.2s.5-1.2.6-1.3c.1-.1.3-1 .3-1.3s.4-.3.5-.6c.1-.2.8-.1.9-.3.1-.1-.3-1.8-.3-2.1 0-.3-.1-.4-.3-.6-.1-.2.1-.5.2-.6.1-.2.4-.3.6-.5.2-.3.4-.9.3-1.1 0-.2.2-.6.5-1.1.3-.5 1-1.1 1.5-1.4s1.1 1.3 1.2 1.7c.1.4-.3.5-.4.9-.2.4.7.2.9.1.2 0 .6-.5.6-.5s.1-.5.1-.7.3 0 .4.1c.1.2.4 0 .7-.1.3-.2-.3-1.2-.3-1.4-.1-.2-.2-.8-.2-1.1 0-.3.4-.1.5-.3.1-.2.2-1.4.3-2.1.1-.6.5-.6.7-1.1.2-.6 1.6-.3 1.9-.2.3.1.1-.3 0-1.1-.1-.7.8-.5 1.2-.8s.1-.7 1-.4c.9.3.6.8 1.1.8s1.1-.7 2.2-1.2.8-1 1.3-1.8 1.1-.8 1.4-.9c.2-.1.6-.5.8-.8.2-.2.4-.1.8-.2s.2-.8.2-1 .2-.5.2-1c0-.4-.3-.5-.5-.9s1.5-3.3 1.7-3.7c.2-.4.9-3.4.9-3.7.1-.3.3-.4.3-.8s.6-1.1.9-1.9c.4-.8-.4-1.3-.5-1.5-.1-.2.3-.4.5-.6.2-.2-.3-1.4-.3-1.6s0-.2-.3-.4c-.2-.2-.2-1-.1-1.2 0-.2 1.4-.1 1.5-.1s.7-.4.7-.4l-.1-24.4z"/><path id="US-PA" class="st0" d="M836.4 155.1v-.4s.7-1.2 1.2-1.6.9-.4 1.2-.4 1-.1 1.4.1c.4.2.8.6.9.8.3-.3.9-.7 1.2-.8.4 0 2.1-.7 2.3-.7s.7-.1.9-.4c.2-.2 0-1.2.3-1.4.2-.2 2.3-1.2 2.9-1.8.6-.6.8-.7 1.2-1 .3-.2.8.1 1 0l.1-.5c0-.5-.2-.5-.5-1.1-.4-.6-1.3-3.2-2.4-3.5-1.1-.4-1.4.3-1.5-.1s-.1-2.6-.3-2.8c-.2-.3-1.6 0-1.6-.3s.1-1.5 0-1.6c-.1-.1-.3-.6-.2-.9.1-.3.3-.5.3-.7.1-.2.1-.9.3-.8.2 0 .7-.5.9-.7.2-.2.6-.7.6-.8-.1-.2-1.4-1.9-1.2-2.1.2-.3 1.1-.5 1.4-.8s.7-.6.8-.8c.2-.2 1.2-1.7 1.2-1.9 0-.2.6-.8.6-.8s-.4-1 .1-1.1 1.2-1 1.4-1.1c.1-.1.4-.1.6-.1 0-.1.1-.3.2-.4.1-.2-.9-.8-1.2-1.1-.3-.3-2.3-.6-2.4-.7s-.4-.6-.4-.9-1.1-1.4-1.3-1.6c-.2-.2.4-.7.3-1.1 0-.3 0-.9-.3-1.1-.3-.2.3-.6.4-1 .1-.4-.7-1-.9-1.4-.2-.3-1.1.1-1.6-.4-.6-.5-.5-.6-.5-1s.2-.3-.7-.7c-.8-.4-.3-.9-.3-.9h-62.7V108c-1.5.6-5 1.6-5 1.6s-.6 1-1.1 1.4c-.4.4-3.1 1.6-4.2 2.1v41.7h14.3l52.3.3z"/><path id="US-NJ" class="st0" d="M841 153.6c0 .3-.5 1.8-.7 2s-1.7 1.2-1.4 1.7c.3.5.9.5.8.8 0 .2-.1.5-.2.7 0 0 .1.1.1.3.2.8 1.6 1.5 1.3 1.6-.3.2 1.8 1.7 2.5 2.2.7.6.9 1.7 1.4 1.6s2.3.3 2.3.3 1.3-.1 1.3.5.1 1.1-.1 1.9c-.3.9-.7 1.5-.5 2s.5 1.2 1.2-.2 2.3-3.3 2.6-3.8c.2-.6 1.1-1.5.9-1.9-.3-.5-.4-.6-.1-.8.3-.2 1.1-.8 1.5-1 .3-.2 1.4-.6 1.6-1.3.1-.7-.2-.9.2-1.4.4-.5 2-1 2-1.2 0-.3 1.3-2.8 1.3-3.4s.5-2.5.5-3.2.6-1.4.6-1.4 1.4-4.1 1.4-4.6c0-.6.3-2.7-.3-3-.5-.3-1.6-.1-2.2-.3-.6-.2-1.5-.2-1.1-.9.1-.2.3-.3.4-.5-.2-.2-.3-.4-.3-.5 0-.2.5-1.5.6-1.9.1-.4 2.2-.4 2.3-.6.1-.1.5-1.6.8-1.9.2-.3.2-.6.3-1.1 0-.6.6-1.4.6-1.6s.1-1 .1-1-10.7-6.6-10.9-6.8c-.2-.2-.8-.1-1.1 0s-1 1.1-1.4 1.1c-.5.1-.1 1.1-.1 1.1s-.6.6-.6.8c0 .2-1.1 1.7-1.2 1.9-.2.2-.6.5-.8.8-.3.3-1.2.5-1.4.8s1.1 1.9 1.2 2.1-.4.6-.6.8c-.2.2-.7.8-.9.7-.2 0-.2.7-.3.8-.1.2-.2.4-.3.7-.1.3.1.8.2.9s0 1.3 0 1.6c0 .3 1.4 0 1.6.3.2.3.2 2.4.3 2.8.1.4.4-.3 1.5.1s2 2.9 2.4 3.5c.4.6.5.6.5 1.3 0 .6-.7 0-1.1.3-.4.2-.7.4-1.2 1s-2.7 1.6-2.9 1.8c-.2.2-.1 1.1-.3 1.4-.2.2-.7.4-.9.4-.2 0-1.9.7-2.3.7-.1.2-.7.7-1.1 1z"/><path id="US-MD" class="st0" d="M817.5 169.2c.2-.1.7-1.2 1.1-.5.2.4 1.7 1.2 1.5 1.6-.2.5-.8.9-1.2 1.4-.3.5-.6 1-.5 1.3.1.3.1.4 0 .6-.1.2-.5.3-.8.6-.3.3-.9 1.5-1.5 2.2-.6.7-1.2 1-1.2 1.4s-.2.7 0 .9c.1.3.7 0 .8.5.1.5 0 .7.3.8.3 0 .7-.2.9-.4.2-.2-.3-1.3.1-1.3s.5.6.9.3.5-1.1.7-.8c.2.3.3.3.4.8.1.6.1 1.1.5 1.6s1.1 1 1.2.7c.1-.3-.8-1.3-.2-1.2.6.1 1.5-.9 1.4 0s-.1 1.7.2 2.2c.4.5 2.5.1 2.7.7.3.5.9.8 1.2 1 .3.1.8-.9 1-.7.2.3.5.1.6.6 0 .6-.6 1.3.1 1.5s1.1 0 1.1-.4c-.1-.4-.4-1.3-.6-1.5-.1-.1-.5-.4-.5-.7-.1-.4.1-1-.2-1.3-.3-.3-1.4-.2-1.6-.5-.2-.2-.9-.5-1.6-1.4-.7-.9-1-1.4-1-2 0-.7.2-1.5.1-1.6-.1-.2-.5-1.6-.2-1.6s.9.3.8.6c0 .3 0 .5-.1 1 0 .5-.2.6 0 .8.2.2.3 1.1.4 1.3.1.2.4.1.5.5s.3.4.4.7c.1.3 1.4 1.7 2 1.6.5-.2 1.1.3.7-.6-.3-.9-1.1-1.4-1.4-2-.3-.6-1-.8-.8-2.2.2-1.5.1-2.1-.1-2.3-.2-.2-.1-.7 0-.8.1-.2.6-.7.4-1.1-.2-.4 0-1.3-.1-1.5-.1-.3-.1-1 .3-1.6s1.4.1.7-1.2c-.8-1.2-.2-1.5-.8-1.8-.7-.3-1.9-1-1.6-1.3.4-.3.8-.9 1.3-.3.6.5 1.1.7 1.1.3 0-.4-.1-1.4.1-1.4.3-.1 1.3-.4 1-.7-.3-.3-.8-.8-.4-.8.3 0 .4 0 .9.5.5.4.6.7.9.1.3-.6.3-1.2.5-.9.2.3.1.7.5.4.4-.3 1.8-.6 1.7-.9-.1-.3-.5-1.3-.2-1.6.3-.3 1.6-1.3 1.8-.9.2.4.8.8 1 .8.2 0 .4.6.1.8-.3.2-.4.3-.8.7-.4.4-1.4.8-1.4 1.1 0 .3.8.5.4.7-.4.2-.7-.3-1.1-.2-.4.1-.7.1-.9.4s-1.6 2.7-1.6 3.3c0 .7.1.9.4 1.1.3.1 1.4-.3 1.3.2-.2.5-.8 1-.7 1.3.2.3.3.4.2.6-.1.2-.4 0-.7.4-.3.4-1.3-.6-1.3.1 0 .6 1.3.7 1.3.7s.1-.7.3-.2c.2.6.5.6.7.8.2.2 1.3.1.8.5s-.9.3-1.1.7c-.2.5 1.6 0 1.4.4-.3.4-1.8.4-1.6 1.1.2.6 1.4 1.3 1.4 1.3s-.3.5.1.9c.3.4 1.6-1 1.6-.4.1.5-.2 1.9-.7 1.7-.5-.3-.8-1.4-1.3-1s-.5.7-.6 1.1c-.1.4-.5.7-.7.9-.2.2-1.1.6-1 1.1.1.6-.1 1.2.3 1.4.4.2 1.3.3 1.3.8s-.5.2.1.7c.6.5 1.3.4 1.3.6s0-.7.3-1c.4-.3 1-1.6 1-1 0 .7.5.7.7.6.2-.1 1.4-1.9.8-.7-.5 1.2-.9.8-.8 1.4 0 .5-.5-.1-.6.4-.1.5.5-.4.9.3.3.6.8.3.5.7-.3.4-1.6.1-.8.7s2.1.6 2.1 1-1.2 1.8-.8 2.3c.5.6 1.3.2 1.5.3.2.1 1-.1 1.1.1l3.2-.5c.2-.6.5-1.1.8-1.5.6-.7 1.5-1.7 1.8-2.2.3-.5.6-1.5 1.2-1.6.5-.1.3-2.1.2-2.7l-8.4-.1-.8-23.3h-52.5v9.1h.3c.1 0 1.5-1.1 1.6-1.3.1-.2.7 0 .9-.2.2-.1.2-.6.3-.7.1-.1.6-.3.6-.3s1.1-1 1.4-1.2.3-.8.6-.9c.2-.1 1 .3 1.4.4.5.2 1.5-1.2 1.8-1.5s.9-1.1 1.1-1.2c.2 0 1.6 1.1 1.8 1.2.2.1 2.6 0 2.6 0s.4-.1.6-.4c.2-.2-.5-.6-.3-.7.1-.1.9-.7 1.2-.9.3-.2.5.1 1.4.3.9.2.7-1.1 1.1-1.3.3-.2.5-.1.9.2.3.2 1.7 1.3 2 1.4.2.1 1.1 0 1.5 0 .4-.1.3.7.4 1.2.2.5.8 1.2.8 1.4.1.3.3.5.5.7.1.2.2 1.1.4 1.8.2 0 .5 0 .6.1.1.1.9.2 1.4.5.5.2 1.9 1.1 1.8 1.6-.1.4-.5.6-.6.8 0 .2 0 .8.1 1s.4.4.6.7c.2.3.7.3 1.1.4.5 0 .9.1 1.1.3l.7.7c.1.1.2.6.4.7s.9 0 1 .1c.4-.5.6-.4.8-.3z"/><path id="US-DE" class="st0" d="M845.6 178.5v-.1s.9-1.5.8-2.3c-.2-.8-.8.2-1.2 0-.4-.2.1-.5.1-1s.3-1.5.4-1.6c.1-.1.6-.3.1-.8s-1.1-.5-1.6-1.2c-.5-.6-1.2-1.9-1.3-2.5-.1-.6-.6-1.6-.9-1.9s0-3.7-.5-4.2-2.7-3.4-2.4-3.4c.2 0 .4-.7.6-.6.1-.3.1-.6.2-.7.1-.4-.5-.3-.8-.8-.3-.6 1.2-1.6 1.4-1.7.2-.2.7-1.7.7-1.9 0-.2-.5-.7-.9-.9-.4-.2-1.1-.1-1.4-.1-.3 0-.7 0-1.2.4s-1.2 1.6-1.2 1.6l.8 23.6 8.3.1z"/><path id="US-MI" class="st0" d="M704.2 86.5c.6-1 2.3-2.9 2.7-3.8.5-.9 2.1-4.1 2.7-5.4s.6-2.1 2.7-3c2-.9.5-.9.3-1.2-.2-.2-.2-1 0-1.2s1.3-1.1 1.3-1.1c0-.1-.4-.8-.2-1.1.2-.2 1.2-.9 1.7-.8.5.2.9.2.8.8s.5 1 .7.9.9-.4 1-.8-.1-1.1.1-1.4c.3-.3.6-3 .8-3.7.3-.8.6-1.5.4-1.9s-1.1-1.7-1.2-2.2c0-.6-2.2-10.5-2.2-10.9s.1-3.3-.8-4-2.9-2.7-3.4-2.4c-.5.4-.5.1-.9.6s-.5.9-.9.9-2.8 0-3.4.9-1.1.3-1.1.8c.1.5.3.7 0 1.1-.3.4-.8.1-.8.5s.2 1-.2 1.4-.8 0-1.3.6c-.5.7-.3 1.1-.8 1.3-.5.3-3.1 0-3.5-.4-.4-.4-1.1.3-1.2-2 0-2.3.7-3.3 1.6-4s2.1-.4 2.4-1c.4-.6.9-.4 1.1-.9s.5-1.5.5-1.9-1-.9.4-1.5c1.3-.6 2.2-1 2.3-1.2.2-.2.5-.8.5-1.7 0-.8 0-1.5.1-2s-.1-1-.1-1.6.7-1.1.7-1.3c0-.3 0-.4-.1-.7s-.4-.6-.3-1.1 0-1-.4-1.7-2-1.3-1.7-2.4c.3-1.1.6-2 1.1-1.6.5.5.6 1.5.9.9.3-.6.4-1.1.2-1.6-.3-.6-.6-1.1-.9-1.4-.3-.3-.8-1.4-1.1-1.9-.2-.5-.9-.9-1.5-1.1-.6-.2-2.6-.7-3.7-1.5-1.1-.7-2.8-.6-3.2-.9-.4-.3-2.6-1.5-2.6-1.5s.8-.8-.4-1.4c-1.1-.5-2.2-.4-2.7-.4s-1.4-.3-1.8-.8c-.4-.5-2.4-1.5-2.7-1.3-.3.1-2 .2-2.4.7s-.3.3-.8 1c-.5.6-2.2 1.3-1.8 2.4.4 1.1 2.3 1.7 2.3 2.2s1.1.4.2.9c-.8.5-1.5.7-1.5.7s-1-.5-1.5-.3-2.8 1.2-3.2 1.8.4 2 .1 2.8c-.2.9-1.2 2.6-1.1 3.3.1.6.2 1.2-.3 1.7s-.8 1.8-1.2 1.5-1.8 0-1.5-1.1.7-1.3.8-2.2c.1-.9-.7-1-.3-1.7.5-.8.4-.7.6-1.5.3-.8.3-2.4-.4-1.6-.7.8-2.3 1.5-2.2 1.7s-1 1.7-1.2 2.1c-.2.4-1.6.4-2 .7s-1.5 1-1.7 1.3c-.2.4-.1 2.1-.5 2.6-.4.6-1.1 0-1.3.6-.3.6.4 2.1.4 2.3s-.8 2.8-.9 3.5c-.1.8-.2 2-.9 2.8-.7.7-2.3 1.8-2.3 2.9 0 1.1.3 1.7.6 3.1.3 1.3.7 1.7.3 2.6-.5.9-2.1 1.6-1.6 2.6.6 1 1.7 5.3 2.4 6.7s1.6.1 1.5 1-.4.5-.2 1.3.7 1.1.7 2.6c0 1.4.1 2 .1 3.4s-1.2 8.4-1.6 9.4c-.3 1-.2 1.5-.8 2.2-.7.7-1.9 2.1-2 2.9s-1.4 2.6-1.9 3.3c-.3.4-1.2 1.1-2.2 1.9h28.7v1.2l18.7-.3zM645.3 24c-.5-.2-.8 0-.8-.4s-.9-1.8-.5-2.3c.4-.5.4-.7.7-1 .3-.4.6-.6.3-.9-.3-.3-1.3-.2-1.5.1-.2.3-.8.4-1.1.2-.3-.2-.6-.4-.4-.9.2-.6.9-.9 1-1.4.1-.5-.2-1.6-.1-1.8.1-.1.3-.6.3-.6s-.3-.2-.3-.5.3-.5 0-.8c-.2-.2-1.6-1.6-2-1.6s-2-.3-2.1-.5c-.1-.2-.7.2-.3-.4.4-.6.4-1 .3-1.3-.1-.3-.1-.9-.7-1.1-.6-.2-1.5-.2-1.6-.4-.1-.1-1.3-.1-1.8-.4-.5-.3-.7-.4-1.1-.2-.4.2-.6.2-.8 0-.1-.2-1-.2-1.2-.2-.1 0 .1.4-.5.1-.5-.2-.5-.2-1.1-.4-.6-.1-.4-.4-.6-.2-.3.2-.3.4-.6.1-.3-.3-.8-.2-1.4-.6-.6-.4-1.7-.7-1.9-.9-.1-.2-2.9-.7-5-1.7-2.1-1.1-4.1-1.3-5.2-1.7s-3.3-.2-4.1-.7c-.9-.5-1.5.3-1.5-.5s-.4-1.5-.6-1.9c-.3-.4-1.1-.9-1.5-1.3-.4-.3-1.2-.4-1.4-.5-.1-.1-.1-.2 0-.4.2-.1.3-.2.5-.3.3-.3 1.8-.8 2.4-.9.5-.1 1.5-.2 2-.6.5-.5 3.2-1.9 3.5-2.3.3-.4 2-.1 2.4-.1.5 0 4.7-1.3 5-1.3.3 0 1.8-.6 2.4-1.8s1.6-.1 2.1-.4c.5-.3 1.1-1.1 1.3-1.7.2-.6 1.4-.8 1.8-1.5.5-.7.8-1 1-.6.2.4.9 1.1 1.7 1.7.8.5.2.5.4 1.2.2.6.8.8.8.8s.1-.4 0-.8.9-.8.9-1.2.5-.9.4-1.7-1.3 1.2-1.6 1.1c-.3-.1-1.2-.3-1.7-1.1-.5-.9.8-1.3 2.2-2.5 1.3-1.1 3.1-1.6 4-2.1.9-.5 2-.4 2.4-.5.5-.1 2.9 0 3.5.1s-.1 1.2-.1 1.2-.9-.3-1.1-.4c-.2-.1-1.9.6-2.6.7-.7.2.1.4.6.8.4.4-2 1.6-2.6 1.8-.6.2-1.8 2.5-1.8 2.5s-1.3 1.9-1.8 2.6c-.6.7-.7 1.6-.7 2.3s-.1.7.4 1.5c.5.7.6-.4.8-.7.1-.3.5-.9.9-1.4.4-.5.6.6.9.7.2.1.1-1 1.1-2s1.3.6 2.8.7c1.5.1 4.4 1 5.3 1.6.9.6 1.6 2.7 2.4 3.4s.9 1 .9 1.2.1.7.4.9 3.9 0 4.2-.1c.2-.1 1.6.1 2.2.7.5.6 1.3.3 1.3.3l1.4-.7s1.1-.3 1.4-.1c.4.2-.2 1.6.5 1.1.6-.4.9-1 1.9-1.7 1-.8 2-.8 3-1.6s1.8-.8 2.8-.8 1.5-.2 2.2-.4c.8-.2 1.9.4 1.9.4s.6 0 1.2-.3 1.3.5 1.6.5c.4 0 1.7-.3 2.6-.9.9-.6 5.2-1.2 5.4-1 .2.2-.1 1.2-.4 1.8s0 1.6-.5 2.4c-.5.8.3.3.8.7s1.2.6 2.6.7c1.3.1 1.5-.1 2.1-.1s.5.5 1.3.6c.8.2 1-.1 1.4-.6.4-.5 1.2-.7 1.9-.1s1.4 3 1.8 3.5-.7 1-1 1.4.5.4 1 .3c.4-.1 1.3.6 1.7 1.7.4 1 1.5 1.3 1.9 1.6.4.3 1.1-.1 2.3.4 1.1.5 1-.7 1.4-1.3s.9-.7 1.1-.7c.2 0 1.6 1.4 1.8 1.6.2.2-.1.8-.4 1.4-.3.5-3.4-.2-3.9-.5s-1-.6-1.4-.6-2.5.5-3.7.4-1-.2-1.3-.3-.4-.1-1.2.1c-.8.2-1.9-.2-2.3-.5-.4-.2-1.1-.2-1.6-.1-.6.1-1.1.2-1.3.4-.2.2-.4 1.6-.3 2.3 0 .6-.3 0-.8-.3-.6-.3-1.7-1-2.2-2.1-.6-1.1-3.5-1.1-3.8-1.3-.3-.2-1-.1-2.3-.4-1.4-.3-2.2 0-2.8.4-.5.4-1.4 1.2-2.1 1.3-.6.1-3.3.3-4.5.5-1.3.2-2.3 0-2.9-.3-.6-.4-1-.6-1.7-.7-.7-.2.3.9.8 1.8s-.6 1.5-.8 2.2c-.2.7-1 .5-1.8.8-.8.3-.2.2-1 1.1-.8 1-1.4 1.6-1.6 1.2-.2-.4 1.7-2.9 2.2-3.2s-.3-.8-.3-1.2c0-.5-2.1.2-2.9.3-.8.1-.2.5-.9 1.8s-1.2 1.3-2.1.9c-.9-.5.3-2.9.3-3.6 0-.6-1.4 2.1-1.5 2.4-.1.3-.2.9-.5 1.5-.2.6-.8.5-1.1.5-.4 0-.5 1.1-1 2.2-.6 1.1-1.5 2.2-1.9 2.6-.4.5-1.1 2.5-1.5 3.1-.4.6-1 .7-1.4 1.3-1 1.1-1.3 1.1-1.4 1.4z"/><path id="US-WV" class="st0" d="M740 179.3v.2c0 .2 0 .5.3.9s.2 1.5.1 1.7c0 .2-.2.7-.3.9s-.4.4-.5.9c-.2.5 1.7 2.5 2 2.8.4.2.1.7.1.9 0 .2.5.6.9 1.2s.5 1.5 1.1 2.2c.5.7.3 1.1.8 1.6s1.1.9 1.5 1.2c.4.3.6.9.8 1.1.1.2.7-.1 1.3.1.2.1.3.2.3.3.3 0 .6.1.6.3 0 .4-.2.7.1 1.1.3.3.3.6.3.8 0 .2.8 1.9 1.4 2.3.6.4 1.4.2 1.6.5s.8.9 1.1 1c.3.1 1.5-.4 1.7-.5.2 0 .6-.5.9-.4s.6-.1.7-.2.4-.9.9-.7c.4.2 1.2 1.3 1.7 1.2.5-.1 1.6-.7 1.7-.7.1 0 1.5-.6 1.6-.5s.4.6.6.4c.2-.2.9-.8 1.2-.8.2-.1-.3-.6-.1-1 .2-.4.5-1 1-.7.4.4 1.4.6 1.5.6.1-.1.7-1 .8-1 .1 0 2-.2 2.3 0 .4.2 0 .5.4.3s1-.6 1.1-.6.8-.6.8-.8c0-.2-.7-.6-.2-1 .4-.4.8-.6.9-.6.1-.1.5-.1.4-.4s-.9-.4-.7-.9c.2-.5.4-.8.4-1.1 0-.3.2-.6.3-.8.1-.2 2.4-3.9 2.6-4 .2-.2 1-.3 1-.7 0-.4-.1-1.1.1-1.2.2-.1.4 0 .4-.4 0-.5.2-1.1.3-1.1.1-.1 2-1.6 1.7-1.9s-.3-.3-.2-.6c.1-.3.8-.9 1-1.2.2-.3.3-.8.4-.9.1-.1.6-3.1.9-3s1.3.1 1.5.6c.3.5.4 1.1.8 1.4s1.4.6 1.8.7c.5.1 1-.1 1.2-.3.2-.1.5-1 .9-1.3.3-.3.4-.2.4-.6s0-1.2.2-1.4c.3-.2.8-.5.9-.7.2-.2.3-1.3.7-1.9s.7-1.5 1-1.3c.3.2.4.4.7.7.3.3.3.7.6.5.2-.2.6-.4.6-.6.1-.2.1-.6.3-.8.2-.2.6-1.5 1-1.3.4.2.6.4.8.2.3-.2.6-.5.6-.5s1.8-2.5 2-2.8c.2-.2.5-.1.7-.3.2-.2.6-.7.6-1 0-.4.1-2.6.3-2.7.2-.2.6-.3.5-.8-.1-.5.1-1.2.2-1.1.1.1 1.2.2 1.4.5.3.3 1.5 1.3 2 1.6.5.4 1.3 1.2 1.6 1.4.3.2.9.5 1 .7.2.2.6.4.8.8.2.3.4.1.5-.1.1-.2.1-.7.2-1.1.2-.4.5-1 .7-1.2.2-.3.1-.9.2-.9h.1c-.2-.6-.3-1.6-.4-1.8-.1-.3-.4-.5-.5-.7-.1-.3-.7-.9-.8-1.4-.2-.5 0-1.3-.4-1.2-.4.1-1.3.2-1.5 0-.2-.1-1.6-1.2-2-1.4-.3-.2-.5-.3-.9-.2-.3.2-.2 1.4-1.1 1.3-.9-.2-1.1-.4-1.4-.3-.3.2-1.1.7-1.2.9-.1.1.5.5.3.7-.2.2-.6.4-.6.4s-2.4.2-2.6 0c-.2-.1-1.7-1.2-1.8-1.2-.2 0-.8.9-1.1 1.2-.3.3-1.3 1.6-1.8 1.5-.5-.2-1.2-.6-1.4-.4-.2.1-.3.7-.6.9-.3.2-1.4 1.2-1.4 1.2s-.5.2-.6.3c-.1.1-.1.6-.3.7s-.8-.1-.9.2c-.1.2-1.5 1.3-1.6 1.3h-.3v-9.1h-14.3v-16.9s-.6.4-.7.4-1.4-.1-1.5.1c0 .2-.1 1 .1 1.2.2.2.2.3.3.4 0 .1.5 1.4.3 1.6-.2.2-.6.4-.5.6.1.2.9.7.5 1.5s-.9 1.5-.9 1.9-.2.5-.3.8-.8 3.3-.9 3.7c-.2.4-1.9 3.4-1.7 3.7.2.4.5.4.5.9 0 .4-.2.7-.2 1 0 .2.2.9-.2 1s-.6 0-.8.2l-.8.8c-.2.1-.9.2-1.4.9-.5.8-.2 1.3-1.3 1.8s-1.7 1.2-2.2 1.2-.2-.5-1.1-.8c-.9-.3-.6.1-1 .4-.4.3-1.2.1-1.2.8.1.7.3 1.1 0 1.1-.3-.1-1.7-.3-1.9.2s-.6.5-.7 1.1-.2 1.9-.3 2.1c-.1.2-.5 0-.5.3s.2.9.2 1.1c.1.2.6 1.2.3 1.4-.3.2-.5.3-.7.1-.1-.2-.4-.3-.4-.1 0 .2-.1.7-.1.7s-.4.5-.6.5c-.2 0-1 .3-.9-.1.2-.4.5-.5.4-.9-.1-.4-.7-1.9-1.2-1.7-.5.3-1.2.8-1.5 1.4-.3.5-.5.9-.5 1.1s-.1.8-.3 1.1c-.2.3-.5.3-.6.5s-.3.4-.2.6.3.4.3.6c0 .3.4 1.9.3 2.1-.1.1-.9 0-.9.3-.1.2-.4.3-.5.6 0 .3-.3 1.2-.3 1.3-.1.1-.1 1.3-.6 1.3-.4 0-1.6 0-1.8.2-.2.2-.8.3-1.3.3.4-.5.2-.5.1-.5z"/><path id="US-VA" class="st0" d="M832.6 213.3c.3-.5.7-.8.8-1.5.1-.8.5-2 .3-2.5s-.4-2.1-.9-2.5c-.5-.3-.8 0-1.1-.1s-1.5-1.1-2.1-.6c-.6.5-1 1.6-.8 1.8.2.3.1.5-.9-.2s-.6-.5-.9-.3-.6.4-.8.4c-.1.1-.6.6-.7 0s0-1 .1-1.2c.1-.2.2-.7-.2-1.1-.3-.4-1.3-.9-1.7-1.4-.4-.5-.4-1.4-.8-1.6-.3-.2-1.6-1.3-2.1-1.4s-1.6-.1-1.9-.6c-.3-.5-.4-.5-.6-.5s-.5-.1-1.2-.1-2-.1-2.1-.4c-.1-.3-.9-.7-.4-.9.5-.2 1.2 0 1.4.1.2.2.9.2 1 .2.1 0 .3-.7.7-.3.4.4.3.5.6.5s1 0 1.3.4.1 1.3.5.8c.3-.5.3-1.3.7-1.1.3.3.5.6.5.8 0 .3.4.1.9.3.5.2.6.4.7.4.1 0 .1-.1.7-.3.6-.2 1.1-.1 1 .2 0 .2 0 .7.1 1.1s-.1.7.6 1.3c.7.6 1.7 1.3 1.9 1.6.1.3.1.5.4.4.3 0 .2 0 .5-.1.4 0 .7.2.6-.3 0-.5-.8-.8-1-1.3s-.1-.8.1-.9c.2-.1.3-.4.1-.6-.3-.2-.5-.2-.7-.4-.2-.2.1-.2-.5-.5-.6-.2-.8-.5-1.1-.8-.3-.2-.4-.3-1.1-.8-.6-.4-.9-.4-1.1-.8-.2-.5-.4-1.1-.6-1.4-.3-.3-1.2-1.1-1.2-1.1s-.3-1-.1-1.1c.2-.2.4-.5.6 0 .2.4.7.4.8.6 0 .2.1.2.3.6.2.4.2.4.7.9s.5.5.6 1c.1.4.5.3.8.8s.4.9.7 1c.3.1 1.3.4 1.2-.1-.1-.5-.7-.7-.8-.9-.1-.2-.1-.9.2-1.4.3-.5-.2-.5-.2-.8s.3-.2.5-.1c.3.1.6 0 .7.3.1.3 0 .6.1.7.1.1.6-.4.7.2.1.6-.1.8.2.8.3 0 .2.3.6-.3.4-.6.2-1.3-.1-1.7-.3-.4-.4-.5-1.1-1.2s-1-.9-1.2-1.5.4-.8-.5-1-1.5-1.1-2.4-2.1c-.8-1-2-1.5-2.1-1.8s-1.1-.8-1.4-1.3c-.3-.5-.7-1.1-.7-1.3 0-.2.1-1-.5-1.3-.6-.3-1-.4-1.3-.6-.3-.2-1.1-.6-1.1-.9s0-.8.3-.4.5.1.8.6.2.6.6.7c.5.1 1.1.2 1.4.6s.3 1.2.6 1.6c.3.4.4.3.8.8.3.5 1.3 1.4 1.6 1.6.3.3.9.4 1.2.7.2.3.6.3.6.8s.1.8.4 1.2c.3.4.7.3 1.1.4.5.1 1-.2 1 .2 0 .3-.2.4 0 .6.3.2.2.4.5.1.2-.4.3-.4.4-.9s-.1-1.1.1-1.2c.3-.2.4-.2.2-.4s-.6-.1-.5-.7c.1-.6 1.2-.6 1.4-.7.1-.1.1-.5 0-.6-.1-.1-.4-.7-1.5-1.2s-1 .2-1.8-.5c-.8-.6-1.3-.9-1.4-1.3-.2-.4-.4-1.3-1.1-1.3-.8 0-2.1-1.1-2.7-1.2-.6-.1-2.1-1.3-2.1-2 0-.6 0-.9-.3-1.2-.3-.4-.6-.4-.8-.2-.3.1-1.6.8-1.8.8-.1 0-1.8.2-1.8-.4 0-.5.2-1.3.2-1.6 0-.3-.1-1.4.2-1.7.3-.3 1.6-2.2 1.9-2.6.3-.5 1.5-.9 1.5-1.3 0-.5.1-2.1-.1-2.4s-.9-1.5-.7-1.6c-.2-.1-.4-.1-.4-.2-.1-.1-.7.1-1-.1-.2-.1-.3-.6-.4-.7s-.5-.6-.7-.7c-.2-.2-.6-.2-1.1-.3-.5 0-.9-.1-1.1-.4s-.5-.5-.6-.7c-.1-.2-.1-.8-.1-1s.4-.4.6-.8c.1-.4-1.3-1.4-1.8-1.6s-1.2-.4-1.4-.5c-.1-.1-.7-.1-.8-.1-.1 0 .1.7-.2.9-.2.3-.5.8-.7 1.2-.2.4-.1.9-.2 1.1s-.3.4-.5.1-.6-.6-.8-.8c-.2-.2-.7-.5-1-.7s-1.1-1.1-1.6-1.4c-.5-.4-1.7-1.4-2-1.6-.3-.3-1.3-.4-1.4-.5s-.3.6-.2 1.1-.4.6-.5.8c-.2.2-.3 2.3-.3 2.7 0 .4-.5.8-.6 1-.2.2-.5.1-.7.3-.2.2-2 2.8-2 2.8s-.3.3-.6.5-.4 0-.8-.2-.9 1.2-1 1.3c-.2.2-.2.6-.3.8-.1.2-.4.4-.6.6-.2.2-.3-.2-.6-.5s-.4-.5-.7-.7-.6.7-1 1.3c-.4.6-.5 1.7-.7 1.9-.2.2-.7.5-.9.7-.3.2-.3 1.1-.2 1.4 0 .4-.1.3-.4.6-.3.3-.7 1.2-.9 1.3-.2.1-.7.3-1.2.3-.5-.1-1.5-.4-1.8-.7-.4-.3-.5-.9-.8-1.4-.3-.5-1.3-.5-1.5-.6-.3-.1-.8 2.9-.9 3s-.2.6-.4.9c-.2.3-.9.9-1 1.2-.1.3-.1.3.2.6.3.3-1.6 1.8-1.7 1.9-.1.1-.3.7-.3 1.1 0 .5-.3.3-.4.4-.2.1 0 .8-.1 1.2 0 .4-.8.6-1 .7-.2.2-2.5 3.8-2.6 4s-.2.5-.3.8c0 .3-.3.6-.4 1.1-.2.5.6.6.7.9.1.3-.2.4-.4.4-.1.1-.5.2-.9.6-.4.4.2.8.2 1s-.7.8-.8.8-.7.4-1.1.6-.1-.1-.4-.3c-.4-.2-2.3 0-2.3 0-.1 0-.8.9-.8 1-.1.1-1.1-.2-1.5-.6-.4-.4-.8.3-1 .7-.2.4.3.9.1 1s-.9.6-1.2.8c-.2.2-.5-.3-.6-.4-.1-.1-1.5.5-1.6.5s-1.3.6-1.7.7c-.5.1-1.3-1-1.7-1.2-.4-.2-.8.6-.9.7-.1.1-.4.3-.7.2-.3-.1-.8.3-.9.4-.2 0-1.4.6-1.7.5-.3-.1-.9-.7-1.1-1-.2-.3-.9-.2-1.6-.5-.6-.4-1.5-2.1-1.4-2.3 0-.2-.1-.5-.3-.8-.3-.3-.1-.6-.1-1.1 0-.2-.3-.3-.6-.3 0 .2-.3.4-.2.5 0 .2-.5.6-.6.8-.1.2-1.6 1.2-1.9 1.5-.3.3-.8 1-1.1 1.4-.2.4-.9.8-2.1 1.2-1.2.4-2.8 1.6-3.3 2.2s-.2.5-.6 1.4c-.3.9-1.1.8-1.5 1.1-.4.3-.8 1.9-.8 1.9s-2.3.6-2.7.6-1.3 2-1.6 2c-.2 0-1.1.5-1.5.3-.4-.2-.8.4-1.1.4s-2 .6-2 .6l-2.2 1 27.7.4 11.5.9 68.3.6zm5.7-26.3l3.2-.5c-.2.5-.3 1-.2 1.3.1.7-.3 1.5-.5 1.7-.2.3-1.6 3.6-2 4.5-.3.9-.8 1.1-.8 1.1s-.5.2-1.1.5c-.6.3-1.7 4.1-1.7 4.1s-.6 1.9-.9 2.4-.9-.3-1.3-.9.1-1.2.4-2 .8-3.9 1.1-5c.2-1.2 2.1-3 2.4-3.6s.7-.6.3-1.3c-.4-.8.9-1.3 1.2-2 0-.1 0-.2-.1-.3z"/><path id="US-IN" class="st0" d="M100.8 3.4c-5.2 4-10.9 8-14.3 10.3-6.3 4.6-18.9 4.6-24 3.4-5.2-.6-13.2-.6-16-6.3-.6-1.1-1.1-2.3-1.7-4v250.6s-2.9.6-4 .6c-1.1-.6-1.1 2.9-2.9 2.9-1.1 0-.6 5.7-.6 6.9 0 1.7 1.7 6.3 1.7 8 0 1.7-4.6 4.6-5.2 5.7-.6 1.1 1.1 2.3 2.3 4 1.1 1.7 1.1 4.6 1.1 4.6s2.9 6.3 5.7 8c2.3 2.3 0 5.2 0 6.3 0 .6-1.1 4.6-1.1 6.3 0 1.7 1.1 5.2 2.9 9.2 2.3 4-.6 6.3-.6 8 0 2.3-3.4 2.3-4.6 2.3-.6 0-1.7 1.1-2.9 2.3-1.1 1.1-2.9 13.2-3.4 13.7 0 .6-3.4 3.4-5.2 4-1.7.6-2.9 6.3-5.2 9.2-2.9 2.9-4.6 5.7-4.6 8.6-.6 2.9-5.2 1.7-5.2 1.7s-4 4.6-4.6 6.3c-.6 1.7 1.7 5.7 2.3 8 .6 2.3-4.6 6.9-5.2 8-1.1 1.1-2.3 14.3-2.3 15.5 0 1.1-2.9 5.2-3.4 7.4-.6 1.7 2.3 4.6 3.4 6.3 1.1 0 2.9 0 4 .6 2.3 1.1 3.4.6 4 .6s1.1-1.1 1.7-1.7c1.1-.6 0-3.4 0-4s0-7.4 2.3-8c2.3-1.1 4 3.4 4.6 4 .6.6 4 1.1 5.2.6 1.1-.6 4-1.1 5.7-.6 1.7.6 2.3 3.4 2.9 5.2.6 1.1 1.7-1.1 2.3-2.3 0-.6-1.1-3.4-.6-5.2.6-1.7 1.1-3.4 1.7-4 .6-.6 2.3 1.7 2.9 1.7.6 0 7.4 1.1 7.4 1.1s2.9-3.4 3.4-4c.6-.6 2.9 1.1 6.3 4.6 3.4 3.4 13.7 4.6 16 6.3 2.3 1.7 4 5.2 5.7 5.7 1.1.6 2.9-2.9 4-7.4 1.1-4 4.6-5.2 5.7-7.4 1.1-2.3 5.7-1.1 7.4-2.3 1.7-1.1 2.3-2.3 5.2-4 2.3-1.7 1.7 1.1 1.7 1.1h1.1l2.3 4.6c1.1 1.1 4.6 4 4.6 4l3.4 2.3s2.3-1.1 2.9-2.3c.6-1.1 4-1.7 5.2-1.7 1.1-.6 2.3-9.2 3.4-10.9.6-2.3 4.6-1.1 6.3-2.3 1.7-1.1 2.3-5.2 2.9-6.9.6-1.7 3.4-4 4.6-5.2 1.1-1.1 4-.6 5.7 1.7 1.7 2.3 0 5.7 1.1 9.2s12 3.4 14.9 6.3c2.9 2.9 2.9.6 7.4 0 4.6-.6 6.9-5.2 7.4-6.3.6-1.1-1.1-7.4-.6-9.7.6-2.3 2.3-2.9 4.6-5.7 2.3-2.3 0-6.3 1.7-9.2 1.1-2.3 6.9 2.9 10.3 1.7 3.4-1.7 5.2-6.9 7.4-9.2 2.3-2.3 0-6.3 0-9.7-.6-3.4 13.7-8 14.9-8.6 1.1-.6 2.9-2.9 4-4.6s-2.9-4.6-2.3-7.4c.6-2.9-.6-2.9-.6-3.4s-1.7-2.9-2.3-5.2c0-2.3 6.9-1.1 12-3.4 5.2-1.7 8 4 9.7 4 1.7.6 5.7-.6 8-3.4 1.7-2.3 3.4-1.7 5.7-2.9 2.9-.6 4-1.1 5.2-3.4 1.1-1.7 5.7-1.1 9.2 0 2.9 1.1 3.4-1.1 4-1.7.6-.6-.6-5.7 1.7-7.4 2.3-1.7-4-2.3-5.2-4-1.1-1.7-1.7-.6 0-4s.6-5.7 0-6.9c-.6-1.1-1.1-1.7-1.7-3.4-.6-1.7.6-1.7 1.7-2.9.6-.6.6-1.1 1.1-1.7L267.9 0 100.8 3.4z"/><path id="US-KY" class="st0" d="M663.3 190.4c.1.1.1.2.1.2.2.4-1.1 1.1-1.5 1.4-.3.3-.6 1.6-.5 1.8.1.2 1.1 1.5 1.3 2 .2.4-.5.5-.7.6-.2.1-1.5.3-2 .2-.5-.1-.5-.3-1.1.7s-1.5.4-2.1.9c-.6.5-.2 1.5 0 1.9.1.4.6 1.2.9 1.8.3.6.1 1-.9 1.8s-1.6-.6-1.8-.8c-.2-.2-.7-.1-1.3-.5s-1.2-.5-1.8-1c-.6-.5-2.2-.3-2.6-.3-.5-.1-.9.8-1 .9-.1.2-.2.7-.1.8 0 .2-.1.2-.4.4-.2.1-.6.8-.9 1.2.4.3.9.7 1.1 1 .4.4.1 1.5 0 1.7-.1.1-.6.5-.6.7s0 .1-.2.6c-.1.5.5.3.6.7.1.4-1 .6-1.3.7-.3.2.1.8.4 1.3.3.5-.3 1.6-.5 1.8-.2.1-1-.5-1.5-1.1-.5-.5-1.2 1.6-1.5 2.2l19.6.1v-3l62.3.9 2.2-1s1.7-.6 2-.6.7-.6 1.1-.4c.4.2 1.3-.2 1.5-.3.2 0 1.2-2 1.6-2s2.7-.6 2.7-.6.4-1.6.8-1.9 1.2-.2 1.5-1.1.1-.8.6-1.4c.5-.5 2.1-1.7 3.3-2.2 1.2-.4 1.9-.8 2.1-1.2.2-.4.8-1.1 1.1-1.4.3-.3 1.9-1.3 1.9-1.5.1-.2.6-.7.6-.8 0-.2.6-.5 0-.7-.6-.2-1.2 0-1.3-.1-.1-.2-.4-.8-.8-1.1-.4-.3-1-.7-1.5-1.2s-.3-.9-.8-1.6-.6-1.6-1.1-2.2c-.4-.6-.9-1-.9-1.2s.2-.6-.1-.9c-.4-.3-2.2-2.3-2-2.8s.4-.7.5-.9c.1-.2.3-.7.3-.9 0-.2.1-1.3-.1-1.7-.3-.4-.3-.7-.3-.9 0-.2.2-1.1-.1-1.4s-.9-1.1-1.2-1.4c-.3-.3-1.2 0-1.4-.3-.2-.3-.8-.5-.9-.8 0-.3.1-1 0-1.2s-.4-.7-.4-.9c0-.2 0-.5-.1-.5s-.5 0-.7.2c-.2.3-.7.3-.9.4-.2.1-1.1.7-1.3 1.1-.3.4-.3.6-.6.6s-1.7.1-2 .3c-.3.1-.4-.4-.8-.5-.3-.1-3.2-1.4-3.5-1s-.7 1.6-1.2 1.3c-.5-.3-1.6-1.1-2-1.6s-1.7-1.2-1.8-1.3c-.1 0-1.8.3-2.2.1-.4-.2-1.7-.6-1.8-.8-.1-.3.1-1.4-.1-1.7-.2-.3-.6-.8-.6-1s0-.8-.2-.9-.2-.3-.4-.3c-.3-.1-.9.1-1.1-.2-.2-.3-.2-.4-.4-.8-.2-.3-.3-.5-.4-.4-.2.1-.5.3-.6.4-.1.1-1 .4-1.2.4-.2-.1-.6.2-.9-.1-.3-.3-.6-.8-.7-.9s-.4-.3-.6-.1c-.2.2-.6.3-.8.4-.1.1-.4.5-.6.7s-.4.2-.3.5.3.4.3.6c.1.2.4.6 0 1.2s-.3.4 0 .7c.2.3 1.3.3.9.7-.4.3-.2 1.2-.3 1.3-.1.1-.1.5-.7.3-.5-.2-1.4-.3-1.6 0s-.4.4-.9.6c-.5.1-.7 0-1 .5-.3.4-1.1.6-1.4.6-.3-.1-.8-1-1.7-.7s-2.1.2-2.1.6.3.8.4.9c0 .1.2.1.1.6s.6.9.4 1.3c-.2.3-.4.7-.7.8-.2.1-2.7.9-2.6 1.5.1.6.5 1.3 0 1.7-.4.4-.7 1.3-1.3 1.6-.6.3-1.6-.7-1.8-.3-.2.4.1 1.1-.3 1.6-.4.4-.7.6-.8 1-.1.4.2 1.5.1 1.7s-.5 1-1.3 1.1-.8.5-1.3 0-2.4-.5-2.6-1.1c-.2-.6.2-1.2-.2-1.6-.3-.4-.8-.5-1-.3-.2.2-.8.6-.8.9-.1.3-.2 1-.5 1.2-.3.3-1 0-1.1.4s-.3 1.9-.6 1.9c-.2.1-.8.2-.9.3-.1.2-.5.4-.5.4l-.6-.4s-.6-.6-.8-.7c-.2-.2-.4-.8-.4-.8h-.2s.2-.5-.3-.2c-.4.3-.6.5-.9.7-.3.2-1.1 0-1.3.4-.2.4-.8.5-1 1.3-.2.7-.4 1.3-.7 1.3-.2-.1-.5-.7-1-1-.4-.3-2.2-.6-2.8-1.1-.6-.5-1-.8-1.1-.8-.1.1-.6.7-.6.7s-1.1-.2-1.3-.2c-.1 0-.4-.4-.5-.3-.1.1-.3.4-.3.7-.1.3.2.8.1.9 0 .1-.2.6-.4.4-.1-.2-.2-.7-.5-.9-.3-.1-.8 0-1 .1-.2.1-.8.1-.9-.1-.1-.1-.4-.9-.8-.7-.3.2-.4 1.4-.4 1.4 0 .1.1.6 0 .7-.2.1-.2.3-.3.3s-.4.1-.7-.1c-.1-.8-.4-.8-.6-.9z"/></svg>