<svg id="Layer_1" xmlns="http://www.w3.org/2000/svg" viewBox="0 0 306 454.6"><style>.st0{fill:none;stroke:#555}</style><path id="US-ID" class="st0" d="M57.2 0H8.1c0 18.4-.4 161.7 0 162.4.4.7 1.4 2.1 1.8 3.2.4 1.1-2.1 2.1-2.1 3.5s1.8 3.5 2.1 3.9c0 .4 1.8 2.5 2.5 3.2.7.4.4 3.5.4 3.9 0 .4.7 2.1 1.4 3.9.7 1.4-1.4 3.9-2.5 4.6s2.5 2.8 3.5 3.9.4 2.5.4 2.5l.7 1.1s1.1 3.2 1.8 5.3c.7 2.1 5.6 4.6 7.1 5.3s3.5 2.8 6 2.5c2.5 0 2.5 2.8 3.5 4.6 1.1 1.8 1.8 3.9 2.5 6 .4 2.1-1.8 3.9-2.5 4.2-.7.4-4.9 9.2-6 11.6-1.1 2.1-1.8 5.6-2.5 6.7s-.7 3.5-.7 4.6-1.1 2.8-2.1 4.2c-1.1 1.4-2.8 3.2-3.2 3.9-.4 1.1-1.8 2.5-2.8 3.5-.7 1.1.7 1.1 1.8 2.8 1.1 1.8-6 11.6-6.7 12.4-.4.7-2.8.7-3.9 1.4-1.1.4-2.5 7.1-2.8 8.1-.7 1.1-2.5 2.8-2.8 3.9-.4 1.1-.7 2.8-.7 3.2-.4.4-2.1 1.4-2.1 1.4v12.4c0 .8.7 2.1 1.4 2.5.7.4 2.8.4 3.9 0 1.4-.4 1.4 1.1 2.1 1.4.7.7 1.1-.4 1.4-.4.4 0 5.3 4.2 5.6 4.9.7.7 1.4 1.8.7 2.1-.4.4-.7 1.4-1.1 2.5-.4.7-2.1 1.8-3.2 1.8s2.5 3.5 2.5 3.9c0 .4-.7 1.4-1.1 1.8-.4.4 0 3.9-.4 4.9 0 1.4-2.1 3.9-2.1 3.9s-1.4 2.8-2.5 3.5 1.4 1.4 1.4 1.4l-.3 116 147.2.4H306V293.3s-3.5-1.4-4.2-2.5c-.7-1.1-1.1-2.1-2.1-2.8s-3.2-2.1-3.2-2.8c-.4-.7 0-2.1-1.1-3.2s-1.8-1.8-2.1-2.5c-.4-1.1 0-2.1-1.1-2.5-1.1 0-2.1-2.8-3.5-1.4-1.4 1.1-3.5 2.1-3.5 2.8s.4 2.5-1.1 3.5c-1.1 1.1-2.1 2.8-1.4 3.5.7.7 2.5 2.1 2.5 2.5s-1.1 1.4-1.8 1.8c-.7.4-2.5.4-2.8-.4-.4-.7-.7-1.4-1.8-1.4-1.4 0-6.4.7-6.7 1.1-.4.4-3.5 1.8-4.2 1.4-.7-.4-6-2.1-6-2.1s-2.1 1.8-2.8 1.4c-.7-.4-.7-1.8-1.4-1.1s-2.1 1.8-3.2 1.1c-1.1-.4-4.2-2.5-5.3-1.8-.7.7-.4 2.5-1.4 1.8-1.1-.7 0-1.4-1.1-1.4s-2.8 1.4-3.2 1.4c-.4 0-.4.4-1.4 2.8-1.1 2.5-.4 3.5-4.2 2.5-3.9-1.1-4.6-2.5-8.5-2.5-3.5 0-7.8-1.4-9.9 1.1-2.1 2.5-3.2 7.8-3.5 7.1-.7-.7-2.8-3.9-4.6-4.9-1.8-1.1-4.6-2.5-4.6-3.2s3.5-1.8 1.4-2.8c-1.8-1.1-3.5-2.1-3.5-2.8s.4-2.5.7-3.2c.4-.7-1.4-3.2-2.1-4.6-.7-1.4-5.3-8.8-7.4-7.8-2.1 1.1-3.5 3.9-4.2 2.5-.7-1.4-3.9-4.6-4.9-4.9-1.1-.7-2.1-2.8-1.8-4.6.4-1.8 2.8-2.8 2.8-3.9-.4-1.4-2.5-2.5-2.8-4.6-.4-1.8.4-3.2-2.1-3.5-2.5-.7-6.7-5.6-6.7-5.6s-2.8-11.6-3.9-12.7c-1.4-1.1-3.5-2.1-2.8-3.2.7-.7 3.5-1.1 1.8-3.2-2.1-2.1-3.5-3.9-3.5-5.3s-.4-2.8-1.4-2.8c-.7 0-3.5-6.4-6-4.2-2.8 2.1-4.6 3.9-6 6-1.4 2.1-4.9 3.2-4.9 3.2s-4.6.7-5.3 2.5-2.8 1.1-3.9 0c-1.1-1.4-8.8-3.9-8.5-5.3 0-1.4 1.8-5.3 1.8-5.3s-4.2-4.9-2.1-7.1c2.1-2.1 2.1-3.9 3.2-4.2.7-.4 3.9-1.8 3.9-2.8.4-1.1 1.4-6.4.4-7.1-1.1-.7-3.2-.4-3.2-2.1 0-1.8.7-4.2.4-4.9-.4-1.1-1.4-2.5-1.1-3.2.4-.7 1.8-1.4 1.8-1.8 0-.4-1.8-4.6-.4-6 1.4-1.1 2.5-3.9 2.5-5.3s-.7-3.5.4-3.9c1.1-.4 1.1-2.5 1.1-3.9s-2.5-1.8-1.1-2.5c1.8-.7 3.5 0 3.2-2.1-.4-2.1-1.4-4.2 0-4.9 1.1-.4.7-3.5 0-3.9-1.1-.7-4.9.7-5.3 1.1-.4.4-2.5 0-2.5 0s-7.4 1.1-7.4.4.4-4.6-1.1-6c-1.4-1.4-4.2 1.8-4.2 1.8s-1.8 1.4-1.4 0c.4-1.4 1.8-2.8.4-3.2s-3.5-1.4-4.2-2.5c-1.1-1.1-3.9-1.8-3.9-2.8s.4-4.2 0-4.6c-.4-.4-10.9-9.2-11.6-10.9-.7-1.8-.7-2.8-1.4-3.5-.4-.7-4.2-1.8-4.9-3.2-.7-1.1-.7-3.9-1.8-5.3-1.4-1.1-7.4 0-8.1-1.1-.7-.7-3.9-6-4.6-6.7-1.1-.7-6.7-2.5-5.3-3.9 1.4-1.4 1.8-1.1 1.1-2.8-.7-1.4-4.2-4.6-2.8-4.9 1.1-.4 2.1-1.8 2.5-2.5 0-.7.4-2.5-.7-3.5-1.1-1.1-2.8-3.5-3.9-5.3s-2.8-2.8-2.8-3.9.4-2.5 0-2.8-3.2-.4-3.5-.7c-.4-.4-1.1-1.8-1.4-2.5-.4-.7-1.1-2.8-2.1-3.5-.7-.7-3.9-3.2-3.9-3.2l-.4-.4L57.2 0z"/></svg>