<svg id="Layer_1" xmlns="http://www.w3.org/2000/svg" viewBox="0 0 306 469.6"><style>.st0{fill:none;stroke:#555}</style><path id="US-NV" class="st0" d="M153.4 0H0v202.2l275.8 267.4c.4-.4 1.1-1.5 1.1-1.8 0-.7 1.1-2.2.7-2.9-.4-.7-1.8-2.9-.7-3.6 1.5-.7 3.3-1.1 2.9-1.8 0-.7.4-5.8-.4-6.2-.7-.4-1.1-1.1-1.1-1.1s-.7-5.5-1.5-9.8c-.7-4.4-1.8-5.1-1.8-8 0-2.9 1.1-6.6 1.1-6.6s-1.8-4.4-1.8-4.7c-.4-.4-1.1-8-.7-9.1.7-1.1 1.1-1.8.7-2.9-.4-1.1-3.6-3.6-3.3-7.3 0-3.6 2.2-8.4 2.9-8.4.7 0 8.7-4.4 9.5-2.6.7 1.5 2.6 3.3 3.6 2.6s4.4-1.5 4.4-.7c.4.7 3.3 8.4 5.8 7.7 2.9-.7 5.1 0 4.7-2.2-.4-2.2.4-4.4.7-4.7.7-.4 1.8-2.2 2.2-2.9.4-.4 1.1-1.8 1.1-1.8L305.7.7 153.4 0z"/></svg>