<svg id="Layer_1" xmlns="http://www.w3.org/2000/svg" viewBox="0 0 360.4 463.1"><style>.st0{fill:none;stroke:#555}</style><path id="US-AZ" class="st0" d="M4.2 349.6c.4 0-1.3 2.7-1.8 4.9-.4 1.8-3.1 1.3-2.2 4.4.9 3.1.9 10.2.9 10.2s4-.4 9.8 2.2 224 91.8 224 91.8H360V0H45.9v64.8s-.9 1.8-1.3 2.2-1.8 3.1-2.7 3.5c-.9.5-1.4 3.1-.9 5.8.4 2.7-2.2 1.8-5.8 2.7-3.5.9-7.1-8-7.1-9.3-.4-.9-4 0-5.3.9s-3.5-1.3-4.4-3.1c-.9-1.8-10.6 3.1-11.5 3.1-.9 0-3.5 5.8-3.5 10.2s3.5 7.5 4 8.9c.4 1.3 0 2.2-.9 3.5-.9 1.3.4 10.6.9 11.1.4.4 2.2 5.8 2.2 5.8s-1.3 4.4-1.3 8 1.3 4.9 2.2 9.8c.9 5.3 1.8 12 1.8 12l1.3 1.3c.9.4.4 6.7.4 7.5s-2.2 1.3-3.5 2.2c-1.8.9 0 3.5.9 4.4.4.9-.9 2.2-.9 3.5 0 .4-.9 1.8-1.3 2.2l.4.4.4 11.1s3.1 2.7 6.2 7.1c3.5 4.4 5.8 6.7 5.8 8 0 1.8-.4 2.2.4 4.4.9 2.2 1.3 2.2 1.3 3.1.4.9 2.2 3.5 2.2 5.3s.9 6.2.9 6.2 5.3 2.7 6.2 3.5c1.3 1.3 7.5 5.3 7.5 6.2v2.7c0 .5-1.8 4.4-3.5 6.2-1.8 1.8-12.4 9.8-13.3 11.1-.9 1.3.4 4.9-.9 5.8-1.3.9-5.8 4-6.2 6.7 0 3.1 4.4 16.9 2.7 18.6-1.8 1.3-4.4 3.1-4.9 4 0 1.3-.4 10.2-.9 10.6-.4.4-3.5 4-3.5 4.9 0 1.3-3.5 4.9-3.5 4.9s-3.1-.9-2.7.9c.4 1.8 1.3 2.2.9 3.5-.4.9-2.2.4-1.8 2.2s4 4.4 4 4.4-1.8 1.8-.9 2.7c.4.9 1.3.9 1.3 3.1S3.8 313 4.6 317s2.2 4 4.9 5.3c2.7 1.3 6.7-.9 6.7 1.3s0 3.1.9 4c.9.9 1.3 0 1.3.9s0 8.9-.9 10.2c-.9 1.3-2.7 2.2-2.7 3.1s0 3.5-2.2 4.4c-1.8.9-9.3.4-9.3 1.3 2.2 1.2 1.3 1.6.9 2.1z"/></svg>