<svg id="Layer_1" xmlns="http://www.w3.org/2000/svg" viewBox="0 0 360.4 181.1"><style>.st0{fill:none;stroke:#555}</style><path id="US-ID_1_" class="st0" d="M360.4 0H0v38.8l.2.2s1.9 1.5 2.3 1.9c.4.4 1.1 1.7 1.3 2.1.2.4.6 1.3.8 1.5.2.2 1.7.2 2.1.4.2.2 0 1.1 0 1.7S7.9 48 8.5 49s1.7 2.3 2.3 3.2c.6.6.6 1.7.4 2.1 0 .4-.8 1.3-1.5 1.5-.6.2 1.3 2.1 1.7 3s.2.8-.6 1.7c-.8.8 2.8 1.7 3.2 2.3.6.4 2.5 3.6 2.8 4 .4.4 4.2-.2 4.9.6.8.6.6 2.5 1.1 3.2.4.6 2.5 1.5 3 1.9s.4.8.8 2.1c.4 1.1 6.8 6.4 7 6.6.2.2 0 2.1 0 2.8 0 .6 1.9 1.3 2.3 1.7.4.4 1.9 1.1 2.5 1.5.8.2 0 1.1-.2 1.9-.2.8.8 0 .8 0s1.7-1.9 2.5-1.1.6 3.2.6 3.6 4.5-.2 4.5-.2 1.3.2 1.5 0c.2-.2 2.5-1.1 3.2-.6.6.4.8 2.1 0 2.3-.6.2 0 1.7 0 3 .2 1.3-1.1 1.1-1.9 1.3-1.1.4.6.6.6 1.5s0 1.9-.6 2.3c-.6.2-.2 1.5-.2 2.3s-.6 2.5-1.5 3.2c-.8.6.4 3.2.2 3.6 0 .2-.8.6-1.1 1.1-.2.2.4 1.3.6 1.9.2.6-.2 2.1-.2 3 0 1.1 1.3.8 1.9 1.3.6.4 0 3.6-.2 4.2-.2.6-1.9 1.3-2.3 1.7-.4.2-.4 1.3-1.9 2.5-1.3 1.3 1.3 4.2 1.3 4.2s-1.1 2.3-1.1 3.2 4.7 2.3 5.1 3.2c.6.8 1.9 1.3 2.3 0 .4-1.1 3.2-1.5 3.2-1.5s2.1-.4 3-1.9c.8-1.3 2.1-2.3 3.6-3.6 1.7-1.3 3.2 2.3 3.6 2.5.4 0 .8.8.8 1.7s1.1 1.9 2.1 3.2c1.3 1.3-.4 1.5-1.1 1.9-.4.4.8 1.3 1.7 1.9.8.6 2.3 7.6 2.3 7.6s2.5 3 4 3.4c1.5.4 1.1 1.1 1.3 2.1.2 1.1 1.5 1.9 1.7 2.8S77 158 76.8 159c-.2 1.1.4 2.5 1.1 2.8.6.4 2.5 2.3 3 3 .4.8 1.5-.8 2.5-1.5 1.3-.6 4 3.8 4.5 4.7.4.8 1.5 2.3 1.3 2.8-.2.4-.4 1.7-.4 1.9s.8 1.1 2.1 1.7c1.1.6-.8 1.3-.8 1.7 0 .4 1.7 1.3 2.8 1.9 1.1.6 2.3 2.5 2.8 3 .4.4 1.1-2.8 2.1-4.2 1.3-1.5 3.6-.6 5.9-.6 2.1 0 2.5.8 5.1 1.5 2.3.6 2.1 0 2.5-1.5.6-1.5.6-1.7.8-1.7.2 0 1.3-.8 1.9-.8.6 0 0 .4.6.8s.2-.6.8-1.1c.4-.4 2.5.8 3.2 1.1.6.2 1.5-.2 1.9-.6.4-.4.6.6.8.6.4.2 1.7-.8 1.7-.8s3.2 1.1 3.6 1.3c.4.2 2.3-.6 2.5-.8.2-.2 3.4-.6 4-.6.8 0 1.1.4 1.1.8.2.4 1.3.4 1.7.2s1.1-.6 1.1-1.1c0-.2-1.1-1.1-1.5-1.5-.4-.4.2-1.7.8-2.1.6-.6.6-1.7.6-2.1 0-.4 1.3-1.1 2.1-1.7.8-.6 1.5.8 2.1.8s.4.8.6 1.5.6.8 1.3 1.5c.6.6.4 1.5.6 1.9.2.4 1.5 1.3 1.9 1.7.6.4.6 1.1 1.3 1.7.4.6 2.3 1.3 2.5 1.5v-20h210.3L360.4 0z"/></svg>